<svg width="1750" height="663" fill="none" xmlns="http://www.w3.org/2000/svg">
  <g clip-path="url(#a)" fill-rule="evenodd" clip-rule="evenodd">
    <path d="M3.851 579.899c-4.512-3.723-5.152-10.399-1.429-14.911L221.5 299.472c3.723-4.512 10.398-5.151 14.91-1.429 4.512 3.723 5.152 10.399 1.429 14.911L18.761 578.47c-3.723 4.512-10.398 5.151-14.91 1.429Z" fill="#000"/>
    <path d="M235.135 294.49c7.142 1.565 11.663 8.624 10.098 15.766l-73.428 335.026c-1.565 7.143-8.624 11.664-15.767 10.098-7.142-1.565-11.663-8.624-10.097-15.766l73.427-335.026c1.566-7.143 8.625-11.664 15.767-10.098Z" fill="#420B27"/>
    <path d="M156.111 660.589c-8.83-5.179-11.789-16.535-6.609-25.365l352.619-601.12c5.18-8.83 16.536-11.79 25.366-6.61 8.829 5.18 11.788 16.536 6.609 25.365L181.476 653.98c-5.179 8.83-16.536 11.789-25.365 6.609Z" fill="#580E3A"/>
    <path d="M506.651 30.906c9.941-7.462 24.049-5.453 31.511 4.488l418.734 557.824c7.462 9.941 5.453 24.049-4.488 31.511-9.941 7.463-24.049 5.453-31.511-4.488L502.163 62.417c-7.463-9.94-5.453-24.049 4.488-31.511Z" fill="#6E1242"/>
    <path d="M929.333 627.613c-11.346-8.018-14.043-23.715-6.026-35.06L1329.86 17.259c8.02-11.345 23.72-14.043 35.06-6.025 11.35 8.017 14.05 23.714 6.03 35.06L964.392 621.588c-8.017 11.345-23.714 14.043-35.059 6.025Z" fill="#84154F"/>
    <path d="M1356.35 5.79c14.41 2.454 24.11 16.129 21.66 30.545l-54.16 318.322c-2.46 14.416-16.13 24.115-30.55 21.662-14.41-2.453-24.11-16.129-21.66-30.545l54.16-318.322c2.46-14.416 16.13-24.114 30.55-21.661Z" fill="#99195C"/>
    <path d="M1281.21 375.12c-12.33-13.494-11.39-34.429 2.11-46.76L1694.3 8.665c13.49-12.331 34.43-11.388 46.76 2.107 12.33 13.494 11.39 34.43-2.11 46.76l-410.98 319.695c-13.49 12.331-34.43 11.387-46.76-2.107Z" fill="#B51E6D"/>
  </g><defs><clipPath id="a"><path fill="#fff" d="M0 0h1750v663H0z"/></clipPath></defs>
</svg>