<svg xmlns="http://www.w3.org/2000/svg" xmlns:xlink="http://www.w3.org/1999/xlink" zoomAndPan="magnify" preserveAspectRatio="xMidYMid meet" version="1.0" viewBox="204.85 75.31 296.04 177.09"><defs><g/><clipPath id="0e09274cee"><path d="M 253.425781 75.308594 L 430 75.308594 L 430 171 L 253.425781 171 Z M 253.425781 75.308594 " clip-rule="nonzero"/></clipPath><clipPath id="6a78b87855"><path d="M 280 92 L 451.875 92 L 451.875 200.371094 L 280 200.371094 Z M 280 92 " clip-rule="nonzero"/></clipPath></defs><g clip-path="url(#0e09274cee)"><path fill="#000000" d="M 263.253906 140.589844 C 263.253906 108.960938 305.808594 83.320312 358.296875 83.320312 C 386.550781 83.320312 411.921875 90.746094 429.332031 102.539062 C 412.578125 86.238281 382.628906 75.382812 348.472656 75.382812 C 295.984375 75.382812 253.429688 101.023438 253.429688 132.652344 C 253.429688 147.257812 262.503906 160.585938 277.441406 170.703125 C 268.449219 161.953125 263.253906 151.640625 263.253906 140.589844 " fill-opacity="1" fill-rule="nonzero"/></g><path fill="#000000" d="M 360.324219 175.996094 C 319.65625 175.996094 286.296875 157.144531 282.996094 133.152344 C 282.816406 134.445312 282.726562 135.75 282.726562 137.066406 C 282.726562 162.890625 317.46875 183.828125 360.324219 183.828125 C 403.179688 183.828125 437.921875 162.890625 437.921875 137.066406 C 437.921875 135.75 437.828125 134.445312 437.652344 133.152344 C 434.351562 157.144531 400.992188 175.996094 360.324219 175.996094 " fill-opacity="1" fill-rule="nonzero"/><g clip-path="url(#6a78b87855)"><path fill="#36a03d" d="M 441.308594 118.703125 C 428.800781 103.074219 402.257812 92.289062 371.535156 92.289062 C 328.777344 92.289062 294.117188 113.175781 294.117188 138.941406 C 294.117188 140.253906 294.207031 141.558594 294.386719 142.847656 C 297.679688 118.910156 330.960938 100.101562 371.535156 100.101562 C 384.625 100.101562 397.8125 102.015625 410.191406 106.324219 C 418.421875 109.1875 426.539062 113.160156 432.394531 119.796875 C 440.15625 128.589844 443.640625 143.050781 437.992188 153.808594 C 428.1875 172.464844 406.417969 182.773438 386.972656 187.90625 C 374.90625 191.09375 362.398438 192.5625 349.925781 192.5625 C 322.457031 192.5625 297.789062 185.339844 280.859375 173.875 C 297.148438 189.722656 326.265625 200.28125 359.476562 200.28125 C 410.515625 200.28125 451.890625 175.351562 451.890625 144.597656 C 451.890625 135.25 448.066406 126.4375 441.308594 118.703125 " fill-opacity="1" fill-rule="nonzero"/></g><g fill="#36a03d" fill-opacity="1"><g transform="translate(202.81676, 252.239943)"><g><path d="M 2.03125 0 L 2.03125 -10.734375 L 9.734375 -10.734375 L 9.734375 -9.140625 L 3.6875 -9.140625 L 3.6875 -6.109375 L 9.03125 -6.109375 L 9.03125 -4.515625 L 3.6875 -4.515625 L 3.6875 0 Z M 2.03125 0 "/></g></g></g><g fill="#36a03d" fill-opacity="1"><g transform="translate(215.286201, 252.239943)"><g><path d="M 7.8125 0 L 1.828125 0 L 1.828125 -1.578125 L 3.984375 -1.578125 L 3.984375 -9.15625 L 1.828125 -9.15625 L 1.828125 -10.734375 L 7.8125 -10.734375 L 7.8125 -9.15625 L 5.640625 -9.15625 L 5.640625 -1.578125 L 7.8125 -1.578125 Z M 7.8125 0 "/></g></g></g><g fill="#36a03d" fill-opacity="1"><g transform="translate(226.344589, 252.239943)"><g><path d="M 9.578125 -1.59375 L 9.578125 0 L 2.03125 0 L 2.03125 -10.734375 L 3.6875 -10.734375 L 3.6875 -1.59375 Z M 9.578125 -1.59375 "/></g></g></g><g fill="#36a03d" fill-opacity="1"><g transform="translate(238.7987, 252.239943)"><g><path d="M 4.375 0 L 4.375 -9.140625 L 0.9375 -9.140625 L 0.9375 -10.734375 L 9.5625 -10.734375 L 9.5625 -9.140625 L 6.03125 -9.140625 L 6.03125 0 Z M 4.375 0 "/></g></g></g><g fill="#36a03d" fill-opacity="1"><g transform="translate(250.715984, 252.239943)"><g><path d="M 10.6875 -7.359375 C 10.6875 -6.671875 10.476562 -6.039062 10.0625 -5.46875 C 9.644531 -4.90625 9.109375 -4.492188 8.453125 -4.234375 L 11.21875 0.015625 L 9.171875 0 L 6.609375 -4 L 3.6875 -4 L 3.6875 0 L 2.03125 0 L 2.03125 -10.734375 L 7.265625 -10.734375 C 7.847656 -10.734375 8.398438 -10.59375 8.921875 -10.3125 C 9.453125 -10.03125 9.878906 -9.632812 10.203125 -9.125 C 10.523438 -8.613281 10.6875 -8.023438 10.6875 -7.359375 Z M 6.921875 -9.140625 L 3.6875 -9.140625 L 3.6875 -5.59375 L 7.1875 -5.59375 C 7.539062 -5.59375 7.851562 -5.675781 8.125 -5.84375 C 8.394531 -6.007812 8.601562 -6.226562 8.75 -6.5 C 8.894531 -6.769531 8.96875 -7.0625 8.96875 -7.375 C 8.96875 -7.726562 8.875 -8.035156 8.6875 -8.296875 C 8.507812 -8.566406 8.265625 -8.773438 7.953125 -8.921875 C 7.640625 -9.066406 7.296875 -9.140625 6.921875 -9.140625 Z M 6.921875 -9.140625 "/></g></g></g><g fill="#36a03d" fill-opacity="1"><g transform="translate(264.734518, 252.239943)"><g><path d="M 9.9375 0 L 8.84375 -2.609375 L 3.625 -2.609375 L 2.5 0 L 0.796875 0 L 5.390625 -10.734375 L 7.1875 -10.734375 L 11.734375 0 Z M 5.40625 -6.78125 L 4.296875 -4.203125 L 8.15625 -4.203125 L 7.03125 -6.84375 C 6.894531 -7.175781 6.757812 -7.519531 6.625 -7.875 C 6.488281 -8.226562 6.359375 -8.59375 6.234375 -8.96875 C 6.085938 -8.582031 5.945312 -8.203125 5.8125 -7.828125 C 5.675781 -7.460938 5.539062 -7.113281 5.40625 -6.78125 Z M 5.40625 -6.78125 "/></g></g></g><g fill="#36a03d" fill-opacity="1"><g transform="translate(278.691697, 252.239943)"><g><path d="M 4.375 0 L 4.375 -9.140625 L 0.9375 -9.140625 L 0.9375 -10.734375 L 9.5625 -10.734375 L 9.5625 -9.140625 L 6.03125 -9.140625 L 6.03125 0 Z M 4.375 0 "/></g></g></g><g fill="#36a03d" fill-opacity="1"><g transform="translate(290.608981, 252.239943)"><g><path d="M 7.8125 0 L 1.828125 0 L 1.828125 -1.578125 L 3.984375 -1.578125 L 3.984375 -9.15625 L 1.828125 -9.15625 L 1.828125 -10.734375 L 7.8125 -10.734375 L 7.8125 -9.15625 L 5.640625 -9.15625 L 5.640625 -1.578125 L 7.8125 -1.578125 Z M 7.8125 0 "/></g></g></g><g fill="#36a03d" fill-opacity="1"><g transform="translate(301.667366, 252.239943)"><g><path d="M 12.734375 -5.375 C 12.734375 -4.59375 12.59375 -3.863281 12.3125 -3.1875 C 12.03125 -2.519531 11.628906 -1.9375 11.109375 -1.4375 C 10.597656 -0.9375 9.988281 -0.546875 9.28125 -0.265625 C 8.582031 0.015625 7.816406 0.15625 6.984375 0.15625 C 6.140625 0.15625 5.363281 0.015625 4.65625 -0.265625 C 3.957031 -0.546875 3.351562 -0.9375 2.84375 -1.4375 C 2.332031 -1.9375 1.9375 -2.519531 1.65625 -3.1875 C 1.375 -3.863281 1.234375 -4.59375 1.234375 -5.375 C 1.234375 -6.144531 1.375 -6.863281 1.65625 -7.53125 C 1.9375 -8.207031 2.332031 -8.796875 2.84375 -9.296875 C 3.351562 -9.796875 3.957031 -10.1875 4.65625 -10.46875 C 5.363281 -10.75 6.140625 -10.890625 6.984375 -10.890625 C 7.816406 -10.890625 8.582031 -10.75 9.28125 -10.46875 C 9.988281 -10.1875 10.597656 -9.796875 11.109375 -9.296875 C 11.628906 -8.796875 12.03125 -8.207031 12.3125 -7.53125 C 12.59375 -6.863281 12.734375 -6.144531 12.734375 -5.375 Z M 11.046875 -5.375 C 11.046875 -6.113281 10.867188 -6.773438 10.515625 -7.359375 C 10.171875 -7.953125 9.691406 -8.421875 9.078125 -8.765625 C 8.460938 -9.109375 7.765625 -9.28125 6.984375 -9.28125 C 6.171875 -9.28125 5.457031 -9.109375 4.84375 -8.765625 C 4.238281 -8.421875 3.765625 -7.953125 3.421875 -7.359375 C 3.085938 -6.773438 2.921875 -6.113281 2.921875 -5.375 C 2.921875 -4.625 3.085938 -3.953125 3.421875 -3.359375 C 3.765625 -2.773438 4.238281 -2.3125 4.84375 -1.96875 C 5.457031 -1.625 6.171875 -1.453125 6.984375 -1.453125 C 7.765625 -1.453125 8.460938 -1.625 9.078125 -1.96875 C 9.691406 -2.3125 10.171875 -2.78125 10.515625 -3.375 C 10.867188 -3.96875 11.046875 -4.632812 11.046875 -5.375 Z M 11.046875 -5.375 "/></g></g></g><g fill="#36a03d" fill-opacity="1"><g transform="translate(317.05094, 252.239943)"><g><path d="M 10.515625 -10.734375 L 12.171875 -10.734375 L 12.171875 0 L 10.59375 0 L 3.40625 -8.296875 C 3.46875 -7.660156 3.53125 -7.023438 3.59375 -6.390625 C 3.65625 -5.753906 3.6875 -5.113281 3.6875 -4.46875 L 3.6875 0 L 2.03125 0 L 2.03125 -10.734375 L 3.578125 -10.734375 L 10.75 -2.234375 C 10.6875 -2.734375 10.632812 -3.269531 10.59375 -3.84375 C 10.5625 -4.414062 10.539062 -4.988281 10.53125 -5.5625 C 10.519531 -6.144531 10.515625 -6.695312 10.515625 -7.21875 Z M 10.515625 -10.734375 "/></g></g></g><g fill="#36a03d" fill-opacity="1"><g transform="translate(332.649239, 252.239943)"><g/></g></g><g fill="#36a03d" fill-opacity="1"><g transform="translate(339.627816, 252.239943)"><g><path d="M 4.375 0 L 4.375 -9.140625 L 0.9375 -9.140625 L 0.9375 -10.734375 L 9.5625 -10.734375 L 9.5625 -9.140625 L 6.03125 -9.140625 L 6.03125 0 Z M 4.375 0 "/></g></g></g><g fill="#36a03d" fill-opacity="1"><g transform="translate(351.545095, 252.239943)"><g><path d="M 2.03125 -10.734375 L 9.65625 -10.734375 L 9.65625 -9.140625 L 3.6875 -9.140625 L 3.6875 -6.3125 L 8.8125 -6.3125 L 8.8125 -4.703125 L 3.6875 -4.703125 L 3.6875 -1.59375 L 9.65625 -1.59375 L 9.65625 0 L 2.03125 0 Z M 2.03125 -10.734375 "/></g></g></g><g fill="#36a03d" fill-opacity="1"><g transform="translate(364.290611, 252.239943)"><g><path d="M 11.015625 -1.421875 C 10.773438 -1.179688 10.441406 -0.941406 10.015625 -0.703125 C 9.585938 -0.460938 9.097656 -0.257812 8.546875 -0.09375 C 7.992188 0.0703125 7.40625 0.15625 6.78125 0.15625 C 6 0.15625 5.269531 0.0234375 4.59375 -0.234375 C 3.925781 -0.492188 3.335938 -0.863281 2.828125 -1.34375 C 2.328125 -1.832031 1.9375 -2.414062 1.65625 -3.09375 C 1.375 -3.769531 1.234375 -4.53125 1.234375 -5.375 C 1.234375 -6.15625 1.378906 -6.878906 1.671875 -7.546875 C 1.972656 -8.210938 2.382812 -8.789062 2.90625 -9.28125 C 3.4375 -9.769531 4.035156 -10.148438 4.703125 -10.421875 C 5.378906 -10.691406 6.097656 -10.828125 6.859375 -10.828125 C 7.492188 -10.828125 8.085938 -10.738281 8.640625 -10.5625 C 9.203125 -10.382812 9.695312 -10.15625 10.125 -9.875 C 10.5625 -9.601562 10.910156 -9.3125 11.171875 -9 L 10.109375 -7.75 C 9.660156 -8.164062 9.160156 -8.507812 8.609375 -8.78125 C 8.066406 -9.050781 7.460938 -9.1875 6.796875 -9.1875 C 6.140625 -9.1875 5.515625 -9.03125 4.921875 -8.71875 C 4.328125 -8.414062 3.84375 -7.976562 3.46875 -7.40625 C 3.101562 -6.832031 2.921875 -6.15625 2.921875 -5.375 C 2.921875 -4.507812 3.109375 -3.789062 3.484375 -3.21875 C 3.867188 -2.644531 4.367188 -2.210938 4.984375 -1.921875 C 5.609375 -1.628906 6.28125 -1.484375 7 -1.484375 C 7.726562 -1.484375 8.359375 -1.625 8.890625 -1.90625 C 9.421875 -2.1875 9.859375 -2.484375 10.203125 -2.796875 Z M 11.015625 -1.421875 "/></g></g></g><g fill="#36a03d" fill-opacity="1"><g transform="translate(377.987065, 252.239943)"><g><path d="M 3.6875 -10.734375 L 3.6875 -6.125 L 9.890625 -6.125 L 9.890625 -10.734375 L 11.546875 -10.734375 L 11.546875 0 L 9.890625 0 L 9.890625 -4.53125 L 3.6875 -4.53125 L 3.6875 0 L 2.03125 0 L 2.03125 -10.734375 Z M 3.6875 -10.734375 "/></g></g></g><g fill="#36a03d" fill-opacity="1"><g transform="translate(392.971869, 252.239943)"><g><path d="M 10.515625 -10.734375 L 12.171875 -10.734375 L 12.171875 0 L 10.59375 0 L 3.40625 -8.296875 C 3.46875 -7.660156 3.53125 -7.023438 3.59375 -6.390625 C 3.65625 -5.753906 3.6875 -5.113281 3.6875 -4.46875 L 3.6875 0 L 2.03125 0 L 2.03125 -10.734375 L 3.578125 -10.734375 L 10.75 -2.234375 C 10.6875 -2.734375 10.632812 -3.269531 10.59375 -3.84375 C 10.5625 -4.414062 10.539062 -4.988281 10.53125 -5.5625 C 10.519531 -6.144531 10.515625 -6.695312 10.515625 -7.21875 Z M 10.515625 -10.734375 "/></g></g></g><g fill="#36a03d" fill-opacity="1"><g transform="translate(408.570168, 252.239943)"><g><path d="M 12.734375 -5.375 C 12.734375 -4.59375 12.59375 -3.863281 12.3125 -3.1875 C 12.03125 -2.519531 11.628906 -1.9375 11.109375 -1.4375 C 10.597656 -0.9375 9.988281 -0.546875 9.28125 -0.265625 C 8.582031 0.015625 7.816406 0.15625 6.984375 0.15625 C 6.140625 0.15625 5.363281 0.015625 4.65625 -0.265625 C 3.957031 -0.546875 3.351562 -0.9375 2.84375 -1.4375 C 2.332031 -1.9375 1.9375 -2.519531 1.65625 -3.1875 C 1.375 -3.863281 1.234375 -4.59375 1.234375 -5.375 C 1.234375 -6.144531 1.375 -6.863281 1.65625 -7.53125 C 1.9375 -8.207031 2.332031 -8.796875 2.84375 -9.296875 C 3.351562 -9.796875 3.957031 -10.1875 4.65625 -10.46875 C 5.363281 -10.75 6.140625 -10.890625 6.984375 -10.890625 C 7.816406 -10.890625 8.582031 -10.75 9.28125 -10.46875 C 9.988281 -10.1875 10.597656 -9.796875 11.109375 -9.296875 C 11.628906 -8.796875 12.03125 -8.207031 12.3125 -7.53125 C 12.59375 -6.863281 12.734375 -6.144531 12.734375 -5.375 Z M 11.046875 -5.375 C 11.046875 -6.113281 10.867188 -6.773438 10.515625 -7.359375 C 10.171875 -7.953125 9.691406 -8.421875 9.078125 -8.765625 C 8.460938 -9.109375 7.765625 -9.28125 6.984375 -9.28125 C 6.171875 -9.28125 5.457031 -9.109375 4.84375 -8.765625 C 4.238281 -8.421875 3.765625 -7.953125 3.421875 -7.359375 C 3.085938 -6.773438 2.921875 -6.113281 2.921875 -5.375 C 2.921875 -4.625 3.085938 -3.953125 3.421875 -3.359375 C 3.765625 -2.773438 4.238281 -2.3125 4.84375 -1.96875 C 5.457031 -1.625 6.171875 -1.453125 6.984375 -1.453125 C 7.765625 -1.453125 8.460938 -1.625 9.078125 -1.96875 C 9.691406 -2.3125 10.171875 -2.78125 10.515625 -3.375 C 10.867188 -3.96875 11.046875 -4.632812 11.046875 -5.375 Z M 11.046875 -5.375 "/></g></g></g><g fill="#36a03d" fill-opacity="1"><g transform="translate(423.953742, 252.239943)"><g><path d="M 9.578125 -1.59375 L 9.578125 0 L 2.03125 0 L 2.03125 -10.734375 L 3.6875 -10.734375 L 3.6875 -1.59375 Z M 9.578125 -1.59375 "/></g></g></g><g fill="#36a03d" fill-opacity="1"><g transform="translate(436.40785, 252.239943)"><g><path d="M 12.734375 -5.375 C 12.734375 -4.59375 12.59375 -3.863281 12.3125 -3.1875 C 12.03125 -2.519531 11.628906 -1.9375 11.109375 -1.4375 C 10.597656 -0.9375 9.988281 -0.546875 9.28125 -0.265625 C 8.582031 0.015625 7.816406 0.15625 6.984375 0.15625 C 6.140625 0.15625 5.363281 0.015625 4.65625 -0.265625 C 3.957031 -0.546875 3.351562 -0.9375 2.84375 -1.4375 C 2.332031 -1.9375 1.9375 -2.519531 1.65625 -3.1875 C 1.375 -3.863281 1.234375 -4.59375 1.234375 -5.375 C 1.234375 -6.144531 1.375 -6.863281 1.65625 -7.53125 C 1.9375 -8.207031 2.332031 -8.796875 2.84375 -9.296875 C 3.351562 -9.796875 3.957031 -10.1875 4.65625 -10.46875 C 5.363281 -10.75 6.140625 -10.890625 6.984375 -10.890625 C 7.816406 -10.890625 8.582031 -10.75 9.28125 -10.46875 C 9.988281 -10.1875 10.597656 -9.796875 11.109375 -9.296875 C 11.628906 -8.796875 12.03125 -8.207031 12.3125 -7.53125 C 12.59375 -6.863281 12.734375 -6.144531 12.734375 -5.375 Z M 11.046875 -5.375 C 11.046875 -6.113281 10.867188 -6.773438 10.515625 -7.359375 C 10.171875 -7.953125 9.691406 -8.421875 9.078125 -8.765625 C 8.460938 -9.109375 7.765625 -9.28125 6.984375 -9.28125 C 6.171875 -9.28125 5.457031 -9.109375 4.84375 -8.765625 C 4.238281 -8.421875 3.765625 -7.953125 3.421875 -7.359375 C 3.085938 -6.773438 2.921875 -6.113281 2.921875 -5.375 C 2.921875 -4.625 3.085938 -3.953125 3.421875 -3.359375 C 3.765625 -2.773438 4.238281 -2.3125 4.84375 -1.96875 C 5.457031 -1.625 6.171875 -1.453125 6.984375 -1.453125 C 7.765625 -1.453125 8.460938 -1.625 9.078125 -1.96875 C 9.691406 -2.3125 10.171875 -2.78125 10.515625 -3.375 C 10.867188 -3.96875 11.046875 -4.632812 11.046875 -5.375 Z M 11.046875 -5.375 "/></g></g></g><g fill="#36a03d" fill-opacity="1"><g transform="translate(451.791425, 252.239943)"><g><path d="M 7.21875 -10.828125 C 7.882812 -10.828125 8.503906 -10.738281 9.078125 -10.5625 C 9.660156 -10.394531 10.171875 -10.171875 10.609375 -9.890625 C 11.054688 -9.617188 11.40625 -9.320312 11.65625 -9 L 10.59375 -7.859375 C 10.125 -8.253906 9.601562 -8.578125 9.03125 -8.828125 C 8.46875 -9.085938 7.863281 -9.21875 7.21875 -9.21875 C 6.40625 -9.21875 5.675781 -9.046875 5.03125 -8.703125 C 4.382812 -8.367188 3.875 -7.910156 3.5 -7.328125 C 3.132812 -6.753906 2.953125 -6.101562 2.953125 -5.375 C 2.953125 -4.570312 3.148438 -3.875 3.546875 -3.28125 C 3.941406 -2.695312 4.460938 -2.242188 5.109375 -1.921875 C 5.753906 -1.609375 6.457031 -1.453125 7.21875 -1.453125 C 7.84375 -1.453125 8.425781 -1.554688 8.96875 -1.765625 C 9.507812 -1.972656 9.941406 -2.25 10.265625 -2.59375 C 10.585938 -2.945312 10.75 -3.359375 10.75 -3.828125 L 7.1875 -3.828125 L 7.1875 -5.453125 L 12.484375 -5.453125 C 12.503906 -5.316406 12.519531 -5.175781 12.53125 -5.03125 C 12.550781 -4.882812 12.5625 -4.75 12.5625 -4.625 C 12.5625 -4.0625 12.472656 -3.515625 12.296875 -2.984375 C 12.128906 -2.460938 11.878906 -2.019531 11.546875 -1.65625 C 11.097656 -1.09375 10.492188 -0.648438 9.734375 -0.328125 C 8.972656 -0.00390625 8.101562 0.15625 7.125 0.15625 C 6.3125 0.15625 5.550781 0.0234375 4.84375 -0.234375 C 4.132812 -0.492188 3.503906 -0.867188 2.953125 -1.359375 C 2.410156 -1.847656 1.988281 -2.429688 1.6875 -3.109375 C 1.382812 -3.785156 1.234375 -4.539062 1.234375 -5.375 C 1.234375 -6.144531 1.378906 -6.859375 1.671875 -7.515625 C 1.972656 -8.179688 2.398438 -8.757812 2.953125 -9.25 C 3.503906 -9.75 4.140625 -10.132812 4.859375 -10.40625 C 5.585938 -10.6875 6.375 -10.828125 7.21875 -10.828125 Z M 7.21875 -10.828125 "/></g></g></g><g fill="#36a03d" fill-opacity="1"><g transform="translate(466.898921, 252.239943)"><g><path d="M 7.8125 0 L 1.828125 0 L 1.828125 -1.578125 L 3.984375 -1.578125 L 3.984375 -9.15625 L 1.828125 -9.15625 L 1.828125 -10.734375 L 7.8125 -10.734375 L 7.8125 -9.15625 L 5.640625 -9.15625 L 5.640625 -1.578125 L 7.8125 -1.578125 Z M 7.8125 0 "/></g></g></g><g fill="#36a03d" fill-opacity="1"><g transform="translate(477.957306, 252.239943)"><g><path d="M 2.03125 -10.734375 L 9.65625 -10.734375 L 9.65625 -9.140625 L 3.6875 -9.140625 L 3.6875 -6.3125 L 8.8125 -6.3125 L 8.8125 -4.703125 L 3.6875 -4.703125 L 3.6875 -1.59375 L 9.65625 -1.59375 L 9.65625 0 L 2.03125 0 Z M 2.03125 -10.734375 "/></g></g></g><g fill="#36a03d" fill-opacity="1"><g transform="translate(490.702822, 252.239943)"><g><path d="M 2.34375 -3.265625 C 2.832031 -2.648438 3.347656 -2.171875 3.890625 -1.828125 C 4.429688 -1.492188 5.113281 -1.328125 5.9375 -1.328125 C 6.351562 -1.328125 6.753906 -1.382812 7.140625 -1.5 C 7.535156 -1.625 7.851562 -1.800781 8.09375 -2.03125 C 8.34375 -2.257812 8.46875 -2.550781 8.46875 -2.90625 C 8.46875 -3.414062 8.210938 -3.789062 7.703125 -4.03125 C 7.191406 -4.269531 6.472656 -4.460938 5.546875 -4.609375 C 4.398438 -4.796875 3.484375 -5.140625 2.796875 -5.640625 C 2.117188 -6.140625 1.78125 -6.867188 1.78125 -7.828125 C 1.78125 -8.460938 1.96875 -9.007812 2.34375 -9.46875 C 2.726562 -9.925781 3.226562 -10.273438 3.84375 -10.515625 C 4.46875 -10.765625 5.15625 -10.890625 5.90625 -10.890625 C 6.84375 -10.890625 7.65625 -10.722656 8.34375 -10.390625 C 9.039062 -10.066406 9.582031 -9.601562 9.96875 -9 L 8.84375 -7.828125 C 8.507812 -8.296875 8.09375 -8.675781 7.59375 -8.96875 C 7.101562 -9.257812 6.523438 -9.40625 5.859375 -9.40625 C 5.191406 -9.40625 4.628906 -9.273438 4.171875 -9.015625 C 3.722656 -8.753906 3.5 -8.390625 3.5 -7.921875 C 3.5 -7.378906 3.738281 -6.988281 4.21875 -6.75 C 4.695312 -6.507812 5.335938 -6.328125 6.140625 -6.203125 C 6.660156 -6.117188 7.160156 -6.003906 7.640625 -5.859375 C 8.117188 -5.710938 8.550781 -5.523438 8.9375 -5.296875 C 9.320312 -5.066406 9.625 -4.785156 9.84375 -4.453125 C 10.070312 -4.117188 10.1875 -3.710938 10.1875 -3.234375 C 10.1875 -2.546875 10.007812 -1.945312 9.65625 -1.4375 C 9.300781 -0.9375 8.796875 -0.546875 8.140625 -0.265625 C 7.492188 0.015625 6.722656 0.15625 5.828125 0.15625 C 4.890625 0.15625 4.035156 -0.00390625 3.265625 -0.328125 C 2.503906 -0.660156 1.832031 -1.195312 1.25 -1.9375 Z M 2.34375 -3.265625 "/></g></g></g></svg>