<svg xmlns="http://www.w3.org/2000/svg" xmlns:xlink="http://www.w3.org/1999/xlink" zoomAndPan="magnify" preserveAspectRatio="xMidYMid meet" version="1.0" viewBox="249.32 75.29 309.55 235.23"><defs><g/><clipPath id="f93a1676d0"><path d="M 332 75.285156 L 356 75.285156 L 356 90 L 332 90 Z M 332 75.285156 " clip-rule="nonzero"/></clipPath><clipPath id="51b130960d"><path d="M 332 250 L 356 250 L 356 264.160156 L 332 264.160156 Z M 332 250 " clip-rule="nonzero"/></clipPath><clipPath id="0e10cb5ac2"><path d="M 249.546875 158 L 264 158 L 264 182 L 249.546875 182 Z M 249.546875 158 " clip-rule="nonzero"/></clipPath><clipPath id="a4f8be0a5e"><path d="M 545 181 L 558.863281 181 L 558.863281 206 L 545 206 Z M 545 181 " clip-rule="nonzero"/></clipPath></defs><path fill="#332c2b" d="M 343.695312 86.578125 C 361.597656 86.578125 378.175781 92.238281 391.742188 101.867188 C 387.667969 103.367188 383.664062 105.003906 379.734375 106.773438 C 376.402344 108.273438 373.125 109.871094 369.902344 111.554688 C 361.910156 107.945312 353.035156 105.933594 343.695312 105.933594 C 308.476562 105.933594 279.925781 134.496094 279.925781 169.71875 C 279.925781 204.949219 308.476562 233.507812 343.695312 233.507812 C 378.914062 233.507812 407.464844 204.949219 407.464844 169.71875 C 407.464844 153.417969 401.347656 138.546875 391.289062 127.273438 C 393.292969 126.035156 395.324219 124.832031 397.382812 123.671875 C 401.058594 121.601562 404.824219 119.664062 408.664062 117.863281 C 420.019531 132.082031 426.816406 150.105469 426.816406 169.71875 C 426.816406 215.640625 389.601562 252.863281 343.695312 252.863281 C 297.789062 252.863281 260.578125 215.640625 260.578125 169.71875 C 260.578125 123.804688 297.789062 86.578125 343.695312 86.578125 " fill-opacity="1" fill-rule="evenodd"/><g clip-path="url(#f93a1676d0)"><path fill="#332c2b" d="M 343.695312 75.316406 L 354.035156 75.996094 L 355.351562 89.070312 L 332.042969 89.070312 L 333.359375 75.996094 Z M 343.695312 75.316406 " fill-opacity="1" fill-rule="evenodd"/></g><path fill="#332c2b" d="M 390.886719 87.964844 L 399.496094 93.726562 L 396.605469 100.152344 C 394.09375 100.996094 391.609375 101.894531 389.148438 102.84375 L 384.011719 99.875 L 373.917969 94.046875 L 381.59375 83.382812 Z M 390.886719 87.964844 " fill-opacity="1" fill-rule="evenodd"/><path fill="#332c2b" d="M 425.429688 122.519531 L 430.011719 131.8125 L 419.351562 139.488281 L 413.523438 129.394531 L 407.695312 119.296875 L 419.671875 113.90625 Z M 425.429688 122.519531 " fill-opacity="1" fill-rule="evenodd"/><path fill="#332c2b" d="M 438.074219 169.71875 L 437.394531 180.0625 L 424.328125 181.378906 L 424.328125 158.066406 L 437.394531 159.382812 Z M 438.074219 169.71875 " fill-opacity="1" fill-rule="evenodd"/><path fill="#332c2b" d="M 425.433594 216.921875 L 419.671875 225.539062 L 407.699219 220.144531 L 413.523438 210.046875 L 419.351562 199.953125 L 430.011719 207.628906 Z M 425.433594 216.921875 " fill-opacity="1" fill-rule="evenodd"/><path fill="#332c2b" d="M 390.886719 251.476562 L 381.59375 256.058594 L 373.921875 245.394531 L 384.011719 239.566406 L 394.105469 233.738281 L 399.5 245.71875 Z M 390.886719 251.476562 " fill-opacity="1" fill-rule="evenodd"/><g clip-path="url(#51b130960d)"><path fill="#332c2b" d="M 343.699219 264.128906 L 333.359375 263.445312 L 332.042969 250.375 L 355.351562 250.375 L 354.035156 263.445312 Z M 343.699219 264.128906 " fill-opacity="1" fill-rule="evenodd"/></g><path fill="#332c2b" d="M 296.507812 251.476562 L 287.894531 245.71875 L 293.289062 233.742188 L 303.382812 239.566406 L 313.472656 245.394531 L 305.800781 256.058594 Z M 296.507812 251.476562 " fill-opacity="1" fill-rule="evenodd"/><path fill="#332c2b" d="M 261.960938 216.925781 L 257.382812 207.628906 L 268.042969 199.953125 L 273.871094 210.046875 L 279.695312 220.144531 L 267.722656 225.539062 Z M 261.960938 216.925781 " fill-opacity="1" fill-rule="evenodd"/><g clip-path="url(#0e10cb5ac2)"><path fill="#332c2b" d="M 249.316406 169.722656 L 250 159.382812 L 263.066406 158.066406 L 263.066406 181.378906 L 250 180.0625 Z M 249.316406 169.722656 " fill-opacity="1" fill-rule="evenodd"/></g><path fill="#332c2b" d="M 261.960938 122.519531 L 267.71875 113.90625 L 279.695312 119.300781 L 273.871094 129.394531 L 268.042969 139.492188 L 257.382812 131.816406 Z M 261.960938 122.519531 " fill-opacity="1" fill-rule="evenodd"/><path fill="#332c2b" d="M 296.507812 87.964844 L 305.800781 83.382812 L 313.472656 94.046875 L 303.378906 99.875 L 293.289062 105.703125 L 287.894531 93.726562 Z M 296.507812 87.964844 " fill-opacity="1" fill-rule="evenodd"/><path fill="#332c2b" d="M 493.972656 159.761719 C 512.578125 159.761719 527.660156 174.847656 527.660156 193.457031 C 527.660156 212.066406 512.578125 227.152344 493.972656 227.152344 C 475.371094 227.152344 460.289062 212.066406 460.289062 193.457031 C 460.289062 174.847656 475.371094 159.761719 493.972656 159.761719 M 493.972656 139.839844 C 523.578125 139.839844 547.574219 163.847656 547.574219 193.457031 C 547.574219 223.066406 523.578125 247.070312 493.972656 247.070312 C 464.371094 247.070312 440.375 223.066406 440.375 193.457031 C 440.375 163.847656 464.371094 139.839844 493.972656 139.839844 Z M 493.972656 139.839844 " fill-opacity="1" fill-rule="evenodd"/><path fill="#332c2b" d="M 493.972656 128.550781 L 504.3125 129.230469 L 505.628906 142.300781 L 482.320312 142.300781 L 483.636719 129.230469 Z M 493.972656 128.550781 " fill-opacity="1" fill-rule="evenodd"/><path fill="#332c2b" d="M 539.855469 147.558594 L 546.683594 155.351562 L 538.378906 165.527344 L 521.894531 149.042969 L 532.066406 140.730469 Z M 539.855469 147.558594 " fill-opacity="1" fill-rule="evenodd"/><g clip-path="url(#a4f8be0a5e)"><path fill="#332c2b" d="M 558.863281 193.457031 L 558.183594 203.796875 L 545.113281 205.113281 L 545.113281 181.800781 L 558.183594 183.117188 Z M 558.863281 193.457031 " fill-opacity="1" fill-rule="evenodd"/></g><path fill="#332c2b" d="M 539.855469 239.351562 L 532.066406 246.179688 L 521.898438 237.871094 L 530.136719 229.628906 L 538.378906 221.386719 L 546.6875 231.558594 Z M 539.855469 239.351562 " fill-opacity="1" fill-rule="evenodd"/><path fill="#332c2b" d="M 493.976562 258.363281 L 483.636719 257.683594 L 482.320312 244.609375 L 505.628906 244.609375 L 504.3125 257.683594 Z M 493.976562 258.363281 " fill-opacity="1" fill-rule="evenodd"/><path fill="#332c2b" d="M 448.089844 239.351562 L 441.261719 231.558594 L 449.574219 221.386719 L 457.8125 229.628906 L 466.054688 237.871094 L 455.882812 246.183594 Z M 448.089844 239.351562 " fill-opacity="1" fill-rule="evenodd"/><path fill="#332c2b" d="M 429.085938 193.457031 L 429.765625 183.117188 L 442.835938 181.800781 L 442.835938 205.113281 L 429.765625 203.796875 Z M 429.085938 193.457031 " fill-opacity="1" fill-rule="evenodd"/><path fill="#332c2b" d="M 448.089844 147.558594 L 455.882812 140.730469 L 466.050781 149.042969 L 457.8125 157.285156 L 449.570312 165.527344 L 441.261719 155.355469 Z M 448.089844 147.558594 " fill-opacity="1" fill-rule="evenodd"/><path fill="#00adcf" d="M 401.527344 102.621094 C 419.039062 97.191406 437.652344 94.269531 456.949219 94.269531 C 492.773438 94.269531 526.242188 104.347656 554.679688 121.820312 C 532.582031 111.445312 507.917969 105.632812 481.886719 105.632812 C 462.351562 105.632812 443.578125 108.898438 426.082031 114.917969 C 422.496094 116.152344 418.964844 117.5 415.492188 118.960938 C 414.753906 119.269531 414.019531 119.585938 413.289062 119.902344 C 408.027344 122.203125 402.90625 124.757812 397.933594 127.554688 C 361.269531 148.179688 332.953125 181.894531 319.3125 222.367188 C 307.164062 216.800781 297.066406 207.535156 290.464844 196.003906 C 309.804688 158.339844 341.542969 128.089844 380.289062 110.65625 C 387.15625 107.5625 394.246094 104.875 401.527344 102.621094 " fill-opacity="1" fill-rule="evenodd"/><g fill="#332c2b" fill-opacity="1"><g transform="translate(256.342558, 310.343403)"><g><path d="M 11.90625 -1.765625 L 11.890625 0 L 2.046875 0 L 2.046875 -15.984375 L 11.890625 -15.984375 L 11.890625 -14.21875 L 4.203125 -14.21875 L 4.203125 -8.90625 L 10.4375 -8.90625 L 10.4375 -7.21875 L 4.203125 -7.21875 L 4.203125 -1.765625 Z M 11.90625 -1.765625 "/></g></g></g><g fill="#332c2b" fill-opacity="1"><g transform="translate(283.924433, 310.343403)"><g><path d="M 15 -15.984375 L 15 0 L 13.90625 0 C 13.738281 0 13.597656 -0.0234375 13.484375 -0.078125 C 13.367188 -0.140625 13.253906 -0.242188 13.140625 -0.390625 L 3.890625 -12.4375 C 3.910156 -12.25 3.921875 -12.066406 3.921875 -11.890625 C 3.929688 -11.710938 3.9375 -11.546875 3.9375 -11.390625 L 3.9375 0 L 2.046875 0 L 2.046875 -15.984375 L 3.15625 -15.984375 C 3.25 -15.984375 3.328125 -15.976562 3.390625 -15.96875 C 3.460938 -15.957031 3.523438 -15.9375 3.578125 -15.90625 C 3.628906 -15.882812 3.679688 -15.847656 3.734375 -15.796875 C 3.785156 -15.753906 3.84375 -15.695312 3.90625 -15.625 L 13.15625 -3.578125 C 13.132812 -3.773438 13.117188 -3.960938 13.109375 -4.140625 C 13.097656 -4.328125 13.09375 -4.5 13.09375 -4.65625 L 13.09375 -15.984375 Z M 15 -15.984375 "/></g></g></g><g fill="#332c2b" fill-opacity="1"><g transform="translate(315.655307, 310.343403)"><g><path d="M 15.03125 -7.6875 L 15.03125 -1.546875 C 14.226562 -0.972656 13.367188 -0.539062 12.453125 -0.25 C 11.546875 0.03125 10.546875 0.171875 9.453125 0.171875 C 8.171875 0.171875 7.007812 -0.0234375 5.96875 -0.421875 C 4.9375 -0.816406 4.054688 -1.375 3.328125 -2.09375 C 2.597656 -2.8125 2.035156 -3.671875 1.640625 -4.671875 C 1.242188 -5.679688 1.046875 -6.785156 1.046875 -7.984375 C 1.046875 -9.203125 1.238281 -10.3125 1.625 -11.3125 C 2.007812 -12.320312 2.550781 -13.1875 3.25 -13.90625 C 3.957031 -14.625 4.816406 -15.179688 5.828125 -15.578125 C 6.847656 -15.972656 7.976562 -16.171875 9.21875 -16.171875 C 9.851562 -16.171875 10.441406 -16.125 10.984375 -16.03125 C 11.523438 -15.9375 12.023438 -15.800781 12.484375 -15.625 C 12.953125 -15.445312 13.382812 -15.234375 13.78125 -14.984375 C 14.175781 -14.734375 14.539062 -14.453125 14.875 -14.140625 L 14.265625 -13.171875 C 14.171875 -13.015625 14.046875 -12.914062 13.890625 -12.875 C 13.742188 -12.832031 13.578125 -12.867188 13.390625 -12.984375 C 13.210938 -13.085938 13.003906 -13.210938 12.765625 -13.359375 C 12.535156 -13.515625 12.253906 -13.660156 11.921875 -13.796875 C 11.597656 -13.929688 11.207031 -14.046875 10.75 -14.140625 C 10.300781 -14.242188 9.769531 -14.296875 9.15625 -14.296875 C 8.257812 -14.296875 7.445312 -14.144531 6.71875 -13.84375 C 5.988281 -13.550781 5.363281 -13.128906 4.84375 -12.578125 C 4.332031 -12.035156 3.9375 -11.375 3.65625 -10.59375 C 3.382812 -9.820312 3.25 -8.953125 3.25 -7.984375 C 3.25 -6.984375 3.390625 -6.085938 3.671875 -5.296875 C 3.960938 -4.503906 4.375 -3.828125 4.90625 -3.265625 C 5.445312 -2.710938 6.09375 -2.289062 6.84375 -2 C 7.601562 -1.71875 8.457031 -1.578125 9.40625 -1.578125 C 10.144531 -1.578125 10.800781 -1.660156 11.375 -1.828125 C 11.957031 -1.992188 12.523438 -2.222656 13.078125 -2.515625 L 13.078125 -6.03125 L 10.59375 -6.03125 C 10.445312 -6.03125 10.332031 -6.070312 10.25 -6.15625 C 10.164062 -6.238281 10.125 -6.335938 10.125 -6.453125 L 10.125 -7.6875 Z M 15.03125 -7.6875 "/></g></g></g><g fill="#332c2b" fill-opacity="1"><g transform="translate(346.650078, 310.343403)"><g><path d="M 4.203125 0 L 2.046875 0 L 2.046875 -15.984375 L 4.203125 -15.984375 Z M 4.203125 0 "/></g></g></g><g fill="#332c2b" fill-opacity="1"><g transform="translate(367.595781, 310.343403)"><g><path d="M 15 -15.984375 L 15 0 L 13.90625 0 C 13.738281 0 13.597656 -0.0234375 13.484375 -0.078125 C 13.367188 -0.140625 13.253906 -0.242188 13.140625 -0.390625 L 3.890625 -12.4375 C 3.910156 -12.25 3.921875 -12.066406 3.921875 -11.890625 C 3.929688 -11.710938 3.9375 -11.546875 3.9375 -11.390625 L 3.9375 0 L 2.046875 0 L 2.046875 -15.984375 L 3.15625 -15.984375 C 3.25 -15.984375 3.328125 -15.976562 3.390625 -15.96875 C 3.460938 -15.957031 3.523438 -15.9375 3.578125 -15.90625 C 3.628906 -15.882812 3.679688 -15.847656 3.734375 -15.796875 C 3.785156 -15.753906 3.84375 -15.695312 3.90625 -15.625 L 13.15625 -3.578125 C 13.132812 -3.773438 13.117188 -3.960938 13.109375 -4.140625 C 13.097656 -4.328125 13.09375 -4.5 13.09375 -4.65625 L 13.09375 -15.984375 Z M 15 -15.984375 "/></g></g></g><g fill="#332c2b" fill-opacity="1"><g transform="translate(399.32666, 310.343403)"><g><path d="M 11.90625 -1.765625 L 11.890625 0 L 2.046875 0 L 2.046875 -15.984375 L 11.890625 -15.984375 L 11.890625 -14.21875 L 4.203125 -14.21875 L 4.203125 -8.90625 L 10.4375 -8.90625 L 10.4375 -7.21875 L 4.203125 -7.21875 L 4.203125 -1.765625 Z M 11.90625 -1.765625 "/></g></g></g><g fill="#332c2b" fill-opacity="1"><g transform="translate(426.90853, 310.343403)"><g><path d="M 11.90625 -1.765625 L 11.890625 0 L 2.046875 0 L 2.046875 -15.984375 L 11.890625 -15.984375 L 11.890625 -14.21875 L 4.203125 -14.21875 L 4.203125 -8.90625 L 10.4375 -8.90625 L 10.4375 -7.21875 L 4.203125 -7.21875 L 4.203125 -1.765625 Z M 11.90625 -1.765625 "/></g></g></g><g fill="#332c2b" fill-opacity="1"><g transform="translate(454.4904, 310.343403)"><g><path d="M 6.46875 -8.25 C 7.09375 -8.25 7.644531 -8.320312 8.125 -8.46875 C 8.601562 -8.625 9.003906 -8.835938 9.328125 -9.109375 C 9.648438 -9.390625 9.894531 -9.722656 10.0625 -10.109375 C 10.226562 -10.503906 10.3125 -10.9375 10.3125 -11.40625 C 10.3125 -12.351562 10 -13.066406 9.375 -13.546875 C 8.75 -14.035156 7.8125 -14.28125 6.5625 -14.28125 L 4.1875 -14.28125 L 4.1875 -8.25 Z M 13.859375 0 L 11.9375 0 C 11.539062 0 11.25 -0.148438 11.0625 -0.453125 L 6.921875 -6.171875 C 6.796875 -6.347656 6.660156 -6.472656 6.515625 -6.546875 C 6.367188 -6.628906 6.140625 -6.671875 5.828125 -6.671875 L 4.1875 -6.671875 L 4.1875 0 L 2.046875 0 L 2.046875 -15.984375 L 6.5625 -15.984375 C 7.570312 -15.984375 8.441406 -15.878906 9.171875 -15.671875 C 9.910156 -15.472656 10.519531 -15.179688 11 -14.796875 C 11.476562 -14.410156 11.832031 -13.941406 12.0625 -13.390625 C 12.300781 -12.847656 12.421875 -12.238281 12.421875 -11.5625 C 12.421875 -10.988281 12.328125 -10.457031 12.140625 -9.96875 C 11.960938 -9.476562 11.703125 -9.035156 11.359375 -8.640625 C 11.023438 -8.253906 10.613281 -7.921875 10.125 -7.640625 C 9.644531 -7.367188 9.097656 -7.164062 8.484375 -7.03125 C 8.753906 -6.875 8.988281 -6.644531 9.1875 -6.34375 Z M 13.859375 0 "/></g></g></g><g fill="#332c2b" fill-opacity="1"><g transform="translate(483.165276, 310.343403)"><g><path d="M 4.203125 0 L 2.046875 0 L 2.046875 -15.984375 L 4.203125 -15.984375 Z M 4.203125 0 "/></g></g></g><g fill="#332c2b" fill-opacity="1"><g transform="translate(504.110971, 310.343403)"><g><path d="M 15 -15.984375 L 15 0 L 13.90625 0 C 13.738281 0 13.597656 -0.0234375 13.484375 -0.078125 C 13.367188 -0.140625 13.253906 -0.242188 13.140625 -0.390625 L 3.890625 -12.4375 C 3.910156 -12.25 3.921875 -12.066406 3.921875 -11.890625 C 3.929688 -11.710938 3.9375 -11.546875 3.9375 -11.390625 L 3.9375 0 L 2.046875 0 L 2.046875 -15.984375 L 3.15625 -15.984375 C 3.25 -15.984375 3.328125 -15.976562 3.390625 -15.96875 C 3.460938 -15.957031 3.523438 -15.9375 3.578125 -15.90625 C 3.628906 -15.882812 3.679688 -15.847656 3.734375 -15.796875 C 3.785156 -15.753906 3.84375 -15.695312 3.90625 -15.625 L 13.15625 -3.578125 C 13.132812 -3.773438 13.117188 -3.960938 13.109375 -4.140625 C 13.097656 -4.328125 13.09375 -4.5 13.09375 -4.65625 L 13.09375 -15.984375 Z M 15 -15.984375 "/></g></g></g><g fill="#332c2b" fill-opacity="1"><g transform="translate(535.84185, 310.343403)"><g><path d="M 15.03125 -7.6875 L 15.03125 -1.546875 C 14.226562 -0.972656 13.367188 -0.539062 12.453125 -0.25 C 11.546875 0.03125 10.546875 0.171875 9.453125 0.171875 C 8.171875 0.171875 7.007812 -0.0234375 5.96875 -0.421875 C 4.9375 -0.816406 4.054688 -1.375 3.328125 -2.09375 C 2.597656 -2.8125 2.035156 -3.671875 1.640625 -4.671875 C 1.242188 -5.679688 1.046875 -6.785156 1.046875 -7.984375 C 1.046875 -9.203125 1.238281 -10.3125 1.625 -11.3125 C 2.007812 -12.320312 2.550781 -13.1875 3.25 -13.90625 C 3.957031 -14.625 4.816406 -15.179688 5.828125 -15.578125 C 6.847656 -15.972656 7.976562 -16.171875 9.21875 -16.171875 C 9.851562 -16.171875 10.441406 -16.125 10.984375 -16.03125 C 11.523438 -15.9375 12.023438 -15.800781 12.484375 -15.625 C 12.953125 -15.445312 13.382812 -15.234375 13.78125 -14.984375 C 14.175781 -14.734375 14.539062 -14.453125 14.875 -14.140625 L 14.265625 -13.171875 C 14.171875 -13.015625 14.046875 -12.914062 13.890625 -12.875 C 13.742188 -12.832031 13.578125 -12.867188 13.390625 -12.984375 C 13.210938 -13.085938 13.003906 -13.210938 12.765625 -13.359375 C 12.535156 -13.515625 12.253906 -13.660156 11.921875 -13.796875 C 11.597656 -13.929688 11.207031 -14.046875 10.75 -14.140625 C 10.300781 -14.242188 9.769531 -14.296875 9.15625 -14.296875 C 8.257812 -14.296875 7.445312 -14.144531 6.71875 -13.84375 C 5.988281 -13.550781 5.363281 -13.128906 4.84375 -12.578125 C 4.332031 -12.035156 3.9375 -11.375 3.65625 -10.59375 C 3.382812 -9.820312 3.25 -8.953125 3.25 -7.984375 C 3.25 -6.984375 3.390625 -6.085938 3.671875 -5.296875 C 3.960938 -4.503906 4.375 -3.828125 4.90625 -3.265625 C 5.445312 -2.710938 6.09375 -2.289062 6.84375 -2 C 7.601562 -1.71875 8.457031 -1.578125 9.40625 -1.578125 C 10.144531 -1.578125 10.800781 -1.660156 11.375 -1.828125 C 11.957031 -1.992188 12.523438 -2.222656 13.078125 -2.515625 L 13.078125 -6.03125 L 10.59375 -6.03125 C 10.445312 -6.03125 10.332031 -6.070312 10.25 -6.15625 C 10.164062 -6.238281 10.125 -6.335938 10.125 -6.453125 L 10.125 -7.6875 Z M 15.03125 -7.6875 "/></g></g></g></svg>