<svg xmlns="http://www.w3.org/2000/svg" xmlns:xlink="http://www.w3.org/1999/xlink" zoomAndPan="magnify" preserveAspectRatio="xMidYMid meet" version="1.0" viewBox="132.97 75.11 283.03 232.44"><defs><g/><clipPath id="37f01a0114"><path d="M 301 75.113281 L 322 75.113281 L 322 110 L 301 110 Z M 301 75.113281 " clip-rule="nonzero"/></clipPath><clipPath id="0844cf04bb"><path d="M 145.460938 75.113281 L 403.882812 75.113281 L 403.882812 260.125 L 145.460938 260.125 Z M 145.460938 75.113281 " clip-rule="nonzero"/></clipPath></defs><g clip-path="url(#37f01a0114)"><path fill="#000000" d="M 318.1875 101.25 C 319.015625 103.542969 319.886719 106.328125 320.824219 109.628906 L 321.570312 75.851562 C 319.324219 78.1875 316.730469 78.664062 315.003906 78.664062 C 313.40625 78.664062 311.621094 78.355469 309.699219 77.78125 C 308.328125 77.363281 305.871094 76.46875 302.460938 75.125 C 302.28125 75.238281 302.140625 75.390625 301.957031 75.515625 C 305.617188 78.847656 309.027344 83.042969 312.070312 88.132812 C 314.472656 92.105469 316.53125 96.507812 318.1875 101.25 Z M 318.1875 101.25 " fill-opacity="1" fill-rule="nonzero"/></g><g clip-path="url(#0844cf04bb)"><path fill="#000000" d="M 370.304688 75.601562 C 371.1875 76.046875 372.015625 76.539062 372.800781 77.082031 C 375.675781 79.140625 377.949219 81.78125 379.617188 85 C 381.273438 88.203125 382.128906 91.710938 382.128906 95.417969 C 382.128906 96.605469 381.570312 98.328125 381.398438 99.65625 L 337.980469 209.582031 C 338.023438 208.632812 338.121094 207.679688 338.121094 206.714844 C 338.121094 194.953125 334.585938 184.507812 327.617188 175.652344 C 325.34375 172.714844 322.507812 169.863281 319.140625 167.09375 C 313.265625 162.242188 305.757812 157.652344 296.640625 153.347656 L 292.277344 151.25 L 277.324219 144.046875 C 272.300781 141.667969 267.910156 139.066406 264.09375 136.285156 C 263.449219 135.824219 262.902344 135.320312 262.300781 134.84375 C 251.59375 126.367188 246.097656 116.171875 246.097656 104.339844 C 246.097656 100.144531 246.882812 95.894531 248.425781 91.726562 C 249.953125 87.53125 252.128906 83.839844 254.835938 80.734375 C 256.40625 78.886719 258.148438 77.320312 260 75.921875 C 260.140625 75.8125 260.277344 75.699219 260.417969 75.585938 C 260.628906 75.433594 260.8125 75.25 261.007812 75.113281 C 260.714844 75.238281 260.433594 75.449219 260.140625 75.585938 L 259.480469 75.585938 C 259.578125 75.644531 259.675781 75.726562 259.789062 75.78125 C 255.523438 77.796875 251.496094 80.425781 247.765625 83.894531 C 242.644531 88.578125 238.605469 94.257812 235.730469 100.816406 C 232.867188 107.390625 231.410156 114.300781 231.410156 121.375 C 231.410156 132.925781 234.984375 142.4375 242.335938 150.4375 C 244.960938 153.332031 248.507812 156.214844 252.871094 159.066406 C 253.152344 159.25 253.515625 159.457031 253.8125 159.652344 L 234.507812 215.960938 L 189.535156 106.535156 C 186.558594 99.683594 185.101562 94.328125 185.101562 90.203125 C 185.101562 86.664062 186.011719 83.433594 187.808594 80.578125 C 189.113281 78.511719 190.726562 76.847656 192.621094 75.585938 L 145.46875 75.585938 C 146.523438 76.089844 147.53125 76.664062 148.5 77.308594 C 151.433594 79.167969 154 81.753906 156.074219 85.011719 C 158.011719 88.0625 160.328125 92.789062 163.117188 99.433594 L 167.046875 108.96875 L 224.6875 247.316406 L 226.246094 247.316406 L 227.566406 243.414062 L 232.445312 229.050781 L 235.8125 219.148438 L 235.742188 218.980469 L 255.675781 160.816406 C 259.957031 163.414062 265.539062 166.449219 272.457031 169.933594 C 282.414062 174.980469 289.933594 179.246094 294.816406 182.589844 C 299.613281 185.863281 303.445312 189.371094 306.265625 192.980469 C 306.417969 193.175781 306.601562 193.371094 306.753906 193.582031 C 309.53125 197.332031 311.75 201.835938 313.347656 206.996094 C 314.835938 211.734375 315.566406 216.449219 315.664062 221.0625 C 315.675781 221.425781 315.746094 221.804688 315.746094 222.167969 C 315.746094 233.734375 311.988281 243.46875 304.539062 251.078125 C 300.527344 255.1875 295.898438 258.210938 290.691406 260.125 C 299.09375 259.0625 306.65625 256.515625 313.234375 252.53125 C 317.050781 250.210938 320.390625 247.371094 323.40625 244.183594 C 326.589844 240.8125 329.3125 236.953125 331.570312 232.65625 C 332.148438 231.566406 332.804688 230.546875 333.3125 229.386719 C 334.320312 227.121094 335.105469 224.796875 335.792969 222.449219 L 336.101562 221.707031 L 336.046875 221.527344 C 336.339844 220.460938 336.675781 219.398438 336.902344 218.308594 L 383.671875 99.992188 C 386.269531 94.664062 388.960938 90.105469 391.710938 86.609375 C 395.21875 81.910156 398.964844 78.371094 402.820312 76.160156 C 403.171875 75.964844 403.523438 75.78125 403.875 75.601562 Z M 370.304688 75.601562 " fill-opacity="1" fill-rule="nonzero"/></g><path fill="#000000" d="M 242.140625 231.371094 C 241.382812 228.992188 241.734375 226.183594 241.003906 222.769531 L 238.128906 256.964844 C 240.429688 254.726562 243.023438 254.417969 244.75 254.53125 C 246.347656 254.628906 248.117188 255.046875 250.023438 255.761719 C 251.386719 256.28125 253.8125 257.34375 257.179688 258.921875 C 257.359375 258.824219 257.515625 258.671875 257.683594 258.558594 C 254.105469 254.9375 250.824219 250.460938 247.90625 245.089844 C 245.621094 240.894531 243.683594 236.28125 242.140625 231.371094 Z M 242.140625 231.371094 " fill-opacity="1" fill-rule="nonzero"/><g fill="#000000" fill-opacity="1"><g transform="translate(132.184461, 306.968579)"><g><path d="M 12.121094 0 L 14.269531 0 C 14.269531 -0.742188 14.503906 -1.523438 15.050781 -3.011719 L 19.78125 -15.246094 L 25.6875 0 L 27.875 0 C 27.875 -0.742188 28.070312 -1.523438 28.617188 -3.011719 L 35.421875 -20.640625 C 36.164062 -22.519531 37.0625 -23.105469 38.898438 -23.496094 L 38.898438 -24.277344 L 31.511719 -24.277344 L 31.511719 -23.496094 C 33.738281 -23.183594 34.597656 -22.363281 33.972656 -20.640625 L 28.03125 -5.121094 C 27.757812 -4.457031 27.523438 -4.457031 27.25 -5.121094 L 21.230469 -20.835938 C 20.601562 -22.441406 20.523438 -23.066406 22.949219 -23.496094 L 22.949219 -24.277344 L 14.386719 -24.277344 L 14.386719 -23.457031 C 16.382812 -23.183594 16.929688 -22.441406 18.0625 -19.625 C 18.492188 -18.492188 18.960938 -16.851562 18.296875 -15.050781 L 14.464844 -5.121094 C 14.191406 -4.457031 13.957031 -4.457031 13.683594 -5.121094 L 7.625 -20.835938 C 7.039062 -22.441406 6.917969 -23.066406 9.382812 -23.496094 L 9.382812 -24.277344 L 0.78125 -24.277344 L 0.78125 -23.457031 C 2.777344 -23.183594 3.363281 -22.441406 4.457031 -19.625 Z M 12.121094 0 "/></g></g></g><g fill="#000000" fill-opacity="1"><g transform="translate(171.863026, 306.968579)"><g><path d="M 4.730469 -22.207031 C 5.746094 -22.207031 6.683594 -23.144531 6.683594 -24.199219 C 6.683594 -25.253906 5.746094 -26.15625 4.730469 -26.15625 C 3.675781 -26.15625 2.777344 -25.253906 2.777344 -24.199219 C 2.777344 -23.144531 3.675781 -22.207031 4.730469 -22.207031 Z M 1.015625 0 L 9.1875 0 L 9.1875 -0.78125 C 7.3125 -1.015625 6.644531 -1.445312 6.644531 -2.894531 L 6.644531 -16.773438 C 6.644531 -17.710938 6.136719 -18.101562 5.277344 -17.90625 L 0.976562 -16.929688 L 0.976562 -16.183594 C 3.167969 -16.421875 3.519531 -15.675781 3.519531 -13.957031 L 3.519531 -2.894531 C 3.519531 -1.445312 2.855469 -1.015625 1.015625 -0.78125 Z M 1.015625 0 "/></g></g></g><g fill="#000000" fill-opacity="1"><g transform="translate(182.026992, 306.968579)"><g><path d="M 18.21875 -2.855469 L 18.21875 -24.511719 C 18.21875 -25.410156 17.710938 -25.804688 16.851562 -25.609375 L 12.550781 -24.667969 L 12.550781 -23.925781 C 14.738281 -24.121094 15.089844 -23.417969 15.089844 -21.699219 L 15.089844 -17.945312 C 15.089844 -15.714844 13.410156 -17.984375 9.695312 -17.984375 C 5.238281 -17.984375 1.171875 -14.621094 1.171875 -8.601562 C 1.171875 -3.246094 4.613281 0.234375 8.914062 0.234375 C 11.257812 0.234375 13.410156 -0.78125 15.089844 -2.816406 L 15.089844 -2.777344 C 15.089844 -0.507812 16.105469 0.195312 17.828125 0.195312 C 18.648438 0.195312 19.585938 0.0390625 20.757812 -0.703125 L 20.757812 -1.523438 C 18.882812 -0.976562 18.21875 -1.523438 18.21875 -2.855469 Z M 10.671875 -1.914062 C 6.839844 -1.914062 4.378906 -5.433594 4.378906 -10.125 C 4.378906 -14.191406 6.214844 -16.929688 9.34375 -16.929688 C 11.964844 -16.929688 15.089844 -15.246094 15.089844 -11.492188 L 15.089844 -5.941406 C 15.089844 -2.855469 12.589844 -1.914062 10.671875 -1.914062 Z M 10.671875 -1.914062 "/></g></g></g><g fill="#000000" fill-opacity="1"><g transform="translate(203.371325, 306.968579)"><g><path d="M 4.730469 -22.207031 C 5.746094 -22.207031 6.683594 -23.144531 6.683594 -24.199219 C 6.683594 -25.253906 5.746094 -26.15625 4.730469 -26.15625 C 3.675781 -26.15625 2.777344 -25.253906 2.777344 -24.199219 C 2.777344 -23.144531 3.675781 -22.207031 4.730469 -22.207031 Z M 1.015625 0 L 9.1875 0 L 9.1875 -0.78125 C 7.3125 -1.015625 6.644531 -1.445312 6.644531 -2.894531 L 6.644531 -16.773438 C 6.644531 -17.710938 6.136719 -18.101562 5.277344 -17.90625 L 0.976562 -16.929688 L 0.976562 -16.183594 C 3.167969 -16.421875 3.519531 -15.675781 3.519531 -13.957031 L 3.519531 -2.894531 C 3.519531 -1.445312 2.855469 -1.015625 1.015625 -0.78125 Z M 1.015625 0 "/></g></g></g><g fill="#000000" fill-opacity="1"><g transform="translate(213.535291, 306.968579)"><g><path d="M 7.585938 0.195312 C 9.34375 0.195312 10.398438 -0.429688 10.945312 -0.898438 L 10.515625 -1.640625 C 10.203125 -1.40625 9.578125 -1.054688 8.523438 -1.054688 C 6.761719 -1.054688 6.214844 -2.621094 6.214844 -4.574219 L 6.214844 -15.753906 C 6.214844 -16.34375 6.488281 -16.578125 7 -16.578125 L 10.515625 -16.578125 L 10.515625 -17.632812 L 7 -17.632812 C 6.488281 -17.632812 6.214844 -17.867188 6.214844 -18.648438 L 6.214844 -21.699219 L 5.160156 -21.699219 C 4.613281 -19 3.167969 -17.789062 0.585938 -17.320312 L 0.585938 -16.578125 L 2.226562 -16.578125 C 2.777344 -16.578125 3.089844 -16.382812 3.089844 -15.753906 L 3.089844 -5.042969 C 3.089844 -1.171875 4.925781 0.195312 7.585938 0.195312 Z M 7.585938 0.195312 "/></g></g></g><g fill="#000000" fill-opacity="1"><g transform="translate(225.262956, 306.968579)"><g><path d="M 6.253906 0.234375 C 8.757812 0.234375 11.257812 -0.859375 12.667969 -2.621094 C 12.941406 -2.972656 13.253906 -2.972656 13.253906 -2.621094 C 13.292969 -0.625 14.347656 0.195312 15.910156 0.195312 C 16.695312 0.195312 17.632812 -0.0390625 18.335938 -0.507812 L 18.335938 -1.25 C 17.046875 -0.9375 16.382812 -1.445312 16.382812 -2.816406 L 16.382812 -11.570312 C 16.382812 -15.910156 14.738281 -17.984375 10.242188 -17.984375 C 6.488281 -17.984375 2.464844 -16.460938 2.464844 -13.761719 C 2.464844 -12.746094 3.011719 -12.042969 4.027344 -12.042969 C 5.082031 -12.042969 5.746094 -12.707031 5.746094 -14.074219 C 5.746094 -15.910156 6.722656 -16.96875 8.835938 -16.96875 C 11.925781 -16.96875 13.253906 -14.972656 13.253906 -12.277344 L 13.253906 -11.453125 C 13.253906 -10.671875 12.902344 -10.4375 12.355469 -10.398438 C 3.558594 -9.382812 1.171875 -7.078125 1.171875 -4.066406 C 1.171875 -1.015625 3.636719 0.234375 6.253906 0.234375 Z M 8.210938 -1.5625 C 5.746094 -1.5625 4.574219 -3.246094 4.574219 -5.003906 C 4.574219 -6.839844 5.941406 -8.679688 11.691406 -9.382812 C 13.058594 -9.539062 13.253906 -8.953125 13.253906 -8.054688 L 13.253906 -5.707031 C 13.253906 -3.558594 10.90625 -1.5625 8.210938 -1.5625 Z M 8.210938 -1.5625 "/></g></g></g><g fill="#000000" fill-opacity="1"><g transform="translate(244.379024, 306.968579)"><g/></g></g><g fill="#000000" fill-opacity="1"><g transform="translate(251.415622, 306.968579)"><g><path d="M 12.472656 0.585938 C 18.414062 0.585938 23.847656 -2.582031 23.769531 -6.917969 C 23.730469 -9.382812 21.894531 -11.730469 17.476562 -11.652344 C 24.316406 -15.207031 27.40625 -16.773438 27.40625 -20.054688 C 27.40625 -22.910156 25.019531 -24.277344 22.832031 -24.277344 C 21.582031 -24.277344 20.5625 -23.886719 19.742188 -23.417969 L 20.09375 -22.675781 C 22.558594 -23.574219 24.199219 -22.324219 24.199219 -20.289062 C 24.199219 -18.335938 23.027344 -17.242188 20.878906 -15.832031 L 16.578125 -12.902344 C 15.089844 -11.847656 13.800781 -11.0625 13.800781 -9.773438 C 13.800781 -8.875 14.230469 -8.289062 14.660156 -7.9375 L 15.597656 -7.9375 C 14.621094 -9.070312 15.480469 -10.710938 17.515625 -10.710938 C 19.273438 -10.710938 20.445312 -9.304688 20.445312 -7.234375 C 20.445312 -3.714844 17.359375 -0.46875 12.707031 -0.46875 C 8.679688 -0.46875 5.238281 -2.816406 5.238281 -7.039062 C 5.238281 -10.4375 7.820312 -13.292969 12.042969 -12.472656 L 12.433594 -13.449219 C 9.148438 -14.386719 7.390625 -17.046875 7.390625 -19.9375 C 7.390625 -22.363281 8.679688 -23.847656 11.023438 -23.847656 C 12.628906 -23.847656 14.230469 -22.753906 14.230469 -20.835938 C 14.230469 -19.585938 15.011719 -18.960938 15.910156 -18.960938 C 16.851562 -18.960938 17.515625 -19.664062 17.515625 -20.835938 C 17.515625 -23.183594 14.699219 -24.902344 11.140625 -24.902344 C 6.761719 -24.902344 4.027344 -22.441406 4.027344 -19.351562 C 4.027344 -16.8125 5.902344 -14.660156 8.210938 -14.035156 C 5.863281 -14.035156 1.5625 -11.492188 1.5625 -7.195312 C 1.5625 -2.347656 6.566406 0.585938 12.472656 0.585938 Z M 12.472656 0.585938 "/></g></g></g><g fill="#000000" fill-opacity="1"><g transform="translate(280.382923, 306.968579)"><g/></g></g><g fill="#000000" fill-opacity="1"><g transform="translate(287.419522, 306.968579)"><g><path d="M 9.460938 0.390625 C 14.269531 0.390625 19.078125 -1.484375 19.078125 -6.371094 C 19.078125 -11.257812 13.996094 -12.667969 10.320312 -13.957031 C 7.078125 -15.050781 4.574219 -16.304688 4.574219 -19.46875 C 4.574219 -21.582031 5.746094 -23.691406 8.953125 -23.691406 C 12.082031 -23.691406 14.933594 -21.660156 16.226562 -17.789062 C 16.382812 -17.398438 16.539062 -17.320312 16.851562 -17.320312 C 18.023438 -17.320312 18.101562 -20.367188 17.007812 -23.105469 C 15.089844 -24.238281 12.785156 -24.902344 10.085938 -24.902344 C 4.535156 -24.902344 1.367188 -22.089844 1.367188 -18.296875 C 1.367188 -14.230469 4.613281 -12.160156 8.992188 -10.671875 C 12.433594 -9.539062 15.636719 -8.757812 15.636719 -5.121094 C 15.636719 -2.226562 13.683594 -0.898438 10.867188 -0.859375 C 7.195312 -0.820312 4.222656 -3.011719 2.933594 -6.839844 C 2.816406 -7.273438 2.660156 -7.3125 2.347656 -7.3125 C 1.171875 -7.3125 1.09375 -4.261719 2.1875 -1.523438 C 4.066406 -0.390625 6.253906 0.390625 9.460938 0.390625 Z M 9.460938 0.390625 "/></g></g></g><g fill="#000000" fill-opacity="1"><g transform="translate(307.864723, 306.968579)"><g><path d="M 6.253906 0.234375 C 8.757812 0.234375 11.257812 -0.859375 12.667969 -2.621094 C 12.941406 -2.972656 13.253906 -2.972656 13.253906 -2.621094 C 13.292969 -0.625 14.347656 0.195312 15.910156 0.195312 C 16.695312 0.195312 17.632812 -0.0390625 18.335938 -0.507812 L 18.335938 -1.25 C 17.046875 -0.9375 16.382812 -1.445312 16.382812 -2.816406 L 16.382812 -11.570312 C 16.382812 -15.910156 14.738281 -17.984375 10.242188 -17.984375 C 6.488281 -17.984375 2.464844 -16.460938 2.464844 -13.761719 C 2.464844 -12.746094 3.011719 -12.042969 4.027344 -12.042969 C 5.082031 -12.042969 5.746094 -12.707031 5.746094 -14.074219 C 5.746094 -15.910156 6.722656 -16.96875 8.835938 -16.96875 C 11.925781 -16.96875 13.253906 -14.972656 13.253906 -12.277344 L 13.253906 -11.453125 C 13.253906 -10.671875 12.902344 -10.4375 12.355469 -10.398438 C 3.558594 -9.382812 1.171875 -7.078125 1.171875 -4.066406 C 1.171875 -1.015625 3.636719 0.234375 6.253906 0.234375 Z M 8.210938 -1.5625 C 5.746094 -1.5625 4.574219 -3.246094 4.574219 -5.003906 C 4.574219 -6.839844 5.941406 -8.679688 11.691406 -9.382812 C 13.058594 -9.539062 13.253906 -8.953125 13.253906 -8.054688 L 13.253906 -5.707031 C 13.253906 -3.558594 10.90625 -1.5625 8.210938 -1.5625 Z M 8.210938 -1.5625 "/></g></g></g><g fill="#000000" fill-opacity="1"><g transform="translate(326.980791, 306.968579)"><g><path d="M 1.015625 0 L 9.265625 0 L 9.265625 -0.78125 C 7.3125 -1.015625 6.644531 -1.445312 6.644531 -2.894531 L 6.644531 -10.203125 C 6.644531 -13.878906 8.5625 -16.183594 10.789062 -16.183594 C 12.082031 -16.183594 12.785156 -15.324219 12.785156 -14.308594 C 12.785156 -13.605469 13.410156 -12.941406 14.425781 -12.941406 C 15.441406 -12.941406 16.226562 -13.722656 16.226562 -14.855469 C 16.226562 -15.910156 15.675781 -17.984375 12.628906 -17.984375 C 9.8125 -17.984375 8.015625 -15.988281 7.46875 -15.441406 C 6.917969 -14.894531 6.644531 -15.246094 6.644531 -16.734375 C 6.644531 -17.710938 6.136719 -18.101562 5.277344 -17.90625 L 0.976562 -16.929688 L 0.976562 -16.183594 C 3.167969 -16.421875 3.519531 -15.675781 3.519531 -13.957031 L 3.519531 -2.894531 C 3.519531 -1.445312 2.855469 -1.015625 1.015625 -0.78125 Z M 1.015625 0 "/></g></g></g><g fill="#000000" fill-opacity="1"><g transform="translate(343.790424, 306.968579)"><g><path d="M 29.476562 -2.855469 L 29.476562 -11.613281 C 29.476562 -16.183594 26.9375 -17.984375 24.042969 -17.984375 C 20.796875 -17.984375 19.078125 -15.753906 18.492188 -15.246094 C 17.945312 -14.738281 17.554688 -14.972656 16.929688 -15.910156 C 15.910156 -17.359375 14.347656 -17.984375 12.746094 -17.984375 C 9.617188 -17.984375 8.054688 -15.832031 7.546875 -15.285156 C 7 -14.738281 6.644531 -15.246094 6.644531 -16.734375 C 6.644531 -17.710938 6.136719 -18.101562 5.277344 -17.90625 L 0.976562 -16.929688 L 0.976562 -16.144531 C 3.167969 -16.34375 3.519531 -15.636719 3.519531 -13.878906 L 3.519531 -2.894531 C 3.519531 -1.445312 2.855469 -1.015625 1.015625 -0.78125 L 1.015625 0 L 9.1875 0 L 9.1875 -0.78125 C 7.3125 -1.015625 6.644531 -1.445312 6.644531 -2.894531 L 6.644531 -10.789062 C 6.644531 -13.683594 8.367188 -16.027344 10.90625 -16.027344 C 13.644531 -16.027344 14.933594 -13.800781 14.933594 -10.789062 L 14.933594 -2.894531 C 14.933594 -1.445312 14.269531 -1.015625 12.433594 -0.78125 L 12.433594 0 L 20.5625 0 L 20.5625 -0.78125 C 18.726562 -1.015625 18.0625 -1.445312 18.0625 -2.894531 L 18.0625 -10.789062 C 18.0625 -13.683594 19.78125 -16.027344 22.324219 -16.027344 C 25.019531 -16.027344 26.351562 -13.800781 26.351562 -10.789062 L 26.351562 -2.464844 C 26.351562 -0.507812 27.367188 0.195312 28.929688 0.195312 C 29.90625 0.195312 30.652344 -0.078125 31.433594 -0.507812 L 31.433594 -1.328125 C 30.144531 -0.976562 29.476562 -1.523438 29.476562 -2.855469 Z M 29.476562 -2.855469 "/></g></g></g><g fill="#000000" fill-opacity="1"><g transform="translate(376.00239, 306.968579)"><g><path d="M 6.253906 0.234375 C 8.757812 0.234375 11.257812 -0.859375 12.667969 -2.621094 C 12.941406 -2.972656 13.253906 -2.972656 13.253906 -2.621094 C 13.292969 -0.625 14.347656 0.195312 15.910156 0.195312 C 16.695312 0.195312 17.632812 -0.0390625 18.335938 -0.507812 L 18.335938 -1.25 C 17.046875 -0.9375 16.382812 -1.445312 16.382812 -2.816406 L 16.382812 -11.570312 C 16.382812 -15.910156 14.738281 -17.984375 10.242188 -17.984375 C 6.488281 -17.984375 2.464844 -16.460938 2.464844 -13.761719 C 2.464844 -12.746094 3.011719 -12.042969 4.027344 -12.042969 C 5.082031 -12.042969 5.746094 -12.707031 5.746094 -14.074219 C 5.746094 -15.910156 6.722656 -16.96875 8.835938 -16.96875 C 11.925781 -16.96875 13.253906 -14.972656 13.253906 -12.277344 L 13.253906 -11.453125 C 13.253906 -10.671875 12.902344 -10.4375 12.355469 -10.398438 C 3.558594 -9.382812 1.171875 -7.078125 1.171875 -4.066406 C 1.171875 -1.015625 3.636719 0.234375 6.253906 0.234375 Z M 8.210938 -1.5625 C 5.746094 -1.5625 4.574219 -3.246094 4.574219 -5.003906 C 4.574219 -6.839844 5.941406 -8.679688 11.691406 -9.382812 C 13.058594 -9.539062 13.253906 -8.953125 13.253906 -8.054688 L 13.253906 -5.707031 C 13.253906 -3.558594 10.90625 -1.5625 8.210938 -1.5625 Z M 8.210938 -1.5625 "/></g></g></g><g fill="#000000" fill-opacity="1"><g transform="translate(395.118458, 306.968579)"><g><path d="M 18.375 0.195312 C 19.351562 0.195312 20.132812 -0.078125 20.878906 -0.507812 L 20.878906 -1.25 C 19.585938 -0.9375 18.921875 -1.445312 18.921875 -2.816406 L 18.921875 -11.613281 C 18.921875 -16.183594 16.144531 -17.984375 13.214844 -17.984375 C 9.8125 -17.984375 8.054688 -15.832031 7.546875 -15.285156 C 7 -14.738281 6.644531 -15.246094 6.644531 -16.734375 C 6.644531 -17.710938 6.136719 -18.101562 5.277344 -17.90625 L 0.976562 -16.929688 L 0.976562 -16.183594 C 3.167969 -16.421875 3.519531 -15.675781 3.519531 -13.957031 L 3.519531 -2.894531 C 3.519531 -1.445312 2.855469 -1.015625 1.015625 -0.78125 L 1.015625 0 L 9.1875 0 L 9.1875 -0.78125 C 7.3125 -1.015625 6.644531 -1.445312 6.644531 -2.894531 L 6.644531 -10.789062 C 6.644531 -13.683594 8.5625 -16.027344 11.375 -16.027344 C 14.308594 -16.027344 15.792969 -13.800781 15.792969 -10.789062 L 15.792969 -2.464844 C 15.792969 -0.507812 16.8125 0.195312 18.375 0.195312 Z M 18.375 0.195312 "/></g></g></g></svg>