<svg xmlns="http://www.w3.org/2000/svg" xmlns:xlink="http://www.w3.org/1999/xlink" zoomAndPan="magnify" preserveAspectRatio="xMidYMid meet" version="1.0" viewBox="75.08 75.24 300.51 300.51"><defs><g/><clipPath id="13ea4214b1"><path d="M 75.078125 75.238281 L 375.589844 75.238281 L 375.589844 375.75 L 75.078125 375.75 Z M 75.078125 75.238281 " clip-rule="nonzero"/></clipPath><clipPath id="1c7420ab19"><path d="M 225.335938 75.238281 C 142.351562 75.238281 75.078125 142.511719 75.078125 225.496094 C 75.078125 308.476562 142.351562 375.75 225.335938 375.75 C 308.320312 375.75 375.589844 308.476562 375.589844 225.496094 C 375.589844 142.511719 308.320312 75.238281 225.335938 75.238281 " clip-rule="nonzero"/></clipPath><clipPath id="4b41260a7e"><path d="M 83.511719 83.671875 L 367.15625 83.671875 L 367.15625 367.316406 L 83.511719 367.316406 Z M 83.511719 83.671875 " clip-rule="nonzero"/></clipPath><clipPath id="17908ed617"><path d="M 225.335938 83.671875 C 147.007812 83.671875 83.511719 147.167969 83.511719 225.496094 C 83.511719 303.820312 147.007812 367.316406 225.335938 367.316406 C 303.660156 367.316406 367.15625 303.820312 367.15625 225.496094 C 367.15625 147.167969 303.660156 83.671875 225.335938 83.671875 " clip-rule="nonzero"/></clipPath><clipPath id="01b06e758e"><path d="M 88.085938 88.242188 L 362.585938 88.242188 L 362.585938 362.746094 L 88.085938 362.746094 Z M 88.085938 88.242188 " clip-rule="nonzero"/></clipPath><clipPath id="ffe596aa37"><path d="M 225.335938 88.242188 C 149.535156 88.242188 88.085938 149.691406 88.085938 225.496094 C 88.085938 301.296875 149.535156 362.746094 225.335938 362.746094 C 301.136719 362.746094 362.585938 301.296875 362.585938 225.496094 C 362.585938 149.691406 301.136719 88.242188 225.335938 88.242188 " clip-rule="nonzero"/></clipPath><clipPath id="bbe8854e76"><path d="M 135 135.160156 L 315.671875 135.160156 L 315.671875 315.828125 L 135 315.828125 Z M 135 135.160156 " clip-rule="nonzero"/></clipPath><clipPath id="cc351f3fcd"><path d="M 225.335938 135.160156 C 175.445312 135.160156 135 175.601562 135 225.496094 C 135 275.386719 175.445312 315.828125 225.335938 315.828125 C 275.226562 315.828125 315.671875 275.386719 315.671875 225.496094 C 315.671875 175.601562 275.226562 135.160156 225.335938 135.160156 " clip-rule="nonzero"/></clipPath><clipPath id="0c50e31626"><path d="M 135 135.160156 L 315.75 135.160156 L 315.75 315.910156 L 135 315.910156 Z M 135 135.160156 " clip-rule="nonzero"/></clipPath><clipPath id="687f25cce6"><path d="M 225.375 135.160156 C 175.460938 135.160156 135 175.621094 135 225.535156 C 135 275.445312 175.460938 315.910156 225.375 315.910156 C 275.289062 315.910156 315.75 275.445312 315.75 225.535156 C 315.75 175.621094 275.289062 135.160156 225.375 135.160156 " clip-rule="nonzero"/></clipPath><clipPath id="ec25d7eb39"><path d="M 143.246094 142.582031 L 306.746094 142.582031 L 306.746094 236 L 143.246094 236 Z M 143.246094 142.582031 " clip-rule="nonzero"/></clipPath><clipPath id="a7ee9138a1"><path d="M 95.878906 208.46875 L 125.878906 208.46875 L 125.878906 238.46875 L 95.878906 238.46875 Z M 95.878906 208.46875 " clip-rule="nonzero"/></clipPath><clipPath id="c54348bd65"><path d="M 324.671875 208.46875 L 354.671875 208.46875 L 354.671875 238.46875 L 324.671875 238.46875 Z M 324.671875 208.46875 " clip-rule="nonzero"/></clipPath></defs><g clip-path="url(#13ea4214b1)"><g clip-path="url(#1c7420ab19)"><path fill="#0e0e37" d="M 75.078125 75.238281 L 375.589844 75.238281 L 375.589844 375.75 L 75.078125 375.75 Z M 75.078125 75.238281 " fill-opacity="1" fill-rule="nonzero"/></g></g><g clip-path="url(#4b41260a7e)"><g clip-path="url(#17908ed617)"><path fill="#fd810a" d="M 83.511719 83.671875 L 367.15625 83.671875 L 367.15625 367.316406 L 83.511719 367.316406 Z M 83.511719 83.671875 " fill-opacity="1" fill-rule="nonzero"/></g></g><g clip-path="url(#01b06e758e)"><g clip-path="url(#ffe596aa37)"><path fill="#0e0e37" d="M 88.085938 88.242188 L 362.585938 88.242188 L 362.585938 362.746094 L 88.085938 362.746094 Z M 88.085938 88.242188 " fill-opacity="1" fill-rule="nonzero"/></g></g><g fill="#ffffff" fill-opacity="1"><g transform="translate(102.893775, 254.90707)"><g><path d="M 2.921875 10.15625 C 2.265625 8.207031 1.816406 6.3125 1.578125 4.46875 C 1.335938 2.632812 1.273438 1.179688 1.390625 0.109375 L 7.390625 -1.90625 L 9.625 4.765625 C 9 4.972656 8.59375 5.269531 8.40625 5.65625 C 8.21875 6.039062 8.25 6.601562 8.5 7.34375 C 8.707031 7.976562 8.953125 8.394531 9.234375 8.59375 C 9.523438 8.800781 9.859375 8.84375 10.234375 8.71875 C 10.554688 8.613281 10.789062 8.390625 10.9375 8.046875 C 11.082031 7.710938 11.171875 7.175781 11.203125 6.4375 L 11.21875 3.515625 C 11.320312 0.992188 11.785156 -0.945312 12.609375 -2.3125 C 13.441406 -3.6875 14.835938 -4.703125 16.796875 -5.359375 C 19.179688 -6.160156 21.257812 -5.984375 23.03125 -4.828125 C 24.800781 -3.671875 26.300781 -1.257812 27.53125 2.40625 C 28.113281 4.15625 28.488281 5.863281 28.65625 7.53125 C 28.820312 9.195312 28.769531 10.601562 28.5 11.75 L 23.0625 13.5625 L 21.03125 7.5 C 22.050781 7.164062 22.351562 6.375 21.9375 5.125 C 21.726562 4.507812 21.503906 4.097656 21.265625 3.890625 C 21.023438 3.691406 20.710938 3.660156 20.328125 3.796875 C 19.984375 3.910156 19.757812 4.144531 19.65625 4.5 C 19.550781 4.863281 19.5 5.414062 19.5 6.15625 L 19.46875 9.109375 C 19.46875 11.492188 19.046875 13.367188 18.203125 14.734375 C 17.367188 16.109375 16.015625 17.109375 14.140625 17.734375 C 11.578125 18.585938 9.34375 18.375 7.4375 17.09375 C 5.539062 15.8125 4.035156 13.5 2.921875 10.15625 Z M 2.921875 10.15625 "/></g></g></g><g fill="#ffffff" fill-opacity="1"><g transform="translate(112.038056, 280.821753)"><g><path d="M 17.25 17.671875 L 17.921875 18.765625 L 13.46875 21.546875 L 6.8125 10.90625 L 11.265625 8.125 L 12.296875 9.75 L 14.1875 7.953125 L 11.890625 4.265625 L 9.4375 5.1875 L 10.453125 6.828125 L 6 9.609375 L 0.203125 0.328125 L 4.65625 -2.453125 L 5.328125 -1.375 L 24.859375 -7.203125 L 31.03125 2.671875 Z M 15.140625 3.078125 L 16.6875 5.5625 L 21.390625 1.078125 L 21.21875 0.8125 Z M 15.140625 3.078125 "/></g></g></g><g fill="#ffffff" fill-opacity="1"><g transform="translate(129.615248, 307.105874)"><g><path d="M 0.453125 0.453125 L 4.140625 -3.28125 L 5.28125 -2.171875 L 15.390625 -12.421875 L 14.25 -13.53125 L 17.9375 -17.265625 L 27.546875 -7.78125 L 23.859375 -4.046875 L 21.765625 -6.109375 L 11.65625 4.140625 L 13.703125 6.15625 L 15.765625 4.0625 L 20.3125 8.546875 L 14.5625 14.375 Z M 0.453125 0.453125 "/></g></g></g><g fill="#ffffff" fill-opacity="1"><g transform="translate(148.895334, 325.262617)"><g><path d="M 0.546875 0.34375 L 3.375 -4.078125 L 4.703125 -3.21875 L 12.46875 -15.328125 L 11.140625 -16.1875 L 13.984375 -20.609375 L 30.09375 -10.28125 L 25.625 -3.3125 L 20.84375 -6.375 L 22.46875 -8.921875 L 20.03125 -10.484375 L 17.171875 -6.03125 L 21.234375 -3.421875 L 19.265625 -0.34375 L 15.203125 -2.953125 L 12.265625 1.625 L 15.78125 3.890625 L 12.953125 8.3125 Z M 0.546875 0.34375 "/></g></g></g><g fill="#ffffff" fill-opacity="1"><g transform="translate(171.029163, 339.005601)"><g><path d="M 11.78125 4.671875 C 8.101562 3.359375 5.609375 1.382812 4.296875 -1.25 C 2.984375 -3.894531 3.082031 -7.335938 4.59375 -11.578125 C 6.101562 -15.816406 8.203125 -18.546875 10.890625 -19.765625 C 13.578125 -20.984375 16.757812 -20.9375 20.4375 -19.625 C 24.113281 -18.3125 26.609375 -16.335938 27.921875 -13.703125 C 29.234375 -11.066406 29.132812 -7.628906 27.625 -3.390625 C 26.113281 0.847656 24.015625 3.578125 21.328125 4.796875 C 18.640625 6.023438 15.457031 5.984375 11.78125 4.671875 Z M 13.703125 -0.703125 C 14.390625 -0.460938 14.960938 -0.460938 15.421875 -0.703125 C 15.890625 -0.941406 16.257812 -1.441406 16.53125 -2.203125 L 19.78125 -11.3125 C 20.050781 -12.070312 20.078125 -12.691406 19.859375 -13.171875 C 19.648438 -13.648438 19.203125 -14.007812 18.515625 -14.25 C 17.828125 -14.5 17.25 -14.503906 16.78125 -14.265625 C 16.320312 -14.023438 15.957031 -13.523438 15.6875 -12.765625 L 12.4375 -3.65625 C 12.164062 -2.875 12.132812 -2.25 12.34375 -1.78125 C 12.5625 -1.3125 13.015625 -0.953125 13.703125 -0.703125 Z M 13.703125 -0.703125 "/></g></g></g><g fill="#ffffff" fill-opacity="1"><g transform="translate(200.858684, 348.825468)"><g><path d="M 1.109375 -5.171875 L 2.6875 -5.03125 L 3.984375 -19.359375 L 2.40625 -19.5 L 2.890625 -24.71875 L 17.515625 -23.40625 C 20.253906 -23.15625 22.296875 -22.398438 23.640625 -21.140625 C 24.984375 -19.890625 25.539062 -18.003906 25.3125 -15.484375 C 25.1875 -14.054688 24.785156 -12.847656 24.109375 -11.859375 C 23.441406 -10.878906 22.5625 -10.234375 21.46875 -9.921875 L 21.46875 -9.59375 C 23.476562 -9.09375 24.382812 -7.75 24.1875 -5.5625 L 23.953125 -3.109375 L 25.453125 -2.96875 L 24.984375 2.265625 L 14.875 1.34375 L 15.546875 -6.140625 C 15.628906 -6.972656 15.566406 -7.609375 15.359375 -8.046875 C 15.148438 -8.492188 14.796875 -8.816406 14.296875 -9.015625 C 13.796875 -9.210938 13.066406 -9.351562 12.109375 -9.4375 L 11.625 -4.21875 L 13.734375 -4.03125 L 13.265625 1.203125 L 0.640625 0.0625 Z M 14.171875 -13.171875 C 14.785156 -13.117188 15.257812 -13.242188 15.59375 -13.546875 C 15.9375 -13.847656 16.140625 -14.351562 16.203125 -15.0625 L 16.3125 -16.1875 C 16.375 -16.894531 16.265625 -17.425781 15.984375 -17.78125 C 15.703125 -18.132812 15.253906 -18.335938 14.640625 -18.390625 L 12.921875 -18.546875 L 12.453125 -13.328125 Z M 14.171875 -13.171875 "/></g></g></g><g fill="#ffffff" fill-opacity="1"><g transform="translate(232.46724, 350.919331)"><g><path d="M -0.21875 -5.296875 L 1.359375 -5.546875 L -0.984375 -19.703125 L -2.5625 -19.453125 L -3.40625 -24.671875 L 9.40625 -26.765625 C 12.925781 -27.347656 15.878906 -26.847656 18.265625 -25.265625 C 20.660156 -23.679688 22.21875 -20.71875 22.9375 -16.375 C 23.644531 -12.039062 23.117188 -8.738281 21.359375 -6.46875 C 19.597656 -4.207031 16.957031 -2.785156 13.4375 -2.203125 L 0.625 -0.109375 Z M 12.046875 -7.3125 C 12.753906 -7.425781 13.253906 -7.703125 13.546875 -8.140625 C 13.847656 -8.578125 13.929688 -9.191406 13.796875 -9.984375 L 12.234375 -19.515625 C 11.972656 -21.066406 11.128906 -21.726562 9.703125 -21.5 L 7.875 -21.1875 L 10.21875 -7 Z M 12.046875 -7.3125 "/></g></g></g><g fill="#ffffff" fill-opacity="1"><g transform="translate(262.834255, 344.685014)"><g/></g></g><g fill="#ffffff" fill-opacity="1"><g transform="translate(277.065868, 339.847707)"><g><path d="M 9.875 -5.3125 C 6.914062 -3.5625 4.316406 -2.765625 2.078125 -2.921875 C -0.148438 -3.078125 -1.835938 -4.117188 -2.984375 -6.046875 C -3.734375 -7.328125 -4 -8.664062 -3.78125 -10.0625 C -3.570312 -11.46875 -3.03125 -12.757812 -2.15625 -13.9375 C -3.625 -14.050781 -4.84375 -14.34375 -5.8125 -14.8125 C -6.78125 -15.28125 -7.566406 -16.023438 -8.171875 -17.046875 C -8.867188 -18.222656 -9.09375 -19.457031 -8.84375 -20.75 C -8.59375 -22.039062 -7.925781 -23.296875 -6.84375 -24.515625 C -5.769531 -25.734375 -4.378906 -26.851562 -2.671875 -27.875 C -0.941406 -28.882812 0.757812 -29.601562 2.4375 -30.03125 C 4.125 -30.457031 5.46875 -30.617188 6.46875 -30.515625 L 9.59375 -25.21875 L 3.8125 -21.796875 L 3.515625 -22.296875 C 3.128906 -22.960938 2.6875 -23.351562 2.1875 -23.46875 C 1.695312 -23.59375 1.140625 -23.472656 0.515625 -23.109375 C -0.640625 -22.421875 -0.953125 -21.628906 -0.421875 -20.734375 C -0.222656 -20.390625 0.109375 -20.144531 0.578125 -20 C 1.046875 -19.863281 1.734375 -19.738281 2.640625 -19.625 L 9.140625 -18.890625 C 8.972656 -19.316406 8.742188 -19.78125 8.453125 -20.28125 L 8.15625 -20.78125 L 14.8125 -24.703125 L 17.53125 -20.09375 L 15.921875 -19.140625 L 16.21875 -18.09375 L 19.796875 -17.6875 L 19.0625 -11.265625 L 16.15625 -11.625 C 15.070312 -9.25 12.976562 -7.144531 9.875 -5.3125 Z M 7.6875 -10.640625 C 8.582031 -11.160156 9.21875 -11.757812 9.59375 -12.4375 L 4.515625 -13.0625 C 4.265625 -12.695312 4.117188 -12.3125 4.078125 -11.90625 C 4.046875 -11.507812 4.132812 -11.132812 4.34375 -10.78125 C 4.664062 -10.226562 5.101562 -9.945312 5.65625 -9.9375 C 6.21875 -9.9375 6.894531 -10.171875 7.6875 -10.640625 Z M 7.6875 -10.640625 "/></g></g></g><g fill="#ffffff" fill-opacity="1"><g transform="translate(303.767375, 322.577491)"><g/></g></g><g fill="#ffffff" fill-opacity="1"><g transform="translate(315.013681, 312.880832)"><g><path d="M 8.546875 -9.890625 C 6.023438 -6.753906 3.273438 -4.976562 0.296875 -4.5625 C -2.671875 -4.144531 -5.910156 -5.347656 -9.421875 -8.171875 C -16.109375 -13.554688 -16.832031 -19.5 -11.59375 -26 C -10.3125 -27.582031 -8.9375 -28.894531 -7.46875 -29.9375 C -6 -30.988281 -4.765625 -31.660156 -3.765625 -31.953125 L 2.46875 -26.9375 L -2.34375 -20.953125 L -4.140625 -22.40625 C -4.773438 -22.914062 -5.351562 -23.144531 -5.875 -23.09375 C -6.394531 -23.050781 -6.882812 -22.75 -7.34375 -22.1875 C -7.800781 -21.613281 -7.992188 -21.066406 -7.921875 -20.546875 C -7.859375 -20.035156 -7.507812 -19.523438 -6.875 -19.015625 L 0.65625 -12.9375 C 1.28125 -12.4375 1.851562 -12.207031 2.375 -12.25 C 2.90625 -12.289062 3.398438 -12.597656 3.859375 -13.171875 C 4.316406 -13.734375 4.507812 -14.273438 4.4375 -14.796875 C 4.363281 -15.316406 4.015625 -15.828125 3.390625 -16.328125 L 1.359375 -17.96875 L 6.171875 -23.953125 L 12.625 -18.75 C 12.550781 -17.695312 12.164062 -16.347656 11.46875 -14.703125 C 10.78125 -13.054688 9.804688 -11.453125 8.546875 -9.890625 Z M 8.546875 -9.890625 "/></g></g></g><g fill="#ffffff" fill-opacity="1"><g transform="translate(332.780395, 289.889488)"><g><path d="M 5.765625 -11.296875 C 4.117188 -7.753906 1.914062 -5.457031 -0.84375 -4.40625 C -3.601562 -3.351562 -7.019531 -3.78125 -11.09375 -5.6875 C -15.164062 -7.582031 -17.675781 -9.925781 -18.625 -12.71875 C -19.582031 -15.507812 -19.238281 -18.675781 -17.59375 -22.21875 C -15.9375 -25.75 -13.726562 -28.039062 -10.96875 -29.09375 C -8.21875 -30.144531 -4.804688 -29.722656 -0.734375 -27.828125 C 3.335938 -25.921875 5.851562 -23.570312 6.8125 -20.78125 C 7.769531 -17.988281 7.421875 -14.828125 5.765625 -11.296875 Z M 0.609375 -13.703125 C 0.921875 -14.359375 0.976562 -14.929688 0.78125 -15.421875 C 0.582031 -15.921875 0.117188 -16.335938 -0.609375 -16.671875 L -9.375 -20.765625 C -10.113281 -21.109375 -10.726562 -21.195312 -11.21875 -21.03125 C -11.71875 -20.863281 -12.125 -20.453125 -12.4375 -19.796875 C -12.738281 -19.128906 -12.789062 -18.550781 -12.59375 -18.0625 C -12.40625 -17.582031 -11.941406 -17.171875 -11.203125 -16.828125 L -2.4375 -12.734375 C -1.695312 -12.390625 -1.078125 -12.296875 -0.578125 -12.453125 C -0.0859375 -12.617188 0.304688 -13.035156 0.609375 -13.703125 Z M 0.609375 -13.703125 "/></g></g></g><g fill="#ffffff" fill-opacity="1"><g transform="translate(344.594175, 261.750364)"><g><path d="M 0.328125 -1.234375 L -4.734375 -2.59375 L -3.4375 -7.40625 L 1.625 -6.046875 Z M 0.328125 -1.234375 "/></g></g></g><g clip-path="url(#bbe8854e76)"><g clip-path="url(#cc351f3fcd)"><path fill="#ede7e7" d="M 135 135.160156 L 315.671875 135.160156 L 315.671875 315.828125 L 135 315.828125 Z M 135 135.160156 " fill-opacity="1" fill-rule="nonzero"/></g></g><g clip-path="url(#0c50e31626)"><g clip-path="url(#687f25cce6)"><path stroke-linecap="butt" transform="matrix(0.75034, 0, 0, 0.75034, 134.999494, 135.158625)" fill="none" stroke-linejoin="miter" d="M 120.446008 0.00204077 C 53.924117 0.00204077 0.00067402 53.925483 0.00067402 120.447375 C 0.00067402 186.96406 53.924117 240.892708 120.446008 240.892708 C 186.967899 240.892708 240.891342 186.96406 240.891342 120.447375 C 240.891342 53.925483 186.967899 0.00204077 120.446008 0.00204077 " stroke="#fd810a" stroke-width="14" stroke-opacity="1" stroke-miterlimit="4"/></g></g><path fill="#0093b9" d="M 283.953125 222.398438 L 271.828125 193.175781 C 267.722656 189.078125 265.648438 187.011719 261.542969 182.910156 L 262.546875 163.238281 L 245.492188 156.1875 L 232.269531 170.808594 L 217.722656 170.808594 L 204.5 156.1875 L 187.445312 163.238281 L 188.449219 182.910156 L 178.164062 193.175781 L 166.039062 222.398438 L 166.039062 236.914062 L 151.390625 250.113281 L 158.457031 267.136719 L 178.164062 266.132812 L 188.449219 276.398438 L 187.445312 296.070312 L 204.5 303.125 L 217.722656 288.503906 L 232.269531 288.503906 L 245.492188 303.125 L 262.546875 296.070312 L 261.542969 276.398438 C 265.648438 272.300781 267.71875 270.230469 271.824219 266.132812 L 291.535156 267.140625 L 298.601562 250.113281 L 283.953125 236.914062 Z M 224.996094 265.027344 C 223.835938 265.027344 222.675781 264.972656 221.523438 264.859375 C 220.367188 264.746094 219.21875 264.574219 218.082031 264.347656 C 216.945312 264.125 215.820312 263.84375 214.707031 263.507812 C 213.597656 263.167969 212.507812 262.78125 211.433594 262.335938 C 210.363281 261.894531 209.3125 261.398438 208.289062 260.851562 C 207.265625 260.304688 206.273438 259.710938 205.308594 259.066406 C 204.34375 258.425781 203.410156 257.734375 202.511719 257 C 201.617188 256.265625 200.757812 255.488281 199.9375 254.667969 C 199.117188 253.847656 198.335938 252.992188 197.601562 252.097656 C 196.863281 251.199219 196.175781 250.273438 195.53125 249.308594 C 194.882812 248.34375 194.289062 247.351562 193.742188 246.332031 C 193.195312 245.308594 192.699219 244.261719 192.253906 243.191406 C 191.808594 242.121094 191.417969 241.03125 191.082031 239.925781 C 190.746094 238.816406 190.464844 237.691406 190.238281 236.558594 C 190.011719 235.421875 189.839844 234.277344 189.726562 233.125 C 189.613281 231.96875 189.558594 230.8125 189.558594 229.65625 C 189.558594 228.496094 189.613281 227.339844 189.726562 226.1875 C 189.839844 225.035156 190.011719 223.890625 190.238281 222.753906 C 190.464844 221.617188 190.746094 220.496094 191.082031 219.386719 C 191.417969 218.277344 191.808594 217.1875 192.253906 216.117188 C 192.699219 215.046875 193.195312 214.003906 193.742188 212.980469 C 194.289062 211.960938 194.882812 210.964844 195.53125 210.003906 C 196.175781 209.039062 196.863281 208.109375 197.601562 207.214844 C 198.335938 206.320312 199.117188 205.460938 199.9375 204.644531 C 200.757812 203.824219 201.617188 203.046875 202.511719 202.3125 C 203.410156 201.578125 204.34375 200.886719 205.308594 200.242188 C 206.273438 199.601562 207.265625 199.003906 208.289062 198.460938 C 209.3125 197.914062 210.363281 197.417969 211.433594 196.976562 C 212.507812 196.53125 213.597656 196.140625 214.707031 195.804688 C 215.820312 195.46875 216.945312 195.1875 218.082031 194.960938 C 219.21875 194.734375 220.367188 194.566406 221.523438 194.453125 C 222.675781 194.339844 223.835938 194.28125 224.996094 194.28125 C 226.15625 194.28125 227.316406 194.339844 228.46875 194.453125 C 229.625 194.566406 230.773438 194.734375 231.910156 194.960938 C 233.046875 195.1875 234.171875 195.46875 235.285156 195.804688 C 236.394531 196.140625 237.484375 196.53125 238.558594 196.976562 C 239.628906 197.417969 240.679688 197.914062 241.703125 198.460938 C 242.726562 199.003906 243.71875 199.601562 244.683594 200.242188 C 245.648438 200.886719 246.582031 201.578125 247.476562 202.3125 C 248.375 203.046875 249.234375 203.824219 250.054688 204.644531 C 250.875 205.460938 251.65625 206.320312 252.390625 207.214844 C 253.128906 208.109375 253.816406 209.039062 254.460938 210.003906 C 255.109375 210.964844 255.703125 211.960938 256.25 212.980469 C 256.796875 214.003906 257.292969 215.046875 257.738281 216.117188 C 258.183594 217.1875 258.574219 218.277344 258.910156 219.386719 C 259.246094 220.496094 259.527344 221.617188 259.753906 222.753906 C 259.980469 223.890625 260.152344 225.035156 260.265625 226.1875 C 260.378906 227.339844 260.433594 228.496094 260.433594 229.65625 C 260.433594 230.8125 260.378906 231.96875 260.265625 233.125 C 260.152344 234.277344 259.980469 235.421875 259.753906 236.558594 C 259.527344 237.691406 259.246094 238.816406 258.910156 239.925781 C 258.574219 241.03125 258.183594 242.121094 257.738281 243.191406 C 257.292969 244.261719 256.796875 245.308594 256.25 246.332031 C 255.703125 247.351562 255.109375 248.34375 254.460938 249.308594 C 253.816406 250.273438 253.128906 251.199219 252.390625 252.097656 C 251.65625 252.992188 250.875 253.847656 250.054688 254.667969 C 249.234375 255.488281 248.375 256.265625 247.480469 257 C 246.582031 257.734375 245.648438 258.425781 244.683594 259.066406 C 243.71875 259.710938 242.726562 260.304688 241.703125 260.851562 C 240.679688 261.398438 239.628906 261.894531 238.558594 262.335938 C 237.484375 262.78125 236.394531 263.167969 235.285156 263.507812 C 234.171875 263.84375 233.046875 264.125 231.910156 264.347656 C 230.773438 264.574219 229.625 264.746094 228.46875 264.859375 C 227.316406 264.972656 226.15625 265.027344 224.996094 265.027344 Z M 224.996094 265.027344 " fill-opacity="1" fill-rule="nonzero"/><path fill="#fd810a" d="M 232.910156 151.417969 C 237.871094 151.976562 242.714844 153.070312 247.433594 154.695312 L 260.433594 160.785156 C 262.921875 162.289062 265.300781 163.949219 267.574219 165.757812 C 269.847656 167.566406 271.996094 169.511719 274.019531 171.597656 C 276.042969 173.683594 277.925781 175.886719 279.664062 178.214844 C 281.402344 180.539062 282.984375 182.96875 284.410156 185.496094 C 285.839844 188.023438 287.097656 190.632812 288.1875 193.324219 C 289.277344 196.015625 290.191406 198.765625 290.929688 201.570312 C 291.667969 204.378906 292.222656 207.222656 292.59375 210.101562 C 292.964844 212.980469 293.148438 215.871094 293.148438 218.773438 L 293.148438 224.214844 L 156.84375 224.214844 L 156.84375 218.773438 C 156.84375 215.871094 157.027344 212.980469 157.398438 210.101562 C 157.769531 207.222656 158.324219 204.378906 159.0625 201.570312 C 159.796875 198.765625 160.710938 196.015625 161.804688 193.324219 C 162.894531 190.632812 164.152344 188.023438 165.578125 185.496094 C 167.007812 182.96875 168.589844 180.539062 170.328125 178.214844 C 172.066406 175.886719 173.949219 173.683594 175.972656 171.597656 C 177.996094 169.511719 180.144531 167.566406 182.417969 165.757812 C 184.691406 163.949219 187.070312 162.289062 189.558594 160.785156 L 202.558594 154.695312 C 207.277344 153.070312 212.117188 151.976562 217.082031 151.417969 Z M 232.910156 151.417969 " fill-opacity="1" fill-rule="nonzero"/><path fill="#f6cc12" d="M 152.753906 218.773438 L 297.238281 218.773438 C 297.683594 218.773438 298.128906 218.816406 298.566406 218.902344 C 299.007812 218.988281 299.433594 219.117188 299.847656 219.289062 C 300.257812 219.460938 300.652344 219.671875 301.023438 219.917969 C 301.394531 220.167969 301.742188 220.449219 302.058594 220.765625 C 302.375 221.078125 302.65625 221.421875 302.90625 221.796875 C 303.152344 222.167969 303.363281 222.558594 303.535156 222.972656 C 303.707031 223.382812 303.835938 223.808594 303.921875 224.246094 C 304.007812 224.683594 304.054688 225.128906 304.054688 225.574219 C 304.054688 226.019531 304.007812 226.464844 303.921875 226.902344 C 303.835938 227.339844 303.707031 227.765625 303.535156 228.175781 C 303.363281 228.589844 303.152344 228.980469 302.90625 229.355469 C 302.65625 229.726562 302.375 230.070312 302.058594 230.382812 C 301.742188 230.699219 301.394531 230.980469 301.023438 231.230469 C 300.652344 231.480469 300.257812 231.6875 299.847656 231.859375 C 299.433594 232.03125 299.007812 232.160156 298.566406 232.246094 C 298.128906 232.332031 297.683594 232.375 297.238281 232.375 L 152.753906 232.375 C 152.308594 232.375 151.863281 232.332031 151.425781 232.246094 C 150.984375 232.160156 150.558594 232.03125 150.144531 231.859375 C 149.734375 231.6875 149.339844 231.480469 148.96875 231.230469 C 148.597656 230.980469 148.25 230.699219 147.933594 230.382812 C 147.617188 230.070312 147.335938 229.726562 147.085938 229.355469 C 146.839844 228.980469 146.628906 228.589844 146.457031 228.175781 C 146.285156 227.765625 146.15625 227.339844 146.070312 226.902344 C 145.984375 226.464844 145.9375 226.019531 145.9375 225.574219 C 145.9375 225.128906 145.984375 224.683594 146.070312 224.246094 C 146.15625 223.808594 146.285156 223.382812 146.457031 222.972656 C 146.628906 222.558594 146.839844 222.167969 147.085938 221.796875 C 147.335938 221.421875 147.617188 221.078125 147.933594 220.765625 C 148.25 220.449219 148.597656 220.167969 148.96875 219.917969 C 149.339844 219.671875 149.734375 219.460938 150.144531 219.289062 C 150.558594 219.117188 150.984375 218.988281 151.425781 218.902344 C 151.863281 218.816406 152.308594 218.773438 152.753906 218.773438 Z M 152.753906 218.773438 " fill-opacity="1" fill-rule="nonzero"/><path fill="#f6cc12" d="M 224.996094 145.304688 C 225.53125 145.304688 226.066406 145.355469 226.589844 145.460938 C 227.117188 145.566406 227.628906 145.71875 228.125 145.925781 C 228.621094 146.128906 229.09375 146.382812 229.539062 146.679688 C 229.984375 146.976562 230.398438 147.316406 230.777344 147.695312 C 231.160156 148.074219 231.496094 148.484375 231.796875 148.933594 C 232.09375 149.378906 232.347656 149.847656 232.550781 150.34375 C 232.757812 150.839844 232.914062 151.347656 233.015625 151.875 C 233.121094 152.398438 233.175781 152.929688 233.175781 153.46875 L 233.175781 197.003906 C 233.175781 197.539062 233.121094 198.070312 233.015625 198.597656 C 232.914062 199.121094 232.757812 199.632812 232.550781 200.128906 C 232.347656 200.621094 232.09375 201.09375 231.796875 201.539062 C 231.496094 201.984375 231.160156 202.398438 230.777344 202.777344 C 230.398438 203.15625 229.984375 203.492188 229.539062 203.789062 C 229.09375 204.089844 228.621094 204.339844 228.125 204.546875 C 227.628906 204.75 227.117188 204.90625 226.589844 205.007812 C 226.066406 205.113281 225.53125 205.167969 224.996094 205.167969 C 224.460938 205.167969 223.925781 205.113281 223.402344 205.007812 C 222.875 204.90625 222.363281 204.75 221.867188 204.546875 C 221.371094 204.339844 220.898438 204.089844 220.453125 203.789062 C 220.007812 203.492188 219.59375 203.15625 219.214844 202.777344 C 218.832031 202.398438 218.496094 201.984375 218.195312 201.539062 C 217.898438 201.09375 217.644531 200.621094 217.441406 200.128906 C 217.234375 199.632812 217.078125 199.121094 216.976562 198.597656 C 216.871094 198.070312 216.816406 197.539062 216.816406 197.003906 L 216.816406 153.46875 C 216.816406 152.929688 216.871094 152.398438 216.976562 151.875 C 217.078125 151.347656 217.234375 150.839844 217.441406 150.34375 C 217.644531 149.847656 217.898438 149.378906 218.195312 148.933594 C 218.496094 148.484375 218.832031 148.074219 219.214844 147.695312 C 219.59375 147.316406 220.007812 146.976562 220.453125 146.679688 C 220.898438 146.382812 221.371094 146.128906 221.867188 145.925781 C 222.363281 145.71875 222.875 145.566406 223.402344 145.460938 C 223.925781 145.355469 224.460938 145.304688 224.996094 145.304688 Z M 224.996094 145.304688 " fill-opacity="1" fill-rule="nonzero"/><path fill="#f6cc12" d="M 253.621094 150.746094 C 254.066406 150.746094 254.511719 150.789062 254.949219 150.875 C 255.386719 150.964844 255.816406 151.09375 256.226562 151.265625 C 256.640625 151.433594 257.035156 151.644531 257.40625 151.890625 C 257.777344 152.140625 258.121094 152.421875 258.4375 152.738281 C 258.753906 153.054688 259.039062 153.398438 259.285156 153.769531 C 259.535156 154.140625 259.746094 154.53125 259.917969 154.945312 C 260.085938 155.359375 260.21875 155.785156 260.304688 156.222656 C 260.390625 156.660156 260.433594 157.101562 260.433594 157.546875 L 260.433594 198.363281 C 260.433594 198.8125 260.390625 199.253906 260.304688 199.691406 C 260.21875 200.128906 260.085938 200.554688 259.917969 200.96875 C 259.746094 201.378906 259.535156 201.773438 259.285156 202.144531 C 259.039062 202.515625 258.753906 202.859375 258.4375 203.175781 C 258.121094 203.488281 257.777344 203.773438 257.40625 204.019531 C 257.035156 204.269531 256.640625 204.476562 256.226562 204.648438 C 255.816406 204.820312 255.386719 204.949219 254.949219 205.035156 C 254.511719 205.121094 254.066406 205.167969 253.621094 205.167969 C 253.171875 205.167969 252.730469 205.121094 252.289062 205.035156 C 251.851562 204.949219 251.425781 204.820312 251.011719 204.648438 C 250.597656 204.476562 250.207031 204.269531 249.832031 204.019531 C 249.460938 203.773438 249.117188 203.488281 248.800781 203.175781 C 248.484375 202.859375 248.203125 202.515625 247.953125 202.144531 C 247.703125 201.773438 247.496094 201.378906 247.324219 200.96875 C 247.152344 200.554688 247.023438 200.128906 246.9375 199.691406 C 246.847656 199.253906 246.804688 198.8125 246.804688 198.363281 L 246.804688 157.546875 C 246.804688 157.101562 246.847656 156.660156 246.9375 156.222656 C 247.023438 155.785156 247.152344 155.359375 247.324219 154.945312 C 247.496094 154.53125 247.703125 154.140625 247.953125 153.769531 C 248.203125 153.398438 248.484375 153.054688 248.800781 152.738281 C 249.117188 152.421875 249.460938 152.140625 249.832031 151.890625 C 250.207031 151.644531 250.597656 151.433594 251.011719 151.265625 C 251.425781 151.09375 251.851562 150.964844 252.289062 150.875 C 252.730469 150.789062 253.171875 150.746094 253.621094 150.746094 Z M 253.621094 150.746094 " fill-opacity="1" fill-rule="nonzero"/><path fill="#f6cc12" d="M 196.371094 205.167969 C 195.925781 205.167969 195.480469 205.121094 195.042969 205.035156 C 194.601562 204.949219 194.175781 204.820312 193.765625 204.648438 C 193.351562 204.476562 192.957031 204.269531 192.585938 204.019531 C 192.214844 203.773438 191.871094 203.488281 191.554688 203.175781 C 191.238281 202.859375 190.953125 202.515625 190.707031 202.144531 C 190.457031 201.773438 190.246094 201.378906 190.074219 200.96875 C 189.902344 200.554688 189.773438 200.128906 189.6875 199.691406 C 189.601562 199.253906 189.558594 198.8125 189.558594 198.363281 L 189.558594 157.546875 C 189.558594 157.101562 189.601562 156.660156 189.6875 156.222656 C 189.773438 155.785156 189.902344 155.359375 190.074219 154.945312 C 190.246094 154.53125 190.457031 154.140625 190.707031 153.769531 C 190.953125 153.398438 191.238281 153.054688 191.554688 152.738281 C 191.871094 152.421875 192.214844 152.140625 192.585938 151.890625 C 192.957031 151.644531 193.351562 151.433594 193.765625 151.265625 C 194.175781 151.09375 194.601562 150.964844 195.042969 150.875 C 195.480469 150.789062 195.925781 150.746094 196.371094 150.746094 C 196.820312 150.746094 197.261719 150.789062 197.703125 150.875 C 198.140625 150.964844 198.566406 151.09375 198.980469 151.265625 C 199.394531 151.433594 199.785156 151.644531 200.160156 151.890625 C 200.53125 152.140625 200.875 152.421875 201.191406 152.738281 C 201.507812 153.054688 201.789062 153.398438 202.039062 153.769531 C 202.289062 154.140625 202.496094 154.53125 202.667969 154.945312 C 202.839844 155.359375 202.96875 155.785156 203.054688 156.222656 C 203.144531 156.660156 203.1875 157.101562 203.1875 157.546875 L 203.1875 198.363281 C 203.1875 198.8125 203.144531 199.253906 203.054688 199.691406 C 202.96875 200.128906 202.839844 200.554688 202.667969 200.96875 C 202.496094 201.378906 202.289062 201.773438 202.039062 202.144531 C 201.789062 202.515625 201.507812 202.859375 201.191406 203.175781 C 200.875 203.488281 200.53125 203.773438 200.160156 204.019531 C 199.785156 204.269531 199.394531 204.476562 198.980469 204.648438 C 198.566406 204.820312 198.140625 204.949219 197.703125 205.035156 C 197.261719 205.121094 196.820312 205.167969 196.371094 205.167969 Z M 196.371094 205.167969 " fill-opacity="1" fill-rule="nonzero"/><g clip-path="url(#ec25d7eb39)"><path fill="#000000" d="M 297.238281 216.050781 L 295.816406 216.050781 C 295.707031 213.210938 295.429688 210.390625 294.980469 207.585938 C 294.53125 204.78125 293.914062 202.015625 293.128906 199.285156 C 292.34375 196.554688 291.394531 193.882812 290.285156 191.269531 C 289.175781 188.652344 287.914062 186.113281 286.496094 183.652344 C 285.082031 181.1875 283.519531 178.820312 281.816406 176.542969 C 280.113281 174.269531 278.277344 172.105469 276.3125 170.054688 C 274.34375 168 272.261719 166.074219 270.0625 164.269531 C 267.863281 162.46875 265.5625 160.808594 263.160156 159.285156 L 263.160156 157.546875 C 263.160156 156.570312 263.015625 155.613281 262.71875 154.679688 C 262.425781 153.746094 261.996094 152.878906 261.433594 152.078125 C 260.867188 151.277344 260.199219 150.578125 259.417969 149.984375 C 258.640625 149.390625 257.789062 148.925781 256.867188 148.59375 C 255.945312 148.261719 254.992188 148.074219 254.015625 148.035156 C 253.035156 147.992188 252.070312 148.101562 251.125 148.359375 C 250.179688 148.613281 249.292969 149.007812 248.46875 149.539062 C 247.644531 150.066406 246.917969 150.707031 246.289062 151.460938 C 242.566406 150.304688 238.769531 149.460938 234.902344 148.929688 C 234.46875 147.984375 233.910156 147.117188 233.226562 146.328125 C 232.542969 145.542969 231.761719 144.867188 230.882812 144.304688 C 230.003906 143.742188 229.0625 143.316406 228.0625 143.023438 C 227.0625 142.730469 226.039062 142.582031 224.996094 142.582031 C 223.953125 142.582031 222.929688 142.730469 221.929688 143.023438 C 220.925781 143.316406 219.988281 143.742188 219.109375 144.304688 C 218.230469 144.867188 217.449219 145.542969 216.765625 146.328125 C 216.082031 147.117188 215.523438 147.984375 215.089844 148.929688 C 211.222656 149.460938 207.425781 150.304688 203.703125 151.460938 C 203.074219 150.707031 202.347656 150.066406 201.523438 149.539062 C 200.699219 149.007812 199.8125 148.613281 198.867188 148.359375 C 197.921875 148.101562 196.957031 147.992188 195.976562 148.035156 C 195 148.074219 194.046875 148.261719 193.125 148.59375 C 192.203125 148.925781 191.351562 149.390625 190.574219 149.984375 C 189.792969 150.578125 189.125 151.277344 188.558594 152.078125 C 187.996094 152.878906 187.566406 153.746094 187.273438 154.679688 C 186.976562 155.613281 186.832031 156.570312 186.832031 157.546875 L 186.832031 159.285156 C 184.429688 160.808594 182.128906 162.46875 179.929688 164.269531 C 177.730469 166.074219 175.648438 168 173.679688 170.054688 C 171.714844 172.105469 169.878906 174.269531 168.175781 176.542969 C 166.472656 178.820312 164.910156 181.1875 163.496094 183.652344 C 162.078125 186.113281 160.816406 188.652344 159.707031 191.269531 C 158.597656 193.882812 157.648438 196.554688 156.863281 199.285156 C 156.078125 202.015625 155.460938 204.78125 155.011719 207.585938 C 154.5625 210.390625 154.285156 213.210938 154.175781 216.050781 L 152.753906 216.050781 C 152.128906 216.050781 151.507812 216.113281 150.894531 216.234375 C 150.277344 216.355469 149.683594 216.535156 149.101562 216.777344 C 148.523438 217.015625 147.972656 217.308594 147.453125 217.65625 C 146.933594 218.003906 146.449219 218.398438 146.007812 218.839844 C 145.566406 219.28125 145.167969 219.761719 144.820312 220.285156 C 144.472656 220.804688 144.179688 221.351562 143.9375 221.929688 C 143.699219 222.507812 143.519531 223.101562 143.394531 223.714844 C 143.273438 224.328125 143.214844 224.949219 143.214844 225.574219 C 143.214844 226.199219 143.273438 226.820312 143.394531 227.433594 C 143.519531 228.046875 143.699219 228.640625 143.9375 229.21875 C 144.179688 229.796875 144.472656 230.34375 144.820312 230.867188 C 145.167969 231.386719 145.566406 231.867188 146.007812 232.308594 C 146.449219 232.75 146.933594 233.144531 147.453125 233.492188 C 147.972656 233.839844 148.523438 234.132812 149.101562 234.371094 C 149.683594 234.613281 150.277344 234.792969 150.894531 234.914062 C 151.507812 235.035156 152.128906 235.097656 152.753906 235.097656 L 297.238281 235.097656 C 297.863281 235.097656 298.484375 235.035156 299.097656 234.914062 C 299.714844 234.792969 300.308594 234.613281 300.890625 234.371094 C 301.46875 234.132812 302.019531 233.839844 302.539062 233.492188 C 303.058594 233.144531 303.542969 232.75 303.984375 232.308594 C 304.425781 231.867188 304.824219 231.386719 305.171875 230.867188 C 305.519531 230.34375 305.8125 229.796875 306.054688 229.21875 C 306.292969 228.640625 306.472656 228.046875 306.597656 227.433594 C 306.71875 226.820312 306.777344 226.199219 306.777344 225.574219 C 306.777344 224.949219 306.71875 224.328125 306.597656 223.714844 C 306.472656 223.101562 306.292969 222.507812 306.054688 221.929688 C 305.8125 221.351562 305.519531 220.804688 305.171875 220.285156 C 304.824219 219.761719 304.425781 219.28125 303.984375 218.839844 C 303.542969 218.398438 303.058594 218.003906 302.539062 217.65625 C 302.019531 217.308594 301.46875 217.015625 300.890625 216.777344 C 300.308594 216.535156 299.714844 216.355469 299.097656 216.234375 C 298.484375 216.113281 297.863281 216.050781 297.238281 216.050781 Z M 249.53125 157.546875 C 249.53125 157.28125 249.558594 157.015625 249.609375 156.753906 C 249.660156 156.488281 249.738281 156.234375 249.84375 155.988281 C 249.945312 155.738281 250.070312 155.503906 250.21875 155.28125 C 250.371094 155.058594 250.539062 154.851562 250.730469 154.664062 C 250.917969 154.472656 251.125 154.304688 251.347656 154.15625 C 251.570312 154.007812 251.808594 153.878906 252.054688 153.777344 C 252.304688 153.675781 252.558594 153.597656 252.824219 153.546875 C 253.085938 153.492188 253.351562 153.46875 253.621094 153.46875 C 253.886719 153.46875 254.15625 153.492188 254.417969 153.546875 C 254.679688 153.597656 254.9375 153.675781 255.183594 153.777344 C 255.433594 153.878906 255.667969 154.007812 255.890625 154.15625 C 256.113281 154.304688 256.320312 154.472656 256.511719 154.664062 C 256.703125 154.851562 256.871094 155.058594 257.019531 155.28125 C 257.167969 155.503906 257.296875 155.738281 257.398438 155.988281 C 257.5 156.234375 257.578125 156.488281 257.628906 156.753906 C 257.683594 157.015625 257.710938 157.28125 257.710938 157.546875 L 257.710938 198.363281 C 257.710938 198.632812 257.683594 198.898438 257.628906 199.160156 C 257.578125 199.421875 257.5 199.679688 257.398438 199.925781 C 257.296875 200.171875 257.167969 200.410156 257.019531 200.632812 C 256.871094 200.855469 256.703125 201.0625 256.511719 201.25 C 256.320312 201.441406 256.113281 201.609375 255.890625 201.757812 C 255.667969 201.90625 255.433594 202.03125 255.183594 202.136719 C 254.9375 202.238281 254.679688 202.316406 254.417969 202.367188 C 254.15625 202.417969 253.886719 202.445312 253.621094 202.445312 C 253.351562 202.445312 253.085938 202.417969 252.824219 202.367188 C 252.558594 202.316406 252.304688 202.238281 252.054688 202.136719 C 251.808594 202.03125 251.570312 201.90625 251.347656 201.757812 C 251.125 201.609375 250.917969 201.441406 250.730469 201.25 C 250.539062 201.0625 250.371094 200.855469 250.21875 200.632812 C 250.070312 200.410156 249.945312 200.171875 249.84375 199.925781 C 249.738281 199.679688 249.660156 199.421875 249.609375 199.160156 C 249.558594 198.898438 249.53125 198.632812 249.53125 198.363281 Z M 219.542969 153.46875 C 219.542969 153.109375 219.578125 152.753906 219.648438 152.40625 C 219.71875 152.054688 219.820312 151.714844 219.957031 151.382812 C 220.097656 151.054688 220.265625 150.742188 220.460938 150.445312 C 220.660156 150.144531 220.886719 149.871094 221.140625 149.617188 C 221.394531 149.367188 221.667969 149.140625 221.96875 148.941406 C 222.265625 148.742188 222.578125 148.574219 222.910156 148.4375 C 223.242188 148.300781 223.582031 148.199219 223.933594 148.128906 C 224.285156 148.058594 224.636719 148.023438 224.996094 148.023438 C 225.355469 148.023438 225.707031 148.058594 226.058594 148.128906 C 226.410156 148.199219 226.75 148.300781 227.082031 148.4375 C 227.414062 148.574219 227.726562 148.742188 228.023438 148.941406 C 228.324219 149.140625 228.597656 149.367188 228.851562 149.617188 C 229.105469 149.871094 229.332031 150.144531 229.53125 150.445312 C 229.726562 150.742188 229.894531 151.054688 230.03125 151.382812 C 230.171875 151.714844 230.273438 152.054688 230.34375 152.40625 C 230.414062 152.753906 230.449219 153.109375 230.449219 153.46875 L 230.449219 197.003906 C 230.449219 197.359375 230.414062 197.714844 230.34375 198.066406 C 230.273438 198.414062 230.171875 198.757812 230.035156 199.085938 C 229.894531 199.417969 229.726562 199.730469 229.53125 200.027344 C 229.332031 200.324219 229.105469 200.597656 228.851562 200.851562 C 228.597656 201.105469 228.324219 201.328125 228.023438 201.527344 C 227.726562 201.726562 227.414062 201.894531 227.082031 202.03125 C 226.75 202.167969 226.410156 202.269531 226.058594 202.339844 C 225.707031 202.410156 225.355469 202.445312 224.996094 202.445312 C 224.636719 202.445312 224.285156 202.410156 223.933594 202.339844 C 223.582031 202.269531 223.242188 202.167969 222.910156 202.03125 C 222.578125 201.894531 222.265625 201.726562 221.96875 201.527344 C 221.667969 201.328125 221.394531 201.105469 221.140625 200.851562 C 220.886719 200.597656 220.660156 200.324219 220.460938 200.027344 C 220.265625 199.730469 220.097656 199.417969 219.957031 199.085938 C 219.820312 198.757812 219.71875 198.414062 219.648438 198.066406 C 219.578125 197.714844 219.542969 197.359375 219.542969 197.003906 Z M 192.28125 157.546875 C 192.28125 157.28125 192.308594 157.015625 192.363281 156.753906 C 192.414062 156.488281 192.492188 156.234375 192.59375 155.988281 C 192.695312 155.738281 192.824219 155.503906 192.972656 155.28125 C 193.121094 155.058594 193.289062 154.851562 193.480469 154.664062 C 193.671875 154.472656 193.875 154.304688 194.101562 154.15625 C 194.324219 154.007812 194.558594 153.878906 194.808594 153.777344 C 195.054688 153.675781 195.3125 153.597656 195.574219 153.546875 C 195.835938 153.492188 196.101562 153.46875 196.371094 153.46875 C 196.640625 153.46875 196.90625 153.492188 197.167969 153.546875 C 197.433594 153.597656 197.6875 153.675781 197.9375 153.777344 C 198.183594 153.878906 198.421875 154.007812 198.644531 154.15625 C 198.867188 154.304688 199.074219 154.472656 199.261719 154.664062 C 199.453125 154.851562 199.621094 155.058594 199.773438 155.28125 C 199.921875 155.503906 200.046875 155.738281 200.148438 155.988281 C 200.253906 156.234375 200.332031 156.488281 200.382812 156.753906 C 200.433594 157.015625 200.460938 157.28125 200.460938 157.546875 L 200.460938 198.363281 C 200.460938 198.632812 200.433594 198.898438 200.382812 199.160156 C 200.332031 199.421875 200.253906 199.679688 200.148438 199.925781 C 200.046875 200.171875 199.921875 200.410156 199.773438 200.632812 C 199.621094 200.855469 199.453125 201.0625 199.261719 201.25 C 199.074219 201.441406 198.867188 201.609375 198.644531 201.757812 C 198.421875 201.90625 198.183594 202.03125 197.9375 202.136719 C 197.6875 202.238281 197.433594 202.316406 197.167969 202.367188 C 196.90625 202.417969 196.640625 202.445312 196.371094 202.445312 C 196.101562 202.445312 195.835938 202.417969 195.574219 202.367188 C 195.3125 202.316406 195.054688 202.238281 194.808594 202.136719 C 194.558594 202.03125 194.324219 201.90625 194.101562 201.757812 C 193.875 201.609375 193.671875 201.441406 193.480469 201.25 C 193.289062 201.0625 193.121094 200.855469 192.972656 200.632812 C 192.824219 200.410156 192.695312 200.171875 192.59375 199.925781 C 192.492188 199.679688 192.414062 199.421875 192.363281 199.160156 C 192.308594 198.898438 192.28125 198.632812 192.28125 198.363281 Z M 168.175781 186.441406 C 170.511719 182.386719 173.253906 178.621094 176.398438 175.148438 C 179.542969 171.679688 183.019531 168.578125 186.832031 165.851562 L 186.832031 198.363281 C 186.832031 198.988281 186.890625 199.609375 187.015625 200.222656 C 187.136719 200.835938 187.316406 201.429688 187.558594 202.007812 C 187.796875 202.585938 188.089844 203.136719 188.4375 203.65625 C 188.785156 204.175781 189.183594 204.65625 189.625 205.097656 C 190.066406 205.539062 190.550781 205.933594 191.070312 206.28125 C 191.59375 206.628906 192.140625 206.921875 192.71875 207.164062 C 193.300781 207.402344 193.894531 207.582031 194.511719 207.703125 C 195.125 207.828125 195.746094 207.886719 196.371094 207.886719 C 197 207.886719 197.617188 207.828125 198.234375 207.703125 C 198.847656 207.582031 199.445312 207.402344 200.023438 207.164062 C 200.601562 206.921875 201.152344 206.628906 201.671875 206.28125 C 202.195312 205.933594 202.675781 205.539062 203.117188 205.097656 C 203.5625 204.65625 203.957031 204.175781 204.304688 203.65625 C 204.652344 203.136719 204.949219 202.585938 205.1875 202.007812 C 205.425781 201.429688 205.609375 200.835938 205.730469 200.222656 C 205.851562 199.609375 205.914062 198.988281 205.914062 198.363281 L 205.914062 157.546875 C 205.914062 157.195312 205.894531 156.847656 205.855469 156.496094 C 208.558594 155.679688 211.304688 155.042969 214.089844 154.582031 L 214.089844 197.003906 C 214.089844 197.71875 214.160156 198.425781 214.300781 199.125 C 214.441406 199.828125 214.648438 200.507812 214.921875 201.167969 C 215.195312 201.828125 215.53125 202.457031 215.929688 203.050781 C 216.328125 203.644531 216.777344 204.195312 217.285156 204.699219 C 217.792969 205.207031 218.34375 205.65625 218.9375 206.054688 C 219.53125 206.449219 220.160156 206.785156 220.824219 207.058594 C 221.484375 207.332031 222.167969 207.539062 222.867188 207.679688 C 223.570312 207.816406 224.28125 207.886719 224.996094 207.886719 C 225.710938 207.886719 226.421875 207.816406 227.125 207.679688 C 227.824219 207.539062 228.507812 207.332031 229.167969 207.058594 C 229.832031 206.785156 230.457031 206.449219 231.054688 206.054688 C 231.648438 205.65625 232.199219 205.207031 232.707031 204.699219 C 233.214844 204.195312 233.664062 203.644531 234.0625 203.050781 C 234.460938 202.457031 234.796875 201.828125 235.070312 201.167969 C 235.34375 200.507812 235.550781 199.828125 235.691406 199.125 C 235.832031 198.425781 235.902344 197.71875 235.902344 197.003906 L 235.902344 154.582031 C 238.6875 155.042969 241.433594 155.679688 244.136719 156.496094 C 244.097656 156.847656 244.078125 157.195312 244.078125 157.546875 L 244.078125 198.363281 C 244.078125 198.988281 244.140625 199.609375 244.261719 200.222656 C 244.382812 200.835938 244.566406 201.429688 244.804688 202.007812 C 245.042969 202.585938 245.339844 203.136719 245.6875 203.65625 C 246.035156 204.175781 246.429688 204.65625 246.875 205.097656 C 247.316406 205.539062 247.796875 205.933594 248.320312 206.28125 C 248.839844 206.628906 249.390625 206.921875 249.96875 207.164062 C 250.546875 207.402344 251.144531 207.582031 251.757812 207.703125 C 252.375 207.828125 252.992188 207.886719 253.621094 207.886719 C 254.246094 207.886719 254.867188 207.828125 255.480469 207.703125 C 256.097656 207.582031 256.691406 207.402344 257.269531 207.164062 C 257.851562 206.921875 258.398438 206.628906 258.921875 206.28125 C 259.441406 205.933594 259.925781 205.539062 260.367188 205.097656 C 260.808594 204.65625 261.207031 204.175781 261.554688 203.65625 C 261.902344 203.136719 262.195312 202.585938 262.433594 202.007812 C 262.675781 201.429688 262.855469 200.835938 262.976562 200.222656 C 263.101562 199.609375 263.160156 198.988281 263.160156 198.363281 L 263.160156 165.851562 C 265.171875 167.285156 267.089844 168.828125 268.925781 170.476562 C 270.757812 172.128906 272.492188 173.878906 274.125 175.726562 C 275.757812 177.574219 277.28125 179.507812 278.695312 181.527344 C 280.109375 183.546875 281.402344 185.644531 282.578125 187.8125 C 283.753906 189.980469 284.800781 192.207031 285.722656 194.492188 C 286.640625 196.78125 287.429688 199.109375 288.082031 201.488281 C 288.738281 203.863281 289.253906 206.269531 289.636719 208.703125 C 290.015625 211.140625 290.257812 213.589844 290.359375 216.050781 L 159.632812 216.050781 C 159.847656 210.847656 160.679688 205.742188 162.125 200.734375 C 163.566406 195.730469 165.585938 190.964844 168.175781 186.441406 Z M 297.238281 229.65625 L 152.753906 229.65625 C 152.484375 229.65625 152.21875 229.628906 151.957031 229.578125 C 151.691406 229.523438 151.4375 229.449219 151.191406 229.34375 C 150.941406 229.242188 150.707031 229.117188 150.484375 228.96875 C 150.257812 228.820312 150.050781 228.648438 149.863281 228.460938 C 149.671875 228.269531 149.503906 228.066406 149.355469 227.84375 C 149.207031 227.617188 149.078125 227.382812 148.976562 227.136719 C 148.875 226.886719 148.796875 226.632812 148.742188 226.371094 C 148.691406 226.109375 148.664062 225.84375 148.664062 225.574219 C 148.664062 225.304688 148.691406 225.039062 148.742188 224.777344 C 148.796875 224.515625 148.875 224.261719 148.976562 224.011719 C 149.078125 223.765625 149.207031 223.53125 149.355469 223.308594 C 149.503906 223.082031 149.671875 222.878906 149.863281 222.6875 C 150.050781 222.5 150.257812 222.328125 150.484375 222.179688 C 150.707031 222.03125 150.941406 221.90625 151.191406 221.804688 C 151.4375 221.699219 151.691406 221.625 151.957031 221.570312 C 152.21875 221.519531 152.484375 221.492188 152.753906 221.492188 L 297.238281 221.492188 C 297.507812 221.492188 297.773438 221.519531 298.035156 221.570312 C 298.296875 221.625 298.554688 221.699219 298.800781 221.804688 C 299.050781 221.90625 299.285156 222.03125 299.507812 222.179688 C 299.734375 222.328125 299.9375 222.5 300.128906 222.6875 C 300.320312 222.878906 300.488281 223.082031 300.636719 223.308594 C 300.785156 223.53125 300.914062 223.765625 301.015625 224.011719 C 301.117188 224.261719 301.195312 224.515625 301.25 224.777344 C 301.300781 225.039062 301.328125 225.304688 301.328125 225.574219 C 301.328125 225.84375 301.300781 226.109375 301.25 226.371094 C 301.195312 226.632812 301.117188 226.886719 301.015625 227.136719 C 300.914062 227.382812 300.785156 227.617188 300.636719 227.84375 C 300.488281 228.066406 300.320312 228.269531 300.128906 228.460938 C 299.9375 228.648438 299.734375 228.820312 299.507812 228.96875 C 299.285156 229.117188 299.050781 229.242188 298.800781 229.34375 C 298.554688 229.449219 298.296875 229.523438 298.035156 229.578125 C 297.773438 229.628906 297.507812 229.65625 297.238281 229.65625 Z M 297.238281 229.65625 " fill-opacity="1" fill-rule="nonzero"/></g><path fill="#000000" d="M 289.523438 238.269531 L 285.871094 242.308594 L 295.347656 250.847656 L 289.753906 264.324219 L 271.964844 263.414062 C 271.160156 263.375 270.46875 263.640625 269.898438 264.207031 L 259.613281 274.472656 C 259.042969 275.042969 258.777344 275.730469 258.820312 276.539062 L 259.726562 294.292969 L 246.226562 299.875 L 234.289062 286.679688 C 233.75 286.082031 233.074219 285.78125 232.265625 285.78125 L 217.722656 285.78125 C 216.917969 285.78125 216.242188 286.082031 215.699219 286.679688 L 203.765625 299.875 L 190.265625 294.292969 L 191.171875 276.539062 C 191.214844 275.734375 190.949219 275.046875 190.378906 274.476562 L 180.09375 264.210938 C 179.523438 263.640625 178.832031 263.375 178.027344 263.417969 L 160.238281 264.324219 L 154.644531 250.847656 L 164.121094 242.308594 L 160.46875 238.269531 L 149.566406 248.09375 C 149.136719 248.480469 148.859375 248.953125 148.730469 249.515625 C 148.605469 250.078125 148.652344 250.625 148.871094 251.15625 L 155.9375 268.179688 C 156.160156 268.710938 156.511719 269.132812 157 269.441406 C 157.488281 269.746094 158.019531 269.886719 158.59375 269.855469 L 177.09375 268.914062 L 185.664062 277.46875 L 184.71875 295.933594 C 184.691406 296.507812 184.828125 297.039062 185.136719 297.527344 C 185.445312 298.011719 185.867188 298.367188 186.398438 298.585938 L 203.457031 305.636719 C 203.988281 305.859375 204.535156 305.90625 205.101562 305.777344 C 205.664062 305.652344 206.136719 305.375 206.523438 304.949219 L 218.9375 291.222656 L 231.058594 291.222656 L 243.46875 304.949219 C 243.855469 305.375 244.332031 305.652344 244.894531 305.777344 C 245.457031 305.90625 246.003906 305.859375 246.535156 305.636719 L 263.59375 298.585938 C 264.125 298.367188 264.546875 298.011719 264.855469 297.527344 C 265.164062 297.039062 265.300781 296.507812 265.273438 295.933594 L 264.328125 277.46875 L 272.898438 268.914062 L 291.398438 269.855469 C 291.972656 269.886719 292.503906 269.75 292.992188 269.441406 C 293.480469 269.132812 293.835938 268.714844 294.054688 268.179688 L 301.121094 251.15625 C 301.339844 250.625 301.386719 250.078125 301.261719 249.515625 C 301.132812 248.953125 300.855469 248.480469 300.429688 248.09375 Z M 289.523438 238.269531 " fill-opacity="1" fill-rule="nonzero"/><path fill="#000000" d="M 224.996094 262.308594 C 223.277344 262.3125 221.566406 262.179688 219.867188 261.914062 C 218.171875 261.648438 216.503906 261.253906 214.867188 260.722656 C 213.230469 260.195312 211.648438 259.542969 210.113281 258.761719 C 208.582031 257.984375 207.121094 257.089844 205.730469 256.078125 C 204.339844 255.070312 203.039062 253.957031 201.824219 252.742188 C 200.609375 251.527344 199.5 250.226562 198.492188 248.835938 C 197.480469 247.445312 196.589844 245.984375 195.8125 244.453125 C 195.039062 242.921875 194.386719 241.335938 193.859375 239.703125 L 188.671875 241.375 C 189.289062 243.28125 190.050781 245.125 190.960938 246.910156 C 191.867188 248.691406 192.910156 250.394531 194.089844 252.015625 C 195.265625 253.636719 196.5625 255.152344 197.980469 256.570312 C 199.394531 257.984375 200.914062 259.28125 202.535156 260.460938 C 204.15625 261.636719 205.859375 262.679688 207.648438 263.589844 C 209.433594 264.5 211.28125 265.261719 213.1875 265.882812 C 215.09375 266.5 217.035156 266.96875 219.015625 267.28125 C 220.996094 267.59375 222.988281 267.75 224.996094 267.75 C 227 267.75 228.992188 267.59375 230.972656 267.28125 C 232.953125 266.96875 234.898438 266.5 236.804688 265.882812 C 238.710938 265.261719 240.558594 264.5 242.34375 263.589844 C 244.128906 262.679688 245.832031 261.636719 247.453125 260.460938 C 249.074219 259.28125 250.59375 257.984375 252.011719 256.570312 C 253.429688 255.152344 254.726562 253.636719 255.902344 252.015625 C 257.078125 250.394531 258.121094 248.691406 259.03125 246.910156 C 259.9375 245.125 260.703125 243.28125 261.320312 241.375 L 256.128906 239.703125 C 255.605469 241.335938 254.953125 242.921875 254.175781 244.453125 C 253.402344 245.984375 252.507812 247.445312 251.5 248.835938 C 250.492188 250.222656 249.382812 251.527344 248.167969 252.742188 C 246.953125 253.957031 245.652344 255.070312 244.261719 256.078125 C 242.871094 257.089844 241.410156 257.984375 239.875 258.761719 C 238.34375 259.539062 236.761719 260.195312 235.125 260.722656 C 233.488281 261.253906 231.820312 261.648438 230.125 261.914062 C 228.425781 262.179688 226.714844 262.3125 224.996094 262.308594 Z M 224.996094 262.308594 " fill-opacity="1" fill-rule="nonzero"/><path fill="#000000" d="M 222.269531 273.191406 L 227.722656 273.191406 L 227.722656 278.632812 L 222.269531 278.632812 Z M 222.269531 273.191406 " fill-opacity="1" fill-rule="nonzero"/><path fill="#000000" d="M 253.910156 262.363281 L 257.765625 258.515625 L 261.621094 262.363281 L 257.765625 266.214844 Z M 253.910156 262.363281 " fill-opacity="1" fill-rule="nonzero"/><path fill="#000000" d="M 188.371094 262.363281 L 192.226562 258.515625 L 196.082031 262.363281 L 192.226562 266.214844 Z M 188.371094 262.363281 " fill-opacity="1" fill-rule="nonzero"/><g fill="#ffffff" fill-opacity="1"><g transform="translate(124.959909, 199.047899)"><g><path d="M 0.234375 -0.578125 L -4.484375 -2.46875 L -3.90625 -3.90625 L -16.859375 -9.078125 L -17.4375 -7.640625 L -22.171875 -9.53125 L -14.40625 -28.96875 L -5.703125 -25.484375 L -8.28125 -19.015625 L -12.25 -20.609375 L -13.65625 -17.125 L -9.109375 -15.3125 L -8.09375 -17.859375 L -4.828125 -16.546875 L -5.84375 -14 L -0.703125 -11.953125 L 0.703125 -15.4375 L -3.84375 -17.25 L -1.265625 -23.71875 L 8 -20.015625 Z M 0.234375 -0.578125 "/></g></g></g><g fill="#ffffff" fill-opacity="1"><g transform="translate(133.410343, 177.136581)"><g><path d="M -8.3125 -29.234375 L -2.21875 -37.390625 L 1.859375 -34.34375 L 0.921875 -33.09375 L 16.1875 -21.71875 L 10.984375 -14.75 L -5.65625 -15.8125 L 1.484375 -10.484375 L 2.359375 -11.671875 L 6.4375 -8.640625 L 0.375 -0.5 L -3.703125 -3.53125 L -2.78125 -4.765625 L -13.96875 -13.109375 L -14.890625 -11.875 L -18.96875 -14.921875 L -12.28125 -23.890625 L 2.5625 -23 L -3.328125 -27.390625 L -4.234375 -26.1875 Z M -8.3125 -29.234375 "/></g></g></g><g fill="#ffffff" fill-opacity="1"><g transform="translate(151.975518, 153.066773)"><g><path d="M 14.203125 -20.84375 L 12.96875 -19.890625 L 16.765625 -14.984375 C 16.359375 -14.015625 15.59375 -12.835938 14.46875 -11.453125 C 13.34375 -10.066406 11.976562 -8.75 10.375 -7.5 C 7.320312 -5.132812 4.304688 -4.082031 1.328125 -4.34375 C -1.648438 -4.613281 -4.445312 -6.429688 -7.0625 -9.796875 C -9.726562 -13.234375 -10.8125 -16.40625 -10.3125 -19.3125 C -9.8125 -22.21875 -7.960938 -24.910156 -4.765625 -27.390625 C -3.203125 -28.597656 -1.613281 -29.5625 0 -30.28125 C 1.601562 -31.007812 2.898438 -31.4375 3.890625 -31.5625 L 8.4375 -25.703125 L 2.3125 -20.953125 L 1.421875 -22.109375 C 0.890625 -22.796875 0.367188 -23.175781 -0.140625 -23.25 C -0.660156 -23.332031 -1.226562 -23.132812 -1.84375 -22.65625 C -2.46875 -22.175781 -2.804688 -21.671875 -2.859375 -21.140625 C -2.910156 -20.617188 -2.671875 -20.015625 -2.140625 -19.328125 L 3.40625 -12.1875 C 3.9375 -11.5 4.460938 -11.113281 4.984375 -11.03125 C 5.515625 -10.957031 6.09375 -11.160156 6.71875 -11.640625 C 7.332031 -12.117188 7.660156 -12.617188 7.703125 -13.140625 C 7.742188 -13.671875 7.5 -14.28125 6.96875 -14.96875 L 6.84375 -15.140625 L 5.53125 -14.109375 L 2.6875 -17.75 L 11.359375 -24.484375 Z M 14.203125 -20.84375 "/></g></g></g><g fill="#ffffff" fill-opacity="1"><g transform="translate(173.031053, 137.652212)"><g><path d="M 0.5625 -0.28125 L -1.703125 -4.828125 L -0.328125 -5.515625 L -6.546875 -18.015625 L -7.921875 -17.328125 L -10.1875 -21.875 L 0.359375 -27.125 L 2.625 -22.578125 L 1.21875 -21.875 L 7.4375 -9.375 L 8.84375 -10.078125 L 11.109375 -5.53125 Z M 0.5625 -0.28125 "/></g></g></g><g fill="#ffffff" fill-opacity="1"><g transform="translate(185.977486, 130.432715)"><g><path d="M 12.171875 -27.828125 L 22.046875 -30.265625 L 23.265625 -25.328125 L 21.765625 -24.953125 L 26.3125 -6.46875 L 17.859375 -4.390625 L 5.6875 -15.796875 L 7.8125 -7.15625 L 9.25 -7.515625 L 10.46875 -2.578125 L 0.609375 -0.15625 L -0.609375 -5.09375 L 0.890625 -5.453125 L -2.4375 -19 L -3.9375 -18.640625 L -5.15625 -23.578125 L 5.703125 -26.25 L 16.59375 -16.109375 L 14.84375 -23.25 L 13.390625 -22.890625 Z M 12.171875 -27.828125 "/></g></g></g><g fill="#ffffff" fill-opacity="1"><g transform="translate(215.708878, 123.770614)"><g><path d="M 0.625 0.015625 L 0.71875 -5.0625 L 2.265625 -5.03125 L 2.546875 -18.984375 L 1 -19.015625 L 1.09375 -24.109375 L 22.015625 -23.703125 L 21.828125 -14.328125 L 14.875 -14.46875 L 14.96875 -18.75 L 11.21875 -18.828125 L 11.125 -13.9375 L 13.859375 -13.875 L 13.78125 -10.34375 L 11.046875 -10.40625 L 10.9375 -4.875 L 14.6875 -4.796875 L 14.78125 -9.703125 L 21.734375 -9.5625 L 21.546875 0.421875 Z M 0.625 0.015625 "/></g></g></g><g fill="#ffffff" fill-opacity="1"><g transform="translate(239.409782, 124.414463)"><g><path d="M 0.609375 0.15625 L 1.859375 -4.765625 L 3.359375 -4.390625 L 6.796875 -17.921875 L 5.296875 -18.296875 L 6.546875 -23.234375 L 26.828125 -18.09375 L 24.515625 -9 L 17.765625 -10.703125 L 18.828125 -14.859375 L 15.203125 -15.78125 L 14 -11.03125 L 16.640625 -10.359375 L 15.765625 -6.9375 L 13.125 -7.609375 L 11.765625 -2.25 L 15.390625 -1.328125 L 16.59375 -6.078125 L 23.34375 -4.375 L 20.890625 5.296875 Z M 0.609375 0.15625 "/></g></g></g><g fill="#ffffff" fill-opacity="1"><g transform="translate(262.297779, 130.243122)"><g><path d="M 2.9375 -4.1875 L 4.3125 -3.46875 L 10.875 -15.78125 L 9.5 -16.5 L 11.890625 -21 L 24.4375 -14.3125 C 26.789062 -13.0625 28.332031 -11.617188 29.0625 -9.984375 C 29.789062 -8.347656 29.578125 -6.445312 28.421875 -4.28125 C 27.765625 -3.0625 26.953125 -2.132812 25.984375 -1.5 C 25.015625 -0.863281 23.984375 -0.617188 22.890625 -0.765625 L 22.765625 -0.46875 C 24.367188 0.738281 24.671875 2.28125 23.671875 4.15625 L 22.546875 6.265625 L 23.828125 6.9375 L 21.4375 11.421875 L 12.78125 6.8125 L 16.203125 0.390625 C 16.585938 -0.328125 16.769531 -0.925781 16.75 -1.40625 C 16.726562 -1.882812 16.53125 -2.300781 16.15625 -2.65625 C 15.78125 -3.019531 15.175781 -3.425781 14.34375 -3.875 L 11.953125 0.609375 L 13.765625 1.578125 L 11.375 6.0625 L 0.546875 0.296875 Z M 17.625 -6.421875 C 18.144531 -6.140625 18.613281 -6.066406 19.03125 -6.203125 C 19.445312 -6.347656 19.816406 -6.722656 20.140625 -7.328125 L 20.65625 -8.3125 C 20.976562 -8.914062 21.082031 -9.425781 20.96875 -9.84375 C 20.851562 -10.269531 20.535156 -10.625 20.015625 -10.90625 L 18.515625 -11.703125 L 16.125 -7.21875 Z M 17.625 -6.421875 "/></g></g></g><g fill="#ffffff" fill-opacity="1"><g transform="translate(285.417184, 143.450043)"><g><path d="M 0.484375 0.390625 L 3.71875 -3.515625 L 4.90625 -2.515625 L 13.796875 -13.28125 L 12.609375 -14.28125 L 15.859375 -18.203125 L 24.9375 -10.6875 L 21.6875 -6.765625 L 20.484375 -7.765625 L 11.59375 3 L 12.796875 4 L 9.5625 7.90625 Z M 0.484375 0.390625 "/></g></g></g><g fill="#ffffff" fill-opacity="1"><g transform="translate(297.274089, 152.346141)"><g><path d="M 30.375 -0.1875 L 36.609375 7.859375 L 32.59375 10.984375 L 31.640625 9.75 L 16.59375 21.40625 L 11.265625 14.53125 L 16.75 -1.21875 L 9.71875 4.234375 L 10.625 5.40625 L 6.609375 8.515625 L 0.390625 0.5 L 4.40625 -2.609375 L 5.34375 -1.390625 L 16.375 -9.9375 L 15.4375 -11.15625 L 19.453125 -14.28125 L 26.296875 -5.4375 L 21.46875 8.625 L 27.28125 4.125 L 26.359375 2.9375 Z M 30.375 -0.1875 "/></g></g></g><g fill="#ffffff" fill-opacity="1"><g transform="translate(315.501452, 176.672746)"><g><path d="M 16.28125 19.265625 L 15.6875 17.8125 L 9.953125 20.15625 C 9.128906 19.519531 8.195312 18.472656 7.15625 17.015625 C 6.125 15.554688 5.222656 13.890625 4.453125 12.015625 C 2.984375 8.429688 2.773438 5.238281 3.828125 2.4375 C 4.890625 -0.351562 7.390625 -2.554688 11.328125 -4.171875 C 15.359375 -5.828125 18.703125 -6.023438 21.359375 -4.765625 C 24.015625 -3.503906 26.113281 -1.003906 27.65625 2.734375 C 28.40625 4.554688 28.914062 6.335938 29.1875 8.078125 C 29.457031 9.828125 29.515625 11.195312 29.359375 12.1875 L 22.5 15 L 19.5625 7.84375 L 20.921875 7.296875 C 21.722656 6.960938 22.234375 6.554688 22.453125 6.078125 C 22.671875 5.597656 22.628906 4.992188 22.328125 4.265625 C 22.023438 3.535156 21.628906 3.078125 21.140625 2.890625 C 20.648438 2.703125 20.003906 2.773438 19.203125 3.109375 L 10.828125 6.546875 C 10.023438 6.867188 9.515625 7.269531 9.296875 7.75 C 9.078125 8.238281 9.117188 8.847656 9.421875 9.578125 C 9.722656 10.304688 10.117188 10.757812 10.609375 10.9375 C 11.097656 11.125 11.742188 11.054688 12.546875 10.734375 L 12.75 10.65625 L 12.109375 9.109375 L 16.390625 7.34375 L 20.5625 17.5 Z M 16.28125 19.265625 "/></g></g></g><g clip-path="url(#a7ee9138a1)"><path fill="#fd810a" d="M 122.789062 223.667969 C 122.792969 223.523438 122.902344 223.351562 123.03125 223.289062 L 125.644531 221.976562 C 125.773438 221.910156 125.859375 221.742188 125.835938 221.597656 L 125.234375 218.816406 C 125.195312 218.675781 125.046875 218.554688 124.902344 218.546875 L 121.929688 218.351562 C 121.785156 218.34375 121.613281 218.230469 121.550781 218.101562 L 121.144531 217.355469 C 121.074219 217.230469 121.074219 217.027344 121.148438 216.902344 L 122.648438 214.367188 C 122.722656 214.242188 122.703125 214.050781 122.609375 213.945312 L 120.585938 211.875 C 120.480469 211.78125 120.289062 211.757812 120.164062 211.828125 L 117.578125 213.265625 C 117.453125 213.335938 117.25 213.332031 117.125 213.257812 L 116.425781 212.859375 C 116.300781 212.792969 116.191406 212.617188 116.1875 212.472656 L 116.078125 209.503906 C 116.074219 209.359375 115.957031 209.207031 115.820312 209.164062 L 113.019531 208.492188 C 112.875 208.464844 112.703125 208.550781 112.636719 208.675781 L 111.246094 211.273438 C 111.175781 211.398438 111.0625 211.503906 110.988281 211.5 L 110.921875 211.5 C 110.519531 211.5 109.988281 211.539062 109.988281 211.539062 C 109.84375 211.550781 109.660156 211.464844 109.578125 211.34375 L 107.878906 208.890625 C 107.796875 208.773438 107.613281 208.707031 107.476562 208.746094 L 104.800781 209.648438 C 104.667969 209.703125 104.566406 209.867188 104.578125 210.007812 L 104.804688 212.925781 C 104.816406 213.070312 104.726562 213.253906 104.605469 213.332031 L 103.753906 213.921875 C 103.640625 214.007812 103.4375 214.03125 103.304688 213.976562 L 100.546875 212.832031 C 100.414062 212.777344 100.226562 212.820312 100.132812 212.929688 L 98.414062 215.0625 C 98.332031 215.179688 98.332031 215.371094 98.417969 215.484375 L 100.175781 217.804688 C 100.261719 217.917969 100.285156 218.121094 100.226562 218.25 L 99.746094 219.398438 C 99.695312 219.53125 99.539062 219.664062 99.398438 219.6875 L 96.476562 220.21875 C 96.332031 220.242188 96.199219 220.382812 96.175781 220.523438 C 96.175781 220.523438 95.890625 222.324219 95.890625 223.402344 L 95.890625 223.40625 C 95.890625 223.414062 96 223.460938 96.136719 223.507812 L 98.863281 224.507812 C 99 224.558594 99.125 224.714844 99.148438 224.855469 L 99.402344 226.253906 C 99.433594 226.394531 99.375 226.589844 99.269531 226.6875 L 97.109375 228.707031 C 97.003906 228.804688 96.964844 228.992188 97.023438 229.125 L 98.203125 231.414062 C 98.277344 231.539062 98.449219 231.613281 98.589844 231.582031 L 101.4375 230.941406 C 101.578125 230.910156 101.769531 230.972656 101.863281 231.082031 L 102.914062 232.171875 C 103.015625 232.273438 103.074219 232.46875 103.039062 232.609375 L 102.3125 235.453125 C 102.277344 235.59375 102.347656 235.773438 102.46875 235.847656 L 104.691406 237.105469 C 104.820312 237.167969 105.007812 237.136719 105.109375 237.035156 L 107.167969 234.941406 C 107.269531 234.839844 107.46875 234.785156 107.605469 234.824219 L 109.070312 235.148438 C 109.214844 235.175781 109.367188 235.308594 109.410156 235.445312 L 110.332031 238.210938 C 110.375 238.347656 110.53125 238.464844 110.675781 238.46875 C 110.675781 238.46875 110.753906 238.46875 110.921875 238.46875 C 111.804688 238.46875 113.253906 238.28125 113.253906 238.28125 C 113.398438 238.261719 113.539062 238.128906 113.566406 237.988281 L 114.175781 235.089844 C 114.207031 234.949219 114.34375 234.796875 114.480469 234.75 L 115.765625 234.261719 C 115.898438 234.203125 116.101562 234.230469 116.210938 234.320312 L 118.472656 236.148438 C 118.585938 236.238281 118.773438 236.246094 118.894531 236.164062 L 121.015625 234.550781 C 121.125 234.457031 121.171875 234.273438 121.121094 234.136719 L 120.0625 231.351562 C 120.011719 231.214844 120.042969 231.011719 120.132812 230.898438 L 120.832031 229.941406 C 120.914062 229.824219 121.097656 229.738281 121.242188 229.753906 L 124.132812 230.066406 C 124.277344 230.082031 124.441406 229.984375 124.496094 229.851562 L 125.445312 227.253906 C 125.488281 227.117188 125.425781 226.933594 125.3125 226.847656 L 122.910156 225.070312 C 122.792969 224.984375 122.710938 224.796875 122.726562 224.65625 Z M 110.882812 232.238281 C 106.046875 232.238281 102.125 228.308594 102.125 223.457031 C 102.125 218.609375 106.046875 214.675781 110.882812 214.675781 C 115.722656 214.675781 119.644531 218.609375 119.644531 223.457031 C 119.644531 228.308594 115.722656 232.238281 110.882812 232.238281 Z M 110.882812 232.238281 " fill-opacity="1" fill-rule="nonzero"/></g><g clip-path="url(#c54348bd65)"><path fill="#fd810a" d="M 351.578125 223.667969 C 351.585938 223.523438 351.691406 223.351562 351.820312 223.289062 L 354.4375 221.976562 C 354.566406 221.910156 354.652344 221.742188 354.628906 221.597656 L 354.027344 218.816406 C 353.988281 218.675781 353.839844 218.554688 353.695312 218.546875 L 350.722656 218.351562 C 350.578125 218.34375 350.40625 218.230469 350.34375 218.101562 L 349.9375 217.355469 C 349.867188 217.230469 349.867188 217.027344 349.941406 216.902344 L 351.441406 214.367188 C 351.515625 214.242188 351.496094 214.050781 351.402344 213.945312 L 349.378906 211.875 C 349.273438 211.78125 349.082031 211.757812 348.957031 211.828125 L 346.371094 213.265625 C 346.246094 213.335938 346.039062 213.332031 345.917969 213.257812 L 345.21875 212.859375 C 345.089844 212.792969 344.984375 212.617188 344.976562 212.472656 L 344.871094 209.503906 C 344.867188 209.359375 344.75 209.207031 344.613281 209.164062 L 341.808594 208.492188 C 341.667969 208.464844 341.496094 208.550781 341.429688 208.675781 L 340.039062 211.273438 C 339.96875 211.398438 339.855469 211.503906 339.78125 211.5 L 339.714844 211.5 C 339.3125 211.5 338.78125 211.539062 338.78125 211.539062 C 338.636719 211.550781 338.453125 211.464844 338.371094 211.34375 L 336.667969 208.890625 C 336.585938 208.773438 336.40625 208.707031 336.269531 208.746094 L 333.59375 209.648438 C 333.457031 209.703125 333.359375 209.867188 333.371094 210.007812 L 333.597656 212.925781 C 333.609375 213.070312 333.519531 213.253906 333.398438 213.332031 L 332.546875 213.921875 C 332.433594 214.007812 332.230469 214.03125 332.097656 213.976562 L 329.339844 212.832031 C 329.207031 212.777344 329.019531 212.820312 328.925781 212.929688 L 327.207031 215.0625 C 327.121094 215.179688 327.125 215.371094 327.210938 215.484375 L 328.96875 217.804688 C 329.054688 217.917969 329.078125 218.121094 329.015625 218.25 L 328.539062 219.398438 C 328.488281 219.53125 328.332031 219.664062 328.191406 219.6875 L 325.265625 220.21875 C 325.125 220.242188 324.992188 220.382812 324.96875 220.523438 C 324.96875 220.523438 324.683594 222.324219 324.683594 223.402344 L 324.683594 223.40625 C 324.683594 223.414062 324.792969 223.460938 324.929688 223.507812 L 327.65625 224.507812 C 327.792969 224.558594 327.917969 224.714844 327.9375 224.855469 L 328.195312 226.253906 C 328.226562 226.394531 328.167969 226.589844 328.0625 226.6875 L 325.902344 228.707031 C 325.796875 228.804688 325.757812 228.992188 325.816406 229.125 L 326.996094 231.414062 C 327.066406 231.539062 327.242188 231.613281 327.382812 231.582031 L 330.226562 230.941406 C 330.367188 230.910156 330.5625 230.972656 330.65625 231.082031 L 331.707031 232.171875 C 331.808594 232.273438 331.867188 232.46875 331.832031 232.609375 L 331.105469 235.453125 C 331.070312 235.59375 331.140625 235.773438 331.261719 235.847656 L 333.484375 237.105469 C 333.613281 237.167969 333.800781 237.136719 333.902344 237.035156 L 335.960938 234.941406 C 336.0625 234.839844 336.257812 234.785156 336.398438 234.824219 L 337.863281 235.148438 C 338.003906 235.175781 338.160156 235.308594 338.203125 235.445312 L 339.125 238.210938 C 339.167969 238.347656 339.324219 238.464844 339.46875 238.46875 C 339.46875 238.46875 339.542969 238.46875 339.714844 238.46875 C 340.597656 238.46875 342.046875 238.28125 342.046875 238.28125 C 342.191406 238.261719 342.332031 238.128906 342.359375 237.988281 L 342.96875 235.089844 C 343 234.949219 343.132812 234.796875 343.269531 234.75 L 344.558594 234.261719 C 344.691406 234.203125 344.890625 234.230469 345.003906 234.320312 L 347.265625 236.148438 C 347.378906 236.238281 347.566406 236.246094 347.683594 236.164062 L 349.808594 234.550781 C 349.917969 234.457031 349.964844 234.273438 349.914062 234.136719 L 348.855469 231.351562 C 348.804688 231.214844 348.835938 231.011719 348.925781 230.898438 L 349.625 229.941406 C 349.707031 229.824219 349.890625 229.738281 350.035156 229.753906 L 352.925781 230.066406 C 353.070312 230.082031 353.234375 229.984375 353.289062 229.851562 L 354.238281 227.253906 C 354.28125 227.117188 354.21875 226.933594 354.105469 226.847656 L 351.703125 225.070312 C 351.585938 224.984375 351.503906 224.796875 351.515625 224.65625 Z M 339.675781 232.238281 C 334.839844 232.238281 330.914062 228.308594 330.914062 223.457031 C 330.914062 218.609375 334.839844 214.675781 339.675781 214.675781 C 344.515625 214.675781 348.4375 218.609375 348.4375 223.457031 C 348.4375 228.308594 344.515625 232.238281 339.675781 232.238281 Z M 339.675781 232.238281 " fill-opacity="1" fill-rule="nonzero"/></g></svg>