<svg xmlns="http://www.w3.org/2000/svg" xmlns:xlink="http://www.w3.org/1999/xlink" zoomAndPan="magnify" preserveAspectRatio="xMidYMid meet" version="1.0" viewBox="48.96 37.5 273.78 315"><defs><clipPath id="5850b536cc"><path d="M 48.988281 37.5 L 316 37.5 L 316 352.5 L 48.988281 352.5 Z M 48.988281 37.5 " clip-rule="nonzero"/></clipPath><clipPath id="2fe6975e47"><path d="M 192 125 L 322.738281 125 L 322.738281 352.5 L 192 352.5 Z M 192 125 " clip-rule="nonzero"/></clipPath></defs><g clip-path="url(#5850b536cc)"><path fill="#b30101" d="M 185.832031 37.742188 L 48.957031 117.410156 L 48.957031 276.742188 L 178.699219 352.257812 L 178.699219 192.925781 L 315.753906 113.363281 Z M 165.609375 185.257812 L 165.488281 185.328125 L 165.484375 328.324219 L 139.550781 313.230469 L 139.550781 169.785156 L 234.824219 114.332031 L 221.699219 106.691406 L 126.335938 162.195312 L 126.335938 305.535156 L 100.667969 290.59375 L 100.667969 146.445312 L 195.328125 91.34375 L 182.203125 83.703125 L 87.457031 138.855469 L 87.457031 283.871094 L 62.167969 269.152344 L 62.167969 125 L 62.472656 124.820312 L 185.832031 53.019531 L 289.472656 113.347656 Z M 165.609375 185.257812 " fill-opacity="1" fill-rule="nonzero"/></g><g clip-path="url(#2fe6975e47)"><path fill="#000000" d="M 192.960938 201.179688 L 192.960938 352.257812 L 254.265625 316.578125 L 322.703125 276.742188 L 322.703125 125.820312 Z M 309.492188 178.25 L 231.460938 223.277344 L 231.460938 238.019531 L 309.492188 192.996094 L 309.492188 269.152344 L 206.171875 329.289062 L 206.171875 296.535156 L 282.296875 252.609375 L 282.296875 237.867188 L 206.171875 281.792969 L 206.171875 208.777344 L 309.492188 149.066406 Z M 309.492188 178.25 " fill-opacity="1" fill-rule="nonzero"/></g></svg>