<svg xmlns="http://www.w3.org/2000/svg" xmlns:xlink="http://www.w3.org/1999/xlink" zoomAndPan="magnify" preserveAspectRatio="xMidYMid meet" version="1.0" viewBox="106.72 75.23 190.06 139.31"><defs><g/><clipPath id="9353ddf986"><path d="M 164 75.226562 L 246 75.226562 L 246 128 L 164 128 Z M 164 75.226562 " clip-rule="nonzero"/></clipPath><clipPath id="ec380b7780"><path d="M 159.074219 116 L 275.269531 116 L 275.269531 170.433594 L 159.074219 170.433594 Z M 159.074219 116 " clip-rule="nonzero"/></clipPath></defs><path fill="#4f4c4c" d="M 240.898438 121.371094 C 240.433594 138.039062 226.734375 151.40625 209.890625 151.40625 C 199.699219 151.40625 190.652344 146.511719 184.996094 138.949219 C 183.414062 139.996094 181.957031 141.058594 180.632812 142.132812 C 180.796875 142.351562 180.960938 142.574219 181.128906 142.789062 L 175.347656 150.09375 L 180.175781 154.90625 L 187.511719 149.148438 C 192.570312 153.074219 198.691406 155.699219 205.375 156.519531 L 206.476562 165.757812 L 213.304688 165.757812 L 214.40625 156.519531 C 221.089844 155.699219 227.210938 153.074219 232.269531 149.148438 L 239.605469 154.90625 L 244.433594 150.09375 L 238.65625 142.789062 C 242.59375 137.75 245.230469 131.652344 246.054688 124.992188 L 255.328125 123.898438 L 255.328125 120.597656 C 250.613281 120.621094 245.785156 120.878906 240.898438 121.371094 " fill-opacity="1" fill-rule="nonzero"/><g clip-path="url(#9353ddf986)"><path fill="#2c3892" d="M 178.859375 120.496094 C 178.859375 103.421875 192.753906 89.582031 209.890625 89.582031 C 225.007812 89.582031 237.59375 100.355469 240.355469 114.609375 C 242.203125 114.640625 244.046875 114.699219 245.882812 114.78125 C 244.902344 108.597656 242.355469 102.933594 238.65625 98.203125 L 244.433594 90.894531 L 242.019531 88.492188 L 239.605469 86.085938 L 232.269531 91.84375 C 227.210938 87.917969 221.089844 85.292969 214.40625 84.46875 L 213.304688 75.234375 L 206.476562 75.234375 L 205.375 84.46875 C 198.691406 85.292969 192.570312 87.917969 187.511719 91.84375 L 180.175781 86.085938 L 175.347656 90.894531 L 181.128906 98.203125 C 177.1875 103.242188 174.554688 109.339844 173.726562 116 L 164.453125 117.09375 L 164.453125 123.898438 L 173.726562 124.992188 C 173.84375 125.941406 174.003906 126.875 174.191406 127.796875 C 175.765625 126.925781 177.449219 126.085938 179.230469 125.277344 C 178.988281 123.71875 178.859375 122.121094 178.859375 120.496094 " fill-opacity="1" fill-rule="nonzero"/></g><path fill="#7b7979" d="M 220.738281 124.691406 C 219.289062 125.023438 217.859375 125.378906 216.445312 125.746094 C 214.902344 127.65625 212.542969 128.878906 209.890625 128.878906 C 208.988281 128.878906 208.121094 128.734375 207.304688 128.46875 C 205.894531 128.945312 204.515625 129.4375 203.160156 129.945312 C 205.0625 131.292969 207.378906 132.09375 209.890625 132.09375 C 214.835938 132.09375 219.046875 129.019531 220.738281 124.691406 " fill-opacity="1" fill-rule="nonzero"/><path fill="#3871c1" d="M 209.890625 102.40625 C 217.949219 102.40625 224.773438 107.632812 227.148438 114.871094 C 228.589844 114.789062 230.039062 114.730469 231.496094 114.683594 C 228.929688 105.191406 220.230469 98.203125 209.890625 98.203125 C 197.53125 98.203125 187.511719 108.183594 187.511719 120.496094 C 187.511719 121 187.535156 121.5 187.566406 122 C 188.925781 121.535156 190.320312 121.097656 191.738281 120.675781 C 191.738281 120.617188 191.730469 120.554688 191.730469 120.496094 C 191.730469 110.503906 199.863281 102.40625 209.890625 102.40625 " fill-opacity="1" fill-rule="nonzero"/><path fill="#656263" d="M 209.890625 142.789062 C 221.574219 142.789062 231.160156 133.867188 232.175781 122.492188 C 230.71875 122.71875 229.277344 122.964844 227.84375 123.226562 C 226.519531 131.917969 218.988281 138.585938 209.890625 138.585938 C 204.585938 138.585938 199.808594 136.316406 196.488281 132.699219 C 195.140625 133.3125 193.828125 133.941406 192.554688 134.589844 C 196.660156 139.59375 202.898438 142.789062 209.890625 142.789062 " fill-opacity="1" fill-rule="nonzero"/><path fill="#6ed0eb" d="M 216.804688 115.726562 C 217.96875 115.59375 219.140625 115.472656 220.320312 115.367188 C 218.421875 111.535156 214.46875 108.898438 209.890625 108.898438 C 204.003906 108.898438 199.152344 113.253906 198.371094 118.902344 C 199.507812 118.632812 200.65625 118.371094 201.824219 118.125 C 202.847656 114.652344 206.070312 112.113281 209.890625 112.113281 C 212.757812 112.113281 215.285156 113.542969 216.804688 115.726562 " fill-opacity="1" fill-rule="nonzero"/><g clip-path="url(#ec380b7780)"><path fill="#f68712" d="M 169.480469 159.164062 C 167.132812 143.429688 195.628906 126.175781 233.128906 120.625 C 248.625 118.328125 263.230469 118.394531 275.207031 120.371094 C 263.996094 117.765625 251.101562 116.28125 237.378906 116.28125 C 194.164062 116.28125 159.132812 130.980469 159.132812 149.113281 C 159.132812 157.246094 166.191406 164.691406 177.871094 170.425781 C 173.109375 167.339844 170.132812 163.542969 169.480469 159.164062 " fill-opacity="1" fill-rule="nonzero"/></g><g fill="#23268b" fill-opacity="1"><g transform="translate(105.170641, 199.874409)"><g><path d="M 1.546875 0 L 1.546875 -17.765625 L 8.65625 -17.765625 C 10.613281 -17.765625 12.082031 -17.335938 13.0625 -16.484375 C 14.050781 -15.628906 14.546875 -14.535156 14.546875 -13.203125 C 14.546875 -12.160156 14.242188 -11.316406 13.640625 -10.671875 C 13.035156 -10.023438 12.269531 -9.597656 11.34375 -9.390625 L 11.34375 -9.21875 C 12.019531 -9.1875 12.65625 -8.992188 13.25 -8.640625 C 13.84375 -8.296875 14.320312 -7.804688 14.6875 -7.171875 C 15.0625 -6.546875 15.25 -5.789062 15.25 -4.90625 C 15.25 -3.96875 15.015625 -3.128906 14.546875 -2.390625 C 14.078125 -1.648438 13.390625 -1.066406 12.484375 -0.640625 C 11.578125 -0.210938 10.457031 0 9.125 0 Z M 5.296875 -3.0625 L 8.359375 -3.0625 C 9.410156 -3.0625 10.175781 -3.265625 10.65625 -3.671875 C 11.132812 -4.078125 11.375 -4.613281 11.375 -5.28125 C 11.375 -6.019531 11.109375 -6.617188 10.578125 -7.078125 C 10.054688 -7.546875 9.347656 -7.78125 8.453125 -7.78125 L 5.296875 -7.78125 Z M 5.296875 -10.328125 L 8.078125 -10.328125 C 8.847656 -10.328125 9.488281 -10.523438 10 -10.921875 C 10.507812 -11.328125 10.765625 -11.878906 10.765625 -12.578125 C 10.765625 -13.222656 10.535156 -13.738281 10.078125 -14.125 C 9.628906 -14.519531 8.988281 -14.71875 8.15625 -14.71875 L 5.296875 -14.71875 Z M 5.296875 -10.328125 "/></g></g></g><g fill="#23268b" fill-opacity="1"><g transform="translate(121.522344, 199.874409)"><g><path d="M 1.546875 0 L 1.546875 -17.765625 L 5.296875 -17.765625 L 5.296875 -3.09375 L 12.90625 -3.09375 L 12.90625 0 Z M 1.546875 0 "/></g></g></g><g fill="#23268b" fill-opacity="1"><g transform="translate(135.594253, 199.874409)"><g><path d="M 12.546875 -17.765625 L 16.265625 -17.765625 L 16.265625 -6.015625 C 16.265625 -4.671875 15.945312 -3.53125 15.3125 -2.59375 C 14.6875 -1.664062 13.820312 -0.957031 12.71875 -0.46875 C 11.613281 0.0078125 10.34375 0.25 8.90625 0.25 C 7.46875 0.25 6.191406 0.0078125 5.078125 -0.46875 C 3.972656 -0.957031 3.109375 -1.664062 2.484375 -2.59375 C 1.859375 -3.53125 1.546875 -4.671875 1.546875 -6.015625 L 1.546875 -17.765625 L 5.296875 -17.765625 L 5.296875 -6.15625 C 5.296875 -5.195312 5.640625 -4.445312 6.328125 -3.90625 C 7.015625 -3.363281 7.875 -3.09375 8.90625 -3.09375 C 9.957031 -3.09375 10.828125 -3.363281 11.515625 -3.90625 C 12.203125 -4.445312 12.546875 -5.195312 12.546875 -6.15625 Z M 12.546875 -17.765625 "/></g></g></g><g fill="#23268b" fill-opacity="1"><g transform="translate(153.618958, 199.874409)"><g><path d="M 1.546875 0 L 1.546875 -17.765625 L 13.515625 -17.765625 L 13.515625 -14.671875 L 5.296875 -14.671875 L 5.296875 -10.4375 L 12.890625 -10.4375 L 12.890625 -7.34375 L 5.296875 -7.34375 L 5.296875 -3.09375 L 13.546875 -3.09375 L 13.546875 0 Z M 1.546875 0 "/></g></g></g><g fill="#23268b" fill-opacity="1"><g transform="translate(168.791766, 199.874409)"><g><path d="M 13.328125 -12.015625 C 13.085938 -12.847656 12.644531 -13.5 12 -13.96875 C 11.363281 -14.445312 10.5625 -14.6875 9.59375 -14.6875 C 8.238281 -14.6875 7.140625 -14.179688 6.296875 -13.171875 C 5.453125 -12.171875 5.03125 -10.742188 5.03125 -8.890625 C 5.03125 -7.035156 5.441406 -5.601562 6.265625 -4.59375 C 7.097656 -3.582031 8.222656 -3.078125 9.640625 -3.078125 C 10.890625 -3.078125 11.867188 -3.398438 12.578125 -4.046875 C 13.296875 -4.703125 13.664062 -5.578125 13.6875 -6.671875 L 9.875 -6.671875 L 9.875 -9.5 L 17.296875 -9.5 L 17.296875 -7.265625 C 17.296875 -5.710938 16.96875 -4.375 16.3125 -3.25 C 15.65625 -2.125 14.75 -1.257812 13.59375 -0.65625 C 12.4375 -0.0507812 11.113281 0.25 9.625 0.25 C 7.957031 0.25 6.492188 -0.117188 5.234375 -0.859375 C 3.972656 -1.597656 2.988281 -2.644531 2.28125 -4 C 1.582031 -5.363281 1.234375 -6.984375 1.234375 -8.859375 C 1.234375 -10.785156 1.597656 -12.429688 2.328125 -13.796875 C 3.066406 -15.160156 4.0625 -16.203125 5.3125 -16.921875 C 6.570312 -17.640625 7.984375 -18 9.546875 -18 C 10.878906 -18 12.085938 -17.742188 13.171875 -17.234375 C 14.265625 -16.734375 15.15625 -16.03125 15.84375 -15.125 C 16.539062 -14.226562 16.972656 -13.191406 17.140625 -12.015625 Z M 13.328125 -12.015625 "/></g></g></g><g fill="#23268b" fill-opacity="1"><g transform="translate(187.579288, 199.874409)"><g><path d="M 1.546875 0 L 1.546875 -17.765625 L 13.515625 -17.765625 L 13.515625 -14.671875 L 5.296875 -14.671875 L 5.296875 -10.4375 L 12.890625 -10.4375 L 12.890625 -7.34375 L 5.296875 -7.34375 L 5.296875 -3.09375 L 13.546875 -3.09375 L 13.546875 0 Z M 1.546875 0 "/></g></g></g><g fill="#23268b" fill-opacity="1"><g transform="translate(202.75209, 199.874409)"><g><path d="M 4.609375 0 L 0.578125 0 L 6.71875 -17.765625 L 11.546875 -17.765625 L 17.671875 0 L 13.65625 0 L 12.328125 -4.046875 L 5.921875 -4.046875 Z M 6.875 -6.984375 L 11.390625 -6.984375 L 9.203125 -13.703125 L 9.0625 -13.703125 Z M 6.875 -6.984375 "/></g></g></g><g fill="#23268b" fill-opacity="1"><g transform="translate(221.227553, 199.874409)"><g><path d="M 1.546875 0 L 1.546875 -17.765625 L 8.546875 -17.765625 C 10.566406 -17.765625 12.132812 -17.238281 13.25 -16.1875 C 14.363281 -15.132812 14.921875 -13.722656 14.921875 -11.953125 C 14.921875 -10.742188 14.648438 -9.707031 14.109375 -8.84375 C 13.566406 -7.976562 12.789062 -7.332031 11.78125 -6.90625 L 15.546875 0 L 11.40625 0 L 8.046875 -6.296875 L 5.296875 -6.296875 L 5.296875 0 Z M 5.296875 -9.3125 L 7.84375 -9.3125 C 9.976562 -9.3125 11.046875 -10.191406 11.046875 -11.953125 C 11.046875 -13.773438 9.972656 -14.6875 7.828125 -14.6875 L 5.296875 -14.6875 Z M 5.296875 -9.3125 "/></g></g></g><g fill="#23268b" fill-opacity="1"><g transform="translate(237.466574, 199.874409)"><g><path d="M 0.875 -14.671875 L 0.875 -17.765625 L 15.453125 -17.765625 L 15.453125 -14.671875 L 10.015625 -14.671875 L 10.015625 0 L 6.3125 0 L 6.3125 -14.671875 Z M 0.875 -14.671875 "/></g></g></g><g fill="#23268b" fill-opacity="1"><g transform="translate(254.000315, 199.874409)"><g><path d="M 5.296875 -17.765625 L 5.296875 0 L 1.546875 0 L 1.546875 -17.765625 Z M 5.296875 -17.765625 "/></g></g></g><g fill="#23268b" fill-opacity="1"><g transform="translate(261.068162, 199.874409)"><g><path d="M 17.859375 -8.875 C 17.859375 -6.9375 17.492188 -5.289062 16.765625 -3.9375 C 16.035156 -2.582031 15.039062 -1.546875 13.78125 -0.828125 C 12.53125 -0.109375 11.117188 0.25 9.546875 0.25 C 7.972656 0.25 6.554688 -0.109375 5.296875 -0.828125 C 4.046875 -1.546875 3.054688 -2.585938 2.328125 -3.953125 C 1.597656 -5.316406 1.234375 -6.957031 1.234375 -8.875 C 1.234375 -10.8125 1.597656 -12.457031 2.328125 -13.8125 C 3.054688 -15.175781 4.046875 -16.210938 5.296875 -16.921875 C 6.554688 -17.640625 7.972656 -18 9.546875 -18 C 11.117188 -18 12.53125 -17.640625 13.78125 -16.921875 C 15.039062 -16.210938 16.035156 -15.175781 16.765625 -13.8125 C 17.492188 -12.457031 17.859375 -10.8125 17.859375 -8.875 Z M 14.0625 -8.875 C 14.0625 -10.757812 13.648438 -12.195312 12.828125 -13.1875 C 12.003906 -14.1875 10.910156 -14.6875 9.546875 -14.6875 C 8.179688 -14.6875 7.085938 -14.1875 6.265625 -13.1875 C 5.441406 -12.195312 5.03125 -10.757812 5.03125 -8.875 C 5.03125 -7 5.441406 -5.5625 6.265625 -4.5625 C 7.085938 -3.570312 8.179688 -3.078125 9.546875 -3.078125 C 10.910156 -3.078125 12.003906 -3.570312 12.828125 -4.5625 C 13.648438 -5.5625 14.0625 -7 14.0625 -8.875 Z M 14.0625 -8.875 "/></g></g></g><g fill="#23268b" fill-opacity="1"><g transform="translate(280.375791, 199.874409)"><g><path d="M 16.40625 -17.765625 L 16.40625 0 L 13.15625 0 L 5.421875 -11.171875 L 5.296875 -11.171875 L 5.296875 0 L 1.546875 0 L 1.546875 -17.765625 L 4.84375 -17.765625 L 12.5 -6.59375 L 12.65625 -6.59375 L 12.65625 -17.765625 Z M 16.40625 -17.765625 "/></g></g></g><g fill="#e86818" fill-opacity="1"><g transform="translate(124.114169, 214.410968)"><g><path d="M 1.78125 -7.359375 L 1.78125 0 L 0.890625 0 L 0.890625 -7.359375 Z M 1.78125 -7.359375 "/></g></g></g><g fill="#e86818" fill-opacity="1"><g transform="translate(128.185584, 214.410968)"><g><path d="M 6.734375 -7.359375 L 6.734375 0 L 5.875 0 L 1.859375 -5.78125 L 1.78125 -5.78125 L 1.78125 0 L 0.890625 0 L 0.890625 -7.359375 L 1.75 -7.359375 L 5.78125 -1.5625 L 5.859375 -1.5625 L 5.859375 -7.359375 Z M 6.734375 -7.359375 "/></g></g></g><g fill="#e86818" fill-opacity="1"><g transform="translate(137.202208, 214.410968)"><g><path d="M 3.171875 0 L 0.890625 0 L 0.890625 -7.359375 L 3.265625 -7.359375 C 3.984375 -7.359375 4.59375 -7.210938 5.09375 -6.921875 C 5.601562 -6.628906 5.992188 -6.207031 6.265625 -5.65625 C 6.535156 -5.113281 6.671875 -4.460938 6.671875 -3.703125 C 6.671875 -2.929688 6.535156 -2.269531 6.265625 -1.71875 C 5.992188 -1.164062 5.59375 -0.738281 5.0625 -0.4375 C 4.539062 -0.144531 3.910156 0 3.171875 0 Z M 1.78125 -0.796875 L 3.109375 -0.796875 C 4.015625 -0.796875 4.691406 -1.050781 5.140625 -1.5625 C 5.585938 -2.082031 5.8125 -2.796875 5.8125 -3.703125 C 5.8125 -4.585938 5.59375 -5.285156 5.15625 -5.796875 C 4.71875 -6.316406 4.066406 -6.578125 3.203125 -6.578125 L 1.78125 -6.578125 Z M 1.78125 -0.796875 "/></g></g></g><g fill="#e86818" fill-opacity="1"><g transform="translate(145.873817, 214.410968)"><g><path d="M 5.71875 -7.359375 L 6.609375 -7.359375 L 6.609375 -2.484375 C 6.609375 -1.929688 6.476562 -1.457031 6.21875 -1.0625 C 5.957031 -0.675781 5.609375 -0.378906 5.171875 -0.171875 C 4.742188 0.0234375 4.269531 0.125 3.75 0.125 C 3.238281 0.125 2.765625 0.0234375 2.328125 -0.171875 C 1.890625 -0.378906 1.539062 -0.675781 1.28125 -1.0625 C 1.019531 -1.457031 0.890625 -1.929688 0.890625 -2.484375 L 0.890625 -7.359375 L 1.78125 -7.359375 L 1.78125 -2.484375 C 1.78125 -2.097656 1.867188 -1.773438 2.046875 -1.515625 C 2.234375 -1.253906 2.476562 -1.050781 2.78125 -0.90625 C 3.082031 -0.769531 3.40625 -0.703125 3.75 -0.703125 C 4.101562 -0.703125 4.425781 -0.769531 4.71875 -0.90625 C 5.019531 -1.050781 5.257812 -1.253906 5.4375 -1.515625 C 5.625 -1.773438 5.71875 -2.097656 5.71875 -2.484375 Z M 5.71875 -7.359375 "/></g></g></g><g fill="#e86818" fill-opacity="1"><g transform="translate(154.775436, 214.410968)"><g><path d="M 4.921875 -5.515625 C 4.878906 -5.878906 4.703125 -6.160156 4.390625 -6.359375 C 4.085938 -6.566406 3.710938 -6.671875 3.265625 -6.671875 C 2.773438 -6.671875 2.378906 -6.554688 2.078125 -6.328125 C 1.785156 -6.097656 1.640625 -5.804688 1.640625 -5.453125 C 1.640625 -5.191406 1.71875 -4.976562 1.875 -4.8125 C 2.039062 -4.644531 2.234375 -4.515625 2.453125 -4.421875 C 2.679688 -4.335938 2.882812 -4.273438 3.0625 -4.234375 L 3.8125 -4.03125 C 4 -3.976562 4.210938 -3.90625 4.453125 -3.8125 C 4.691406 -3.726562 4.914062 -3.609375 5.125 -3.453125 C 5.34375 -3.304688 5.519531 -3.113281 5.65625 -2.875 C 5.800781 -2.632812 5.875 -2.34375 5.875 -2 C 5.875 -1.601562 5.769531 -1.242188 5.5625 -0.921875 C 5.363281 -0.597656 5.0625 -0.34375 4.65625 -0.15625 C 4.257812 0.03125 3.78125 0.125 3.21875 0.125 C 2.425781 0.125 1.796875 -0.0625 1.328125 -0.4375 C 0.867188 -0.8125 0.617188 -1.300781 0.578125 -1.90625 L 1.5 -1.90625 C 1.519531 -1.625 1.613281 -1.390625 1.78125 -1.203125 C 1.945312 -1.023438 2.15625 -0.890625 2.40625 -0.796875 C 2.65625 -0.710938 2.925781 -0.671875 3.21875 -0.671875 C 3.5625 -0.671875 3.867188 -0.726562 4.140625 -0.84375 C 4.410156 -0.957031 4.625 -1.113281 4.78125 -1.3125 C 4.9375 -1.507812 5.015625 -1.742188 5.015625 -2.015625 C 5.015625 -2.253906 4.945312 -2.453125 4.8125 -2.609375 C 4.675781 -2.765625 4.492188 -2.890625 4.265625 -2.984375 C 4.046875 -3.078125 3.804688 -3.160156 3.546875 -3.234375 L 2.640625 -3.5 C 2.066406 -3.664062 1.613281 -3.898438 1.28125 -4.203125 C 0.945312 -4.503906 0.78125 -4.90625 0.78125 -5.40625 C 0.78125 -5.820312 0.890625 -6.179688 1.109375 -6.484375 C 1.335938 -6.796875 1.640625 -7.035156 2.015625 -7.203125 C 2.398438 -7.378906 2.828125 -7.46875 3.296875 -7.46875 C 3.765625 -7.46875 4.179688 -7.378906 4.546875 -7.203125 C 4.921875 -7.035156 5.21875 -6.804688 5.4375 -6.515625 C 5.65625 -6.222656 5.769531 -5.890625 5.78125 -5.515625 Z M 4.921875 -5.515625 "/></g></g></g><g fill="#e86818" fill-opacity="1"><g transform="translate(162.627633, 214.410968)"><g><path d="M 0.484375 -6.578125 L 0.484375 -7.359375 L 6.015625 -7.359375 L 6.015625 -6.578125 L 3.703125 -6.578125 L 3.703125 0 L 2.796875 0 L 2.796875 -6.578125 Z M 0.484375 -6.578125 "/></g></g></g><g fill="#e86818" fill-opacity="1"><g transform="translate(170.522953, 214.410968)"><g><path d="M 0.890625 0 L 0.890625 -7.359375 L 3.375 -7.359375 C 3.957031 -7.359375 4.429688 -7.257812 4.796875 -7.0625 C 5.160156 -6.875 5.429688 -6.609375 5.609375 -6.265625 C 5.785156 -5.921875 5.875 -5.535156 5.875 -5.109375 C 5.875 -4.617188 5.757812 -4.191406 5.53125 -3.828125 C 5.3125 -3.460938 4.96875 -3.203125 4.5 -3.046875 L 6.171875 0 L 5.140625 0 L 3.578125 -2.875 C 3.515625 -2.875 3.453125 -2.875 3.390625 -2.875 L 1.78125 -2.875 L 1.78125 0 Z M 1.78125 -3.6875 L 3.359375 -3.6875 C 3.953125 -3.6875 4.375 -3.8125 4.625 -4.0625 C 4.875 -4.3125 5 -4.660156 5 -5.109375 C 5 -5.546875 4.875 -5.898438 4.625 -6.171875 C 4.375 -6.441406 3.945312 -6.578125 3.34375 -6.578125 L 1.78125 -6.578125 Z M 1.78125 -3.6875 "/></g></g></g><g fill="#e86818" fill-opacity="1"><g transform="translate(178.389526, 214.410968)"><g><path d="M 1.78125 -7.359375 L 1.78125 0 L 0.890625 0 L 0.890625 -7.359375 Z M 1.78125 -7.359375 "/></g></g></g><g fill="#e86818" fill-opacity="1"><g transform="translate(182.460943, 214.410968)"><g><path d="M 1.1875 0 L 0.265625 0 L 2.96875 -7.359375 L 3.890625 -7.359375 L 6.59375 0 L 5.65625 0 L 4.90625 -2.078125 L 1.9375 -2.078125 Z M 2.21875 -2.875 L 4.625 -2.875 L 3.453125 -6.203125 L 3.390625 -6.203125 Z M 2.21875 -2.875 "/></g></g></g><g fill="#e86818" fill-opacity="1"><g transform="translate(190.701281, 214.410968)"><g><path d="M 0.890625 0 L 0.890625 -7.359375 L 1.78125 -7.359375 L 1.78125 -0.796875 L 5.203125 -0.796875 L 5.203125 0 Z M 0.890625 0 "/></g></g></g><g fill="#e86818" fill-opacity="1"><g transform="translate(197.79157, 214.410968)"><g/></g></g><g fill="#e86818" fill-opacity="1"><g transform="translate(202.035495, 214.410968)"><g><path d="M 0.890625 0 L 0.890625 -7.359375 L 3.375 -7.359375 C 3.957031 -7.359375 4.429688 -7.257812 4.796875 -7.0625 C 5.160156 -6.875 5.429688 -6.609375 5.609375 -6.265625 C 5.785156 -5.921875 5.875 -5.535156 5.875 -5.109375 C 5.875 -4.617188 5.757812 -4.191406 5.53125 -3.828125 C 5.3125 -3.460938 4.96875 -3.203125 4.5 -3.046875 L 6.171875 0 L 5.140625 0 L 3.578125 -2.875 C 3.515625 -2.875 3.453125 -2.875 3.390625 -2.875 L 1.78125 -2.875 L 1.78125 0 Z M 1.78125 -3.6875 L 3.359375 -3.6875 C 3.953125 -3.6875 4.375 -3.8125 4.625 -4.0625 C 4.875 -4.3125 5 -4.660156 5 -5.109375 C 5 -5.546875 4.875 -5.898438 4.625 -6.171875 C 4.375 -6.441406 3.945312 -6.578125 3.34375 -6.578125 L 1.78125 -6.578125 Z M 1.78125 -3.6875 "/></g></g></g><g fill="#e86818" fill-opacity="1"><g transform="translate(209.902073, 214.410968)"><g><path d="M 0.890625 0 L 0.890625 -7.359375 L 5.328125 -7.359375 L 5.328125 -6.578125 L 1.78125 -6.578125 L 1.78125 -4.078125 L 5.109375 -4.078125 L 5.109375 -3.296875 L 1.78125 -3.296875 L 1.78125 -0.796875 L 5.390625 -0.796875 L 5.390625 0 Z M 0.890625 0 "/></g></g></g><g fill="#e86818" fill-opacity="1"><g transform="translate(217.351755, 214.410968)"><g><path d="M 1.1875 -7.359375 L 3.375 -1.171875 L 3.46875 -1.171875 L 5.65625 -7.359375 L 6.59375 -7.359375 L 3.890625 0 L 2.96875 0 L 0.265625 -7.359375 Z M 1.1875 -7.359375 "/></g></g></g><g fill="#e86818" fill-opacity="1"><g transform="translate(225.592094, 214.410968)"><g><path d="M 7.109375 -3.6875 C 7.109375 -2.90625 6.96875 -2.226562 6.6875 -1.65625 C 6.40625 -1.09375 6.019531 -0.660156 5.53125 -0.359375 C 5.039062 -0.0546875 4.484375 0.09375 3.859375 0.09375 C 3.222656 0.09375 2.660156 -0.0546875 2.171875 -0.359375 C 1.691406 -0.660156 1.3125 -1.09375 1.03125 -1.65625 C 0.75 -2.226562 0.609375 -2.90625 0.609375 -3.6875 C 0.609375 -4.457031 0.75 -5.125 1.03125 -5.6875 C 1.3125 -6.257812 1.691406 -6.695312 2.171875 -7 C 2.660156 -7.3125 3.222656 -7.46875 3.859375 -7.46875 C 4.484375 -7.46875 5.039062 -7.3125 5.53125 -7 C 6.019531 -6.695312 6.40625 -6.257812 6.6875 -5.6875 C 6.96875 -5.125 7.109375 -4.457031 7.109375 -3.6875 Z M 6.234375 -3.6875 C 6.234375 -4.320312 6.128906 -4.859375 5.921875 -5.296875 C 5.710938 -5.734375 5.425781 -6.0625 5.0625 -6.28125 C 4.695312 -6.507812 4.296875 -6.625 3.859375 -6.625 C 3.410156 -6.625 3.003906 -6.507812 2.640625 -6.28125 C 2.285156 -6.0625 2 -5.734375 1.78125 -5.296875 C 1.570312 -4.859375 1.46875 -4.320312 1.46875 -3.6875 C 1.46875 -3.039062 1.570312 -2.5 1.78125 -2.0625 C 2 -1.625 2.285156 -1.289062 2.640625 -1.0625 C 3.003906 -0.84375 3.410156 -0.734375 3.859375 -0.734375 C 4.296875 -0.734375 4.695312 -0.84375 5.0625 -1.0625 C 5.425781 -1.289062 5.710938 -1.625 5.921875 -2.0625 C 6.128906 -2.5 6.234375 -3.039062 6.234375 -3.6875 Z M 6.234375 -3.6875 "/></g></g></g><g fill="#e86818" fill-opacity="1"><g transform="translate(234.694968, 214.410968)"><g><path d="M 0.890625 0 L 0.890625 -7.359375 L 1.78125 -7.359375 L 1.78125 -0.796875 L 5.203125 -0.796875 L 5.203125 0 Z M 0.890625 0 "/></g></g></g><g fill="#e86818" fill-opacity="1"><g transform="translate(241.785257, 214.410968)"><g><path d="M 5.71875 -7.359375 L 6.609375 -7.359375 L 6.609375 -2.484375 C 6.609375 -1.929688 6.476562 -1.457031 6.21875 -1.0625 C 5.957031 -0.675781 5.609375 -0.378906 5.171875 -0.171875 C 4.742188 0.0234375 4.269531 0.125 3.75 0.125 C 3.238281 0.125 2.765625 0.0234375 2.328125 -0.171875 C 1.890625 -0.378906 1.539062 -0.675781 1.28125 -1.0625 C 1.019531 -1.457031 0.890625 -1.929688 0.890625 -2.484375 L 0.890625 -7.359375 L 1.78125 -7.359375 L 1.78125 -2.484375 C 1.78125 -2.097656 1.867188 -1.773438 2.046875 -1.515625 C 2.234375 -1.253906 2.476562 -1.050781 2.78125 -0.90625 C 3.082031 -0.769531 3.40625 -0.703125 3.75 -0.703125 C 4.101562 -0.703125 4.425781 -0.769531 4.71875 -0.90625 C 5.019531 -1.050781 5.257812 -1.253906 5.4375 -1.515625 C 5.625 -1.773438 5.71875 -2.097656 5.71875 -2.484375 Z M 5.71875 -7.359375 "/></g></g></g><g fill="#e86818" fill-opacity="1"><g transform="translate(250.686879, 214.410968)"><g><path d="M 0.484375 -6.578125 L 0.484375 -7.359375 L 6.015625 -7.359375 L 6.015625 -6.578125 L 3.703125 -6.578125 L 3.703125 0 L 2.796875 0 L 2.796875 -6.578125 Z M 0.484375 -6.578125 "/></g></g></g><g fill="#e86818" fill-opacity="1"><g transform="translate(258.582203, 214.410968)"><g><path d="M 1.78125 -7.359375 L 1.78125 0 L 0.890625 0 L 0.890625 -7.359375 Z M 1.78125 -7.359375 "/></g></g></g><g fill="#e86818" fill-opacity="1"><g transform="translate(262.65362, 214.410968)"><g><path d="M 7.109375 -3.6875 C 7.109375 -2.90625 6.96875 -2.226562 6.6875 -1.65625 C 6.40625 -1.09375 6.019531 -0.660156 5.53125 -0.359375 C 5.039062 -0.0546875 4.484375 0.09375 3.859375 0.09375 C 3.222656 0.09375 2.660156 -0.0546875 2.171875 -0.359375 C 1.691406 -0.660156 1.3125 -1.09375 1.03125 -1.65625 C 0.75 -2.226562 0.609375 -2.90625 0.609375 -3.6875 C 0.609375 -4.457031 0.75 -5.125 1.03125 -5.6875 C 1.3125 -6.257812 1.691406 -6.695312 2.171875 -7 C 2.660156 -7.3125 3.222656 -7.46875 3.859375 -7.46875 C 4.484375 -7.46875 5.039062 -7.3125 5.53125 -7 C 6.019531 -6.695312 6.40625 -6.257812 6.6875 -5.6875 C 6.96875 -5.125 7.109375 -4.457031 7.109375 -3.6875 Z M 6.234375 -3.6875 C 6.234375 -4.320312 6.128906 -4.859375 5.921875 -5.296875 C 5.710938 -5.734375 5.425781 -6.0625 5.0625 -6.28125 C 4.695312 -6.507812 4.296875 -6.625 3.859375 -6.625 C 3.410156 -6.625 3.003906 -6.507812 2.640625 -6.28125 C 2.285156 -6.0625 2 -5.734375 1.78125 -5.296875 C 1.570312 -4.859375 1.46875 -4.320312 1.46875 -3.6875 C 1.46875 -3.039062 1.570312 -2.5 1.78125 -2.0625 C 2 -1.625 2.285156 -1.289062 2.640625 -1.0625 C 3.003906 -0.84375 3.410156 -0.734375 3.859375 -0.734375 C 4.296875 -0.734375 4.695312 -0.84375 5.0625 -1.0625 C 5.425781 -1.289062 5.710938 -1.625 5.921875 -2.0625 C 6.128906 -2.5 6.234375 -3.039062 6.234375 -3.6875 Z M 6.234375 -3.6875 "/></g></g></g><g fill="#e86818" fill-opacity="1"><g transform="translate(271.756495, 214.410968)"><g><path d="M 6.734375 -7.359375 L 6.734375 0 L 5.875 0 L 1.859375 -5.78125 L 1.78125 -5.78125 L 1.78125 0 L 0.890625 0 L 0.890625 -7.359375 L 1.75 -7.359375 L 5.78125 -1.5625 L 5.859375 -1.5625 L 5.859375 -7.359375 Z M 6.734375 -7.359375 "/></g></g></g></svg>